<?xml version="1.0" encoding="utf-8"?>
<!-- Generator: Adobe Illustrator 22.1.0, SVG Export Plug-In . SVG Version: 6.00 Build 0)  -->
<svg version="1.1" id="Layer_1_Image" xmlns="http://www.w3.org/2000/svg" xmlns:xlink="http://www.w3.org/1999/xlink" x="0px"
	 y="0px" viewBox="0 0 295.4 295.4" style="enable-background:new 0 0 295.4 295.4;" xml:space="preserve">
<style type="text/css">
	.st0{fill:#8d3ead;}
	.st1{fill:#FFFFFF;}
</style>
<title>logoOptima2019</title>
<circle class="st0" cx="146.5" cy="147.3" r="145.8"/>
<path class="st1" d="M206.6,139.3c-0.8,3.6-1.6,7.2-2.5,10.7c-1.6,5.9-3.1,11.9-4.8,17.8c-1,3.2-2.2,4-5.5,3.9c-3,0-4.8-1.2-5.7-4.1
	c-1.1-4-2-8-3-12c-1.3-5.3-2.5-10.5-3.7-15.8c-0.1-0.3-0.2-0.6-0.3-0.9c-0.4,3-0.8,5.7-1.1,8.4c-0.7,5-1.3,9.9-2,14.9
	c-0.2,2.1-0.7,4.1-1.3,6.1c-1,2.8-3.4,3.9-6.3,3.1c-2-0.5-3.4-2.3-3.4-4.4c0.1-2.4,0.3-4.7,0.8-7c1.5-8.5,3-16.9,4.5-25.3
	c0.3-2,0.8-4,1.3-5.9c0.9-3,3-4.4,6.1-4.5c2.9-0.1,5.4,0.8,6.6,3.6c0.8,2,1.5,4,1.9,6.1c2,7.7,3.9,15.4,6,23.1
	c0.4-1.6,0.8-3.2,1.2-4.9c1.7-7.2,3.4-14.4,5.1-21.6c0.7-3.1,2.3-5.6,5.7-6.1c5-0.8,7.9,1.4,8.8,6.6c1.2,7.2,2.3,14.5,3.5,21.7
	c0.7,4.1,1.3,8.1,1.9,12.2c0.7,4.4-2.9,7.7-6.9,6.5c-1.7-0.5-2.9-1.9-3.2-3.6c-0.4-2-0.7-4-1-6c-0.6-4.9-1.2-9.8-1.8-14.7
	c-0.3-2.6-0.6-5.3-1-8L206.6,139.3z"/>
<path class="st1" d="M31.4,148c0-6.1,1.4-11.7,5.2-16.5c3.6-4.6,9-7.4,14.8-7.8c3.3-0.4,6.6-0.1,9.7,0.9c8.3,2.7,13,8.7,14.8,17
	c1.4,6,0.8,12.3-1.6,17.9c-3.3,7.3-9,11.6-17,12.6c-6.5,0.8-12.4-0.3-17.6-4.6c-4.7-3.9-7.1-9-7.8-14.9
	C31.6,151.1,31.5,149.6,31.4,148z M43.1,148l-0.3,0.1c0.3,2.3,0.7,4.5,1.3,6.7c1.4,4.4,5,7.3,9,7.4c5,0.2,8.6-1.9,10.4-6.5
	c2.2-5.2,2-11.1-0.5-16.2c-1.5-3.4-4.9-5.6-8.6-5.6c-3.9-0.3-7.7,1.8-9.4,5.3C43.6,141.9,42.9,145,43.1,148L43.1,148z"/>
<path class="st1" d="M256.5,171.7c-2,0.2-3.9-1-4.7-2.9c-0.7-1.8-1.4-3.6-1.9-5.4c-0.1-0.6-0.7-1.1-1.4-1c-4.9,0-9.7,0-14.6,0
	c-0.6-0.1-1.3,0.3-1.4,1c-0.7,2-1.4,4-2.4,5.9c-0.9,1.9-3.1,2.8-5.1,2.3c-1.9-0.3-3.4-1.8-3.7-3.7c-0.2-1-0.2-2,0-3
	c0.7-2.4,1.6-4.7,2.4-7c3.2-8.8,6.4-17.5,9.6-26.2c0.5-1.3,1.1-2.5,1.8-3.7c2.1-3.6,6.7-4.8,10.3-2.6c1.1,0.6,2,1.6,2.6,2.6
	c0.8,1.4,1.4,2.9,1.9,4.5c3.6,10.1,7.1,20.2,10.6,30.4c0.5,1.3,0.8,2.8,0.9,4.2C261.6,169.9,259.4,171.7,256.5,171.7z M236,152.4
	h10.5l-5.1-16.3L236,152.4z"/>
<path class="st1" d="M92.7,156.3c0,1.9,0,3.6,0,5.4c0,1.9-0.1,3.8-0.4,5.7c-0.6,2.9-2.4,4.4-5.1,4.3c-2.7-0.1-4.5-1.8-4.9-4.7
	c-0.2-1-0.2-2-0.2-3.1c0-10.4,0-20.9,0-31.3c0-1,0.1-2.1,0.2-3.1c0.5-2.9,2.3-4.5,5.5-4.5c4.8-0.1,9.6-0.2,14.4,0.2
	c7.6,0.5,13.4,6.9,13.3,14.5c0,2.1-0.2,4.3-0.7,6.3c-1.4,5.5-6.1,9.5-11.7,10c-2.9,0.3-5.9,0.2-8.8,0.3
	C93.8,156.3,93.3,156.3,92.7,156.3z M92.7,140.6c0,1.7,0,3.4,0,5c0,0.7,0.2,1,1,1c1.4,0,2.9,0,4.4,0c3.7-0.1,5.7-1.8,6-5.4
	c0.3-3.3-1-5.7-4.8-6.2c-1.8-0.2-3.7-0.1-5.5-0.3c-0.8,0-1,0.3-1,1.1C92.7,137.4,92.7,139,92.7,140.6z"/>
<path class="st1" d="M137.3,150.7c0,4.7,0,9.4,0,14.1c0,1.2-0.2,2.4-0.6,3.5c-0.6,2.1-2.6,3.5-4.8,3.3c-2.2,0.1-4.1-1.3-4.6-3.4
	c-0.4-1.6-0.6-3.3-0.6-5c-0.1-8.9,0-17.8,0-26.7c0-1.6,0-1.5-1.6-1.6c-1.9,0-3.9-0.2-5.8-0.5c-2.2-0.2-3.8-2.1-3.8-4.2
	c0-2.6,1-4.1,3.5-4.8c1-0.3,1.9-0.4,2.9-0.5c6.7,0,13.4-0.1,20.1,0c1.4,0.1,2.7,0.4,4,0.9c1.9,0.8,2.6,2.4,2.5,4.4
	c0.1,1.7-1,3.3-2.6,3.8c-2,0.5-4,0.8-6.1,0.9c-2.6,0.1-2.6,0-2.6,2.6C137.3,141.9,137.3,146.3,137.3,150.7z"/>
<path class="st1" d="M161.9,148c0,5.6,0,11.2,0,16.8c0,1.1-0.2,2.3-0.5,3.4c-0.5,2.2-2.5,3.7-4.8,3.6c-2.2,0.2-4.3-1.3-4.7-3.5
	c-0.4-1.4-0.6-2.9-0.6-4.4c-0.1-10.5-0.1-21,0-31.5c0-1.6,0.2-3.1,0.7-4.6c0.9-2.6,3.7-4,6.3-3.1c1.4,0.5,2.5,1.6,3,3
	c0.4,1.2,0.6,2.4,0.6,3.7C161.9,136.8,161.9,142.4,161.9,148z"/>
<path class="st1" d="M157.2,119.3c-2.7,0-3.6-1.4-2.7-3.8c0.3-0.8,0.7-1.5,1.1-2.1c4.6-6.1,11-10.6,18.3-12.8
	c1.1-0.3,2.3-0.4,3.5-0.2c1.1,0.1,1.9,1,1.8,2.1c0,0.2-0.1,0.4-0.2,0.6c-0.3,1.1-0.8,2.2-1.5,3.2c-4.5,6-10.8,10.4-17.9,12.7
	c-0.5,0.2-1,0.3-1.5,0.3C157.9,119.4,157.6,119.4,157.2,119.3z"/>
</svg>
