<?xml version="1.0" encoding="utf-8"?>
<!-- Generator: Adobe Illustrator 27.5.0, SVG Export Plug-In . SVG Version: 6.00 Build 0)  -->
<svg version="1.1" xmlns="http://www.w3.org/2000/svg" xmlns:xlink="http://www.w3.org/1999/xlink" x="0px" y="0px"
	 viewBox="0 0 1122 1122" style="enable-background:new 0 0 1122 1122;" xml:space="preserve">
<g id="Bg">
	<rect style="fill:#B5DCE2;" width="1122" height="1122"/>
</g>
<g id="object">
	<g>
		<g>
			<path style="fill:#648495;" d="M807.357,682.27H268.421c-31.66,0-57.564-25.904-57.564-57.564V388.887
				c0-31.66,25.904-57.564,57.564-57.564h538.937c31.66,0,57.564,25.904,57.564,57.564v235.818
				C864.922,656.366,839.018,682.27,807.357,682.27z"/>
			<g>
				<polygon style="fill:#EDD366;" points="564.799,420.009 491.734,511.56 534.042,511.56 505.196,593.583 584.043,497.137 
					537.888,497.137 				"/>
				<g>
					<path style="fill:#EDD366;" d="M510.371,564.193c-0.299,0-0.602-0.067-0.889-0.209c-21.856-10.877-35.434-32.79-35.434-57.188
						c0-33.421,26.089-61.395,59.394-63.688c1.115-0.057,2.058,0.756,2.133,1.857c0.076,1.103-0.756,2.058-1.857,2.133
						c-31.217,2.148-55.669,28.37-55.669,59.697c0,22.869,12.728,43.41,33.215,53.606c0.989,0.492,1.392,1.693,0.899,2.682
						C511.813,563.787,511.106,564.193,510.371,564.193z"/>
				</g>
				<g>
					<path style="fill:#EDD366;" d="M537.888,570.636c-1.482,0-2.974-0.051-4.431-0.151c-1.102-0.076-1.934-1.03-1.857-2.133
						c0.076-1.101,1.012-1.93,2.133-1.857c1.365,0.094,2.764,0.142,4.155,0.142c32.996,0,59.841-26.844,59.841-59.84
						c0-24.104-14.346-45.748-36.549-55.139c-1.018-0.43-1.493-1.604-1.063-2.621c0.43-1.017,1.602-1.492,2.621-1.063
						c23.685,10.018,38.99,33.108,38.99,58.822C601.729,541.998,573.091,570.636,537.888,570.636z"/>
				</g>
			</g>
			<g>
				
					<ellipse transform="matrix(0.7071 -0.7071 0.7071 0.7071 -192.8353 287.442)" style="fill:#7CB2AB;" cx="250.556" cy="376.494" rx="7.333" ry="7.333"/>
				
					<ellipse transform="matrix(0.2298 -0.9732 0.9732 0.2298 -192.6638 549.0654)" style="fill:#7CB2AB;" cx="250.556" cy="396.253" rx="7.333" ry="7.333"/>
				<circle style="fill:#7CB2AB;" cx="250.556" cy="416.013" r="7.333"/>
				<circle style="fill:#D9E2ED;" cx="250.556" cy="435.773" r="7.333"/>
			</g>
			<g>
				<circle style="fill:#D9E2ED;" cx="265.509" cy="503.65" r="29.333"/>
				<g>
					<path style="fill:#648495;" d="M254.301,498.93c-0.282,0.753,0.102,1.597,0.859,1.879c0.755,0.282,1.597-0.102,1.879-0.859
						c1.536-4.117,5.522-6.883,9.918-6.883c5.835,0,10.582,4.747,10.582,10.582c0,5.835-4.747,10.583-10.582,10.583
						c-4.4,0-8.388-2.77-9.922-6.892c-0.281-0.756-1.122-1.142-1.878-0.86c-0.757,0.281-1.142,1.124-0.86,1.878
						c1.957,5.261,7.044,8.796,12.66,8.796c7.447,0,13.505-6.059,13.505-13.505c0-7.447-6.058-13.505-13.505-13.505
						C261.347,490.145,256.262,493.675,254.301,498.93z"/>
					<path style="fill:#648495;" d="M268.418,503.649c0-0.807-0.655-1.461-1.461-1.461h-14.941c-0.806,0-1.461,0.655-1.461,1.461
						c0,0.806,0.655,1.461,1.461,1.461h14.941C267.764,505.111,268.418,504.456,268.418,503.649z"/>
				</g>
			</g>
		</g>
		<g>
			<g>
				<g>
					<path style="fill:#648495;" d="M210.857,801.129c-2.209,0-4-1.791-4-4v-30.743c0-2.209,1.791-4,4-4h714.169V249.708H656.993
						c-2.209,0-4-1.791-4-4s1.791-4,4-4h272.032c2.209,0,4,1.791,4,4v520.678c0,2.209-1.791,4-4,4H214.857v26.743
						C214.857,799.338,213.066,801.129,210.857,801.129z"/>
				</g>
				<g>
					<g>
						<path style="fill:#EDE9ED;" d="M218.689,921.227h-16.117c-3.888,0-7.039-3.152-7.039-7.039v-10.175h30.196v10.175
							C225.728,918.076,222.577,921.227,218.689,921.227z"/>
						<path style="fill:#B3B3B3;" d="M218.496,919.777h-16.387c-1.731,0-3.147-1.416-3.147-3.147v-4.048
							c0-1.731,1.416-3.147,3.147-3.147h16.387c1.731,0,3.147,1.416,3.147,3.147v4.048
							C221.643,918.361,220.227,919.777,218.496,919.777z"/>
						<g>
							<rect x="201.333" y="911.237" style="fill:#F4F4F6;" width="1.368" height="6.502"/>
							<rect x="203.658" y="911.237" style="fill:#F4F4F6;" width="1.368" height="6.502"/>
							<rect x="205.983" y="911.237" style="fill:#F4F4F6;" width="1.368" height="6.502"/>
							<rect x="208.308" y="911.237" style="fill:#F4F4F6;" width="1.368" height="6.502"/>
							<rect x="210.633" y="911.237" style="fill:#F4F4F6;" width="1.368" height="6.502"/>
							<rect x="212.958" y="911.237" style="fill:#F4F4F6;" width="1.368" height="6.502"/>
							<rect x="215.283" y="911.237" style="fill:#F4F4F6;" width="1.368" height="6.502"/>
							<rect x="217.608" y="911.237" style="fill:#F4F4F6;" width="1.368" height="6.502"/>
						</g>
					</g>
					<path style="fill:#7CB2AB;" d="M230.222,903.398H191.49c-1.39,0-2.516-1.126-2.516-2.516v-84.57
						c0-1.39,1.127-2.516,2.516-2.516h38.731c1.39,0,2.516,1.127,2.516,2.516v84.57
						C232.738,902.272,231.611,903.398,230.222,903.398z"/>
				</g>
				<rect x="204.748" y="797.13" style="fill:#FF9675;" width="11.643" height="16.667"/>
			</g>
			<g>
				<path style="fill:#FF9675;" d="M640.063,285.088h-0.07v-78.76h0.07c9.35,0,16.93,7.58,16.93,16.93v44.899
					C656.994,277.508,649.414,285.088,640.063,285.088z"/>
				<g>
					<g>
						<rect x="406.197" y="210.43" style="fill:#EDE9ED;" width="76.681" height="76.681"/>
						<rect x="436.994" y="221.346" style="fill:#B3B3B3;" width="18.105" height="18.105"/>
						<rect x="436.994" y="258.621" style="fill:#B3B3B3;" width="18.105" height="18.105"/>
						<g>
							<rect x="406.197" y="221.746" style="fill:#F4F4F6;" width="21.833" height="6.124"/>
							<rect x="406.197" y="233.727" style="fill:#F4F4F6;" width="21.833" height="6.124"/>
							<rect x="406.197" y="245.708" style="fill:#F4F4F6;" width="21.833" height="6.124"/>
							<rect x="406.197" y="257.69" style="fill:#F4F4F6;" width="21.833" height="6.124"/>
							<rect x="406.197" y="269.671" style="fill:#F4F4F6;" width="21.833" height="6.124"/>
						</g>
					</g>
					<rect x="482.878" y="200.773" style="fill:#7CB2AB;" width="157.116" height="95.995"/>
				</g>
			</g>
		</g>
	</g>
</g>
</svg>
