<?xml version="1.0" encoding="utf-8"?>
<!-- Generator: Adobe Illustrator 27.5.0, SVG Export Plug-In . SVG Version: 6.00 Build 0)  -->
<svg version="1.1" id="Layer_1" xmlns="http://www.w3.org/2000/svg" xmlns:xlink="http://www.w3.org/1999/xlink" x="0px" y="0px"
	 viewBox="0 0 1364 960" style="enable-background:new 0 0 1364 960;" xml:space="preserve">
<g>
	<path style="fill:#E0F2FF;" d="M1303.715,584.824c-0.638-5.506-1.899-10.957-3.672-16.202c-2.839-8.609-7.068-16.674-12.24-23.515
		c-13.292-17.573-31.862-28.251-50.618-36.211c-5.518-2.345-11.502-4.849-14.733-10.635c-0.452-0.81-0.828-1.63-1.14-2.458
		c-4.262-12.571,6.468-26.973,12.043-40.073c3.415-8.024,4.694-16.56,4.261-25.096c-0.059-0.002-0.118-0.002-0.177-0.004
		c-0.008-0.187-0.005-0.373-0.014-0.56c-1.236-24.798-16.858-49.638-36.101-62.362c-25.878-17.104-56.569-19.629-85.32-28.165
		c-1.03-0.309-2.06-0.629-3.09-0.959c-14.809-4.742-29.78-12.127-41.912-22.848c-10.646-9.399-19.091-21.356-23.341-36.35
		c17.758-10.976,38.475-28.805,34.269-51.993c-3.241-17.871-19.839-26.972-34.637-32.14
		c-40.383-14.099-99.955-18.191-150.638-18.191H299.852c-20.273,0-62.152,1.886-78.771,15.825
		c-11.698,9.793-19.796,27.153-19.503,43.468c0.087,4.838,0.9,9.58,2.591,14.013c0.705,1.876,1.572,3.687,2.602,5.424
		c5.865,9.943,15.644,15.516,25.271,19.651c61.946,26.578,131.676,9.953,195.357,29.945c8.131,2.557,16.966,6.543,20.587,15.527
		c4.347,10.827-1.42,24.34-10.071,30.584c-8.651,6.245-19.265,7.023-29.39,7.364c-49.674,1.705-99.608-2.867-148.935,4.199
		c-43.701,6.245-88.03,22.869-121.117,56.512c-4.271,4.337-8.358,8.962-12.229,13.886c-14.115,17.946-25.444,42.221-21.01,66.177
		c0.585,3.144,1.431,6.223,2.158,9.335c0.564,2.44,1.062,4.902,1.29,7.417c3.979,42.839-63.247,61.051-55.832,103.241
		c0.301,1.711,0.72,3.328,1.224,4.874c6.37,20.761,29.957,27.368,49.053,32.455c13.357,3.559,28.426,12.639,35.451,25.118
		c0.909,1.609,1.682,3.276,2.302,4.994c1.731,5.114,2.09,10.677,0.521,16.576c-2.222,8.365-8.109,14.855-10.234,23.263
		c-1.444,5.726-0.888,11.64,1.021,17.086c2.648,7.994,8.225,15.04,14.749,19.093c10.841,6.724,23.579,7.214,35.808,7.556
		c111.588,3.133,223.165,6.255,334.753,9.388l479.98-6.277c58.488,0,90.296,6.639,123.893-26.855
		c-0.26-1.616-0.675-3.135-1.21-4.577c-3.438-10.01-12.883-16.167-20.74-22.501c-5.15-4.157-10.173-10.344-12.471-16.981
		c-1.48-4.607-1.622-9.407,0.445-13.881c1.355-2.93,3.437-5.126,5.843-6.884c2.298-1.695,4.9-2.995,7.416-4.145
		c28.707-13.14,59.366-20.311,90.144-21.079c20.934-0.512,42.14,1.876,62.651-3.133c20.511-4.998,41.001-19.31,48.134-42.626
		C1304.17,602.631,1304.734,593.658,1303.715,584.824z"/>
	<g>
		<path style="fill:#D1EBFF;" d="M1246.119,731.944v50.995H92.58V600.938h30.041v-66.803h45.37v-18.896h20.804V445h3.762v70.24
			h20.804v19.297c2.428,0.9,4.163,3.231,4.163,5.973v2.483c0,2.754-1.735,5.074-4.163,5.973v4.878
			c2.428,0.889,4.163,3.22,4.163,5.974v2.483c0,2.613-1.572,4.857-3.827,5.832c-0.108,0.054-0.217,0.098-0.336,0.141v4.868
			c2.428,0.9,4.163,3.22,4.163,5.974v2.483c0,2.743-1.735,5.074-4.163,5.974v4.868c2.428,0.9,4.163,3.231,4.163,5.973v2.483
			c0,2.754-1.735,5.085-4.163,5.974v61.946l5.984,0.444l6.298,0.466l9.432,0.694l6.299,0.466l8.716,0.64V541.171h10.006v-21.064
			l73.427-12.858v33.922h10.017v161.912h32.556V525.332h44.167v-30.648h3.708v30.648h11.188v-47.701h8.098v190.164h32.751v-80.257
			h9.247v-17.606h-3.881v-4.282h17.508v-9.844h21.899v9.844h17.498v4.282H534.4v17.606h9.269v110.243l42.768,0.509l0.835,0.011
			V562.94h33.098l1.724-67.638h1.051l1.724,67.638h4.141v89.797h15.601v-22.354h25.184v113.832h38.009V596.439l2.96,1.355
			l19.882,9.128v12.045h10.993v-38.009l11.329,5.193l22.495,10.321v106.612h35.169V569.748h7.188v-33.933h18.896v-28.805h3.296
			v28.805h8.391v-28.805h3.306v28.805h18.885v33.933h7.199v79.108h46.714v-83.021h88.074v-27.461h-5.453l15.709-14.581l15.72-14.57
			l15.72,14.57l15.709,14.581h-5.453v182.727l41.673,0.477V574.681h15.145l1.864-42.443c0.033-0.553,0.499-0.987,1.052-0.954
			c0.52,0.011,0.932,0.434,0.965,0.954l1.864,42.443h15.145v58.792h15.22v-11.665h11.665v11.665h9.161v87.922h18.56v-43.213
			l8.532,3.046l6.68,2.385C1232.484,690.907,1246.119,710.255,1246.119,731.944z"/>
		<g>
			<polygon style="fill:#BDE2FF;" points="586.332,561.228 571.23,548.871 556.127,536.513 541.025,548.871 525.922,561.228 
				525.82,561.228 525.82,757.323 586.435,757.323 586.435,561.228 			"/>
			<polygon style="fill:#BDE2FF;" points="378.464,612.331 378.464,628.026 364.393,628.026 364.393,564.994 326.722,564.994 
				326.722,739.152 355.733,739.152 364.393,739.152 378.464,739.152 401.194,739.152 401.194,628.026 401.194,612.331 			"/>
			<polygon style="fill:#BDE2FF;" points="1017.776,588.311 1017.776,579.512 1012.714,579.512 1012.714,570.7 1008.496,570.7 
				1008.496,562.826 987.036,562.826 982.062,527.437 979.25,527.437 974.276,562.826 955.628,562.826 955.628,570.7 951.409,570.7 
				951.409,579.512 946.348,579.512 946.348,588.311 940.067,588.311 940.067,756.906 1024.056,756.906 1024.056,588.311 			"/>
			<polygon style="fill:#BDE2FF;" points="1104.925,591.409 1097.078,566.634 1097.078,540.454 1093.606,540.454 1093.606,566.624 
				1089.919,566.624 1089.919,545.386 1086.951,545.386 1086.951,566.624 1065.204,566.624 1057.353,591.409 1049.643,591.409 
				1049.643,760.005 1112.635,760.005 1112.635,591.409 			"/>
			<polygon style="fill:#BDE2FF;" points="758.827,597.151 739.254,560.406 710.758,560.406 710.758,597.151 710.758,601.232 
				710.758,746.381 773.75,746.381 773.75,597.151 			"/>
			<polygon style="fill:#BDE2FF;" points="1196.158,615.345 1196.158,597.798 1200.024,597.798 1200.024,593.535 1196.158,593.535 
				1182.576,593.535 1182.576,583.721 1160.767,583.721 1160.767,593.535 1147.186,593.535 1143.319,593.535 1143.319,597.798 
				1147.186,597.798 1147.186,615.345 1137.966,615.345 1137.966,754.828 1205.378,754.828 1205.378,615.345 			"/>
			<path style="fill:#BDE2FF;" d="M842.188,661.528v33.857h14.531v-68.884h7.18v-9.14h9.141v9.14h11.921v-46.054h11.867
				l1.466-33.254c0.019-0.402,0.342-0.735,0.753-0.753c0.435-0.019,0.803,0.318,0.822,0.753l1.466,33.254h11.867v46.054v8.255
				V760.32h-51.437v0.027H786.35v-64.961v-13.92L842.188,661.528z"/>
			<path style="fill:#BDE2FF;" d="M693.384,603.967V596.9h-8.009l-1.87-31.801c-0.027-0.47-0.402-0.855-0.883-0.883
				c-0.518-0.03-0.963,0.365-0.994,0.883l-1.87,31.801h-8.009v7.067h-4.8v11.926H645.94v-11.926h-31.235v11.926v6.184v147.203
				h83.479V622.076v-6.184v-11.926H693.384z"/>
			<polygon style="fill:#BDE2FF;" points="286.644,596.58 286.644,585.311 269.018,585.311 269.018,596.453 255.202,596.451 
				255.202,596.451 244.356,596.451 227.598,568.134 205.638,568.134 205.638,596.451 205.638,754.342 253.56,754.342 
				254.871,754.342 302.102,754.342 302.102,596.58 			"/>
			<polygon style="fill:#BDE2FF;" points="179.26,557.351 179.26,734.611 92.584,734.611 92.584,555.66 99.553,536.056 
				127.148,536.056 134.785,557.512 138.996,557.512 138.996,557.351 143.318,557.351 143.318,544.04 174.946,535.93 
				174.946,557.351 			"/>
			<polygon style="fill:#BDE2FF;" points="1246.119,741.157 1246.119,782.939 92.58,782.939 92.58,685.217 97.567,685.217 
				170.149,708.33 214.326,708.33 297.315,690.117 336.527,690.117 343.542,694.595 356.833,703.083 394.018,726.825 
				438.792,726.825 497.887,726.63 502.733,726.663 525.824,726.793 533.11,726.825 581.862,701.164 586.437,701.208 614.7,701.479 
				627.427,701.598 669.795,711.94 692.496,717.48 698.187,717.556 707.804,717.708 710.763,717.751 723.165,717.946 
				765.37,712.504 799.357,712.504 904.429,736.582 947.609,736.582 1017.253,716.71 1052.475,716.71 1107.982,741.157 			"/>
		</g>
		<g>
			<rect x="539.294" y="571.402" style="fill:#FFFFFF;" width="4.628" height="4.628"/>
			<rect x="549.035" y="571.402" style="fill:#FFFFFF;" width="4.628" height="4.628"/>
			<rect x="558.777" y="571.402" style="fill:#FFFFFF;" width="4.628" height="4.628"/>
			<rect x="568.519" y="571.402" style="fill:#FFFFFF;" width="4.628" height="4.628"/>
			<rect x="539.294" y="585.609" style="fill:#FFFFFF;" width="4.628" height="4.628"/>
			<rect x="549.035" y="585.609" style="fill:#FFFFFF;" width="4.628" height="4.628"/>
			<rect x="558.777" y="585.609" style="fill:#FFFFFF;" width="4.628" height="4.628"/>
			<rect x="568.519" y="585.609" style="fill:#FFFFFF;" width="4.628" height="4.628"/>
			<rect x="539.294" y="599.815" style="fill:#FFFFFF;" width="4.628" height="4.628"/>
			<rect x="549.035" y="599.815" style="fill:#FFFFFF;" width="4.628" height="4.628"/>
			<rect x="558.777" y="599.815" style="fill:#FFFFFF;" width="4.628" height="4.628"/>
			<rect x="568.519" y="599.815" style="fill:#FFFFFF;" width="4.628" height="4.628"/>
			<rect x="539.294" y="614.022" style="fill:#FFFFFF;" width="4.628" height="4.628"/>
			<rect x="549.035" y="614.022" style="fill:#FFFFFF;" width="4.628" height="4.628"/>
			<rect x="558.777" y="614.022" style="fill:#FFFFFF;" width="4.628" height="4.628"/>
			<rect x="568.519" y="614.022" style="fill:#FFFFFF;" width="4.628" height="4.628"/>
			<g>
				<rect x="336.613" y="575.627" style="fill:#FFFFFF;" width="6.542" height="6.542"/>
				<rect x="349.939" y="575.627" style="fill:#FFFFFF;" width="6.542" height="6.542"/>
				<rect x="336.613" y="586.601" style="fill:#FFFFFF;" width="6.542" height="6.542"/>
				<rect x="349.939" y="586.601" style="fill:#FFFFFF;" width="6.542" height="6.542"/>
				<rect x="336.613" y="597.575" style="fill:#FFFFFF;" width="6.542" height="6.542"/>
				<rect x="349.939" y="597.575" style="fill:#FFFFFF;" width="6.542" height="6.542"/>
				<rect x="336.613" y="608.549" style="fill:#FFFFFF;" width="6.542" height="6.542"/>
				<rect x="349.939" y="608.549" style="fill:#FFFFFF;" width="6.542" height="6.542"/>
			</g>
			<rect x="951.802" y="600.949" style="fill:#FFFFFF;" width="5.955" height="19.047"/>
			<rect x="960.175" y="600.949" style="fill:#FFFFFF;" width="5.955" height="7.845"/>
			<rect x="960.175" y="612.151" style="fill:#FFFFFF;" width="5.955" height="7.845"/>
			<rect x="975.24" y="600.949" style="fill:#FFFFFF;" width="5.955" height="19.047"/>
			<rect x="983.614" y="600.949" style="fill:#FFFFFF;" width="5.955" height="7.845"/>
			<rect x="983.614" y="612.151" style="fill:#FFFFFF;" width="5.955" height="7.845"/>
			<rect x="975.24" y="628.133" style="fill:#FFFFFF;" width="5.955" height="19.047"/>
			<rect x="983.614" y="628.133" style="fill:#FFFFFF;" width="5.955" height="7.845"/>
			<rect x="983.614" y="639.335" style="fill:#FFFFFF;" width="5.955" height="7.845"/>
			<rect x="998.679" y="600.949" style="fill:#FFFFFF;" width="5.955" height="19.047"/>
			<rect x="1007.053" y="600.949" style="fill:#FFFFFF;" width="5.955" height="7.845"/>
			<rect x="1007.053" y="612.151" style="fill:#FFFFFF;" width="5.955" height="7.845"/>
			<rect x="998.679" y="628.133" style="fill:#FFFFFF;" width="5.955" height="19.047"/>
			<rect x="1007.053" y="628.133" style="fill:#FFFFFF;" width="5.955" height="7.845"/>
			<rect x="1007.053" y="639.335" style="fill:#FFFFFF;" width="5.955" height="7.845"/>
			<rect x="998.679" y="655.317" style="fill:#FFFFFF;" width="5.955" height="19.047"/>
			<rect x="1007.053" y="655.317" style="fill:#FFFFFF;" width="5.955" height="7.845"/>
			<rect x="1007.053" y="666.519" style="fill:#FFFFFF;" width="5.955" height="7.845"/>
			<rect x="998.679" y="682.501" style="fill:#FFFFFF;" width="5.955" height="19.047"/>
			<rect x="1007.053" y="682.501" style="fill:#FFFFFF;" width="5.955" height="7.845"/>
			<rect x="1007.053" y="693.703" style="fill:#FFFFFF;" width="5.955" height="7.845"/>
			<rect x="1059.217" y="598.763" style="fill:#FFFFFF;" width="4.728" height="4.728"/>
			<rect x="1065.339" y="598.763" style="fill:#FFFFFF;" width="4.728" height="4.728"/>
			<rect x="1059.217" y="604.703" style="fill:#FFFFFF;" width="4.728" height="4.728"/>
			<rect x="1065.339" y="604.703" style="fill:#FFFFFF;" width="4.728" height="4.728"/>
			<rect x="1075.807" y="615.352" style="fill:#FFFFFF;" width="4.728" height="4.728"/>
			<rect x="1081.929" y="615.352" style="fill:#FFFFFF;" width="4.728" height="4.728"/>
			<rect x="1075.807" y="621.293" style="fill:#FFFFFF;" width="4.728" height="4.728"/>
			<rect x="1081.929" y="621.293" style="fill:#FFFFFF;" width="4.728" height="4.728"/>
			<rect x="1092.396" y="631.942" style="fill:#FFFFFF;" width="4.728" height="4.728"/>
			<rect x="1098.519" y="631.942" style="fill:#FFFFFF;" width="4.728" height="4.728"/>
			<rect x="1092.396" y="637.882" style="fill:#FFFFFF;" width="4.728" height="4.728"/>
			<rect x="1098.519" y="637.882" style="fill:#FFFFFF;" width="4.728" height="4.728"/>
			<rect x="761.339" y="606.376" style="fill:#FFFFFF;" width="4.125" height="4.397"/>
			<rect x="754.59" y="606.376" style="fill:#FFFFFF;" width="4.125" height="4.397"/>
			<rect x="761.339" y="614.021" style="fill:#FFFFFF;" width="4.125" height="4.397"/>
			<rect x="754.59" y="614.021" style="fill:#FFFFFF;" width="4.125" height="4.397"/>
			<rect x="743.659" y="606.376" style="fill:#FFFFFF;" width="4.124" height="4.397"/>
			<rect x="736.91" y="606.376" style="fill:#FFFFFF;" width="4.124" height="4.397"/>
			<rect x="743.659" y="614.021" style="fill:#FFFFFF;" width="4.124" height="4.397"/>
			<rect x="736.91" y="614.021" style="fill:#FFFFFF;" width="4.124" height="4.397"/>
			<rect x="716.756" y="565.762" style="fill:#FFFFFF;" width="16.592" height="3.248"/>
			<rect x="716.756" y="574.901" style="fill:#FFFFFF;" width="23.622" height="3.248"/>
			<rect x="716.756" y="584.041" style="fill:#FFFFFF;" width="29.106" height="3.248"/>
			<rect x="716.756" y="593.18" style="fill:#FFFFFF;" width="34.87" height="3.248"/>
			<rect x="1153.403" y="603.753" style="fill:#FFFFFF;" width="5.02" height="5.02"/>
			<rect x="1163.971" y="603.753" style="fill:#FFFFFF;" width="5.02" height="5.02"/>
			<rect x="1174.538" y="603.753" style="fill:#FFFFFF;" width="5.02" height="5.02"/>
			<rect x="1185.106" y="603.753" style="fill:#FFFFFF;" width="5.02" height="5.02"/>
			<rect x="1153.403" y="624.25" style="fill:#FFFFFF;" width="5.02" height="5.02"/>
			<rect x="1163.971" y="624.25" style="fill:#FFFFFF;" width="5.02" height="5.02"/>
			<rect x="1174.538" y="624.25" style="fill:#FFFFFF;" width="5.02" height="5.02"/>
			<rect x="1185.106" y="624.25" style="fill:#FFFFFF;" width="5.02" height="5.02"/>
			<rect x="1153.403" y="639.661" style="fill:#FFFFFF;" width="5.02" height="5.02"/>
			<rect x="1163.971" y="639.661" style="fill:#FFFFFF;" width="5.02" height="5.02"/>
			<rect x="1174.538" y="639.661" style="fill:#FFFFFF;" width="5.02" height="5.02"/>
			<rect x="1185.106" y="639.661" style="fill:#FFFFFF;" width="5.02" height="5.02"/>
			<rect x="1153.403" y="655.073" style="fill:#FFFFFF;" width="5.02" height="5.02"/>
			<rect x="1163.971" y="655.073" style="fill:#FFFFFF;" width="5.02" height="5.02"/>
			<rect x="1174.538" y="655.073" style="fill:#FFFFFF;" width="5.02" height="5.02"/>
			<rect x="1185.106" y="655.073" style="fill:#FFFFFF;" width="5.02" height="5.02"/>
			<rect x="1153.403" y="670.484" style="fill:#FFFFFF;" width="5.02" height="5.02"/>
			<rect x="1163.971" y="670.484" style="fill:#FFFFFF;" width="5.02" height="5.02"/>
			<rect x="1174.538" y="670.484" style="fill:#FFFFFF;" width="5.02" height="5.02"/>
			<rect x="1185.106" y="670.484" style="fill:#FFFFFF;" width="5.02" height="5.02"/>
			<rect x="1153.403" y="685.896" style="fill:#FFFFFF;" width="5.02" height="5.02"/>
			<rect x="1163.971" y="685.896" style="fill:#FFFFFF;" width="5.02" height="5.02"/>
			<rect x="1174.538" y="685.896" style="fill:#FFFFFF;" width="5.02" height="5.02"/>
			<rect x="1185.106" y="685.896" style="fill:#FFFFFF;" width="5.02" height="5.02"/>
			<rect x="1153.403" y="701.307" style="fill:#FFFFFF;" width="5.02" height="5.02"/>
			<rect x="1163.971" y="701.307" style="fill:#FFFFFF;" width="5.02" height="5.02"/>
			<rect x="1174.538" y="701.307" style="fill:#FFFFFF;" width="5.02" height="5.02"/>
			<rect x="1185.106" y="701.307" style="fill:#FFFFFF;" width="5.02" height="5.02"/>
			<rect x="1153.403" y="716.718" style="fill:#FFFFFF;" width="5.02" height="5.02"/>
			<rect x="1163.971" y="716.718" style="fill:#FFFFFF;" width="5.02" height="5.02"/>
			<rect x="1174.538" y="716.718" style="fill:#FFFFFF;" width="5.02" height="5.02"/>
			<rect x="1185.106" y="716.718" style="fill:#FFFFFF;" width="5.02" height="5.02"/>
			<g>
				
					<rect x="898.864" y="635.821" transform="matrix(-1 -1.224647e-16 1.224647e-16 -1 1800.4312 1323.0605)" style="fill:#FFFFFF;" width="2.703" height="51.419"/>
				
					<rect x="890.757" y="635.821" transform="matrix(-1 -1.224647e-16 1.224647e-16 -1 1784.2166 1323.0605)" style="fill:#FFFFFF;" width="2.703" height="51.419"/>
				
					<rect x="882.65" y="635.821" transform="matrix(-1 -1.224647e-16 1.224647e-16 -1 1768.0017 1323.0605)" style="fill:#FFFFFF;" width="2.702" height="51.419"/>
				
					<rect x="874.542" y="635.821" transform="matrix(-1 -1.224647e-16 1.224647e-16 -1 1751.7869 1323.0605)" style="fill:#FFFFFF;" width="2.703" height="51.419"/>
				
					<rect x="866.435" y="635.821" transform="matrix(-1 -1.224647e-16 1.224647e-16 -1 1735.5721 1323.0605)" style="fill:#FFFFFF;" width="2.703" height="51.419"/>
			</g>
			
				<rect x="901.454" y="592.578" transform="matrix(-1 -1.224647e-16 1.224647e-16 -1 1809.037 1191.2839)" style="fill:#FFFFFF;" width="6.128" height="6.128"/>
			
				<rect x="890.219" y="592.578" transform="matrix(-1 -1.224647e-16 1.224647e-16 -1 1786.5664 1191.2839)" style="fill:#FFFFFF;" width="6.128" height="6.128"/>
			
				<rect x="901.454" y="603.675" transform="matrix(-1 -1.224647e-16 1.224647e-16 -1 1809.037 1213.4785)" style="fill:#FFFFFF;" width="6.128" height="6.128"/>
			
				<rect x="890.219" y="603.675" transform="matrix(-1 -1.224647e-16 1.224647e-16 -1 1786.5664 1213.4785)" style="fill:#FFFFFF;" width="6.128" height="6.128"/>
			
				<rect x="901.454" y="614.772" transform="matrix(-1 -1.224647e-16 1.224647e-16 -1 1809.037 1235.6732)" style="fill:#FFFFFF;" width="6.128" height="6.128"/>
			
				<rect x="890.219" y="614.772" transform="matrix(-1 -1.224647e-16 1.224647e-16 -1 1786.5664 1235.6732)" style="fill:#FFFFFF;" width="6.128" height="6.128"/>
			<rect x="626.634" y="628.016" style="fill:#FFFFFF;" width="9.066" height="9.066"/>
			<rect x="660.461" y="628.016" style="fill:#FFFFFF;" width="9.066" height="9.066"/>
			<rect x="677.374" y="628.016" style="fill:#FFFFFF;" width="9.066" height="9.066"/>
			<rect x="626.634" y="645.696" style="fill:#FFFFFF;" width="9.066" height="9.066"/>
			<rect x="643.547" y="645.696" style="fill:#FFFFFF;" width="9.066" height="9.066"/>
			<rect x="660.461" y="645.696" style="fill:#FFFFFF;" width="9.066" height="9.066"/>
			<rect x="677.374" y="645.696" style="fill:#FFFFFF;" width="9.066" height="9.066"/>
			<rect x="626.634" y="663.377" style="fill:#FFFFFF;" width="9.066" height="9.066"/>
			<rect x="643.547" y="663.377" style="fill:#FFFFFF;" width="9.066" height="9.066"/>
			<rect x="660.461" y="663.377" style="fill:#FFFFFF;" width="9.066" height="9.066"/>
			<rect x="643.547" y="681.057" style="fill:#FFFFFF;" width="9.066" height="9.066"/>
			<rect x="660.461" y="681.057" style="fill:#FFFFFF;" width="9.066" height="9.066"/>
			<rect x="677.374" y="681.057" style="fill:#FFFFFF;" width="9.066" height="9.066"/>
			<rect x="219.346" y="609.485" style="fill:#FFFFFF;" width="6.294" height="25.092"/>
			<rect x="235.081" y="609.485" style="fill:#FFFFFF;" width="6.294" height="25.092"/>
			<rect x="250.816" y="609.485" style="fill:#FFFFFF;" width="6.294" height="25.092"/>
			<rect x="266.551" y="609.485" style="fill:#FFFFFF;" width="6.294" height="25.092"/>
			<rect x="282.286" y="609.485" style="fill:#FFFFFF;" width="6.294" height="25.092"/>
			<rect x="219.346" y="646.918" style="fill:#FFFFFF;" width="6.294" height="25.092"/>
			<rect x="235.081" y="646.918" style="fill:#FFFFFF;" width="6.294" height="25.092"/>
			<rect x="250.816" y="646.918" style="fill:#FFFFFF;" width="6.294" height="25.092"/>
			<rect x="266.551" y="646.918" style="fill:#FFFFFF;" width="6.294" height="25.092"/>
			<rect x="282.286" y="646.918" style="fill:#FFFFFF;" width="6.294" height="25.092"/>
			<rect x="156.419" y="570.854" style="fill:#FFFFFF;" width="8.144" height="8.683"/>
			<rect x="143.093" y="570.854" style="fill:#FFFFFF;" width="8.144" height="8.683"/>
			<rect x="98.457" y="572.557" style="fill:#FFFFFF;" width="32.196" height="5.277"/>
			<rect x="98.457" y="602.751" style="fill:#FFFFFF;" width="32.196" height="5.277"/>
			<rect x="98.457" y="632.945" style="fill:#FFFFFF;" width="32.196" height="5.277"/>
			<rect x="98.457" y="663.139" style="fill:#FFFFFF;" width="32.196" height="5.277"/>
			<rect x="156.419" y="585.951" style="fill:#FFFFFF;" width="8.144" height="8.684"/>
			<rect x="143.093" y="585.951" style="fill:#FFFFFF;" width="8.144" height="8.684"/>
			<rect x="156.419" y="601.048" style="fill:#FFFFFF;" width="8.144" height="8.683"/>
			<rect x="143.093" y="601.048" style="fill:#FFFFFF;" width="8.144" height="8.683"/>
			<rect x="156.419" y="616.145" style="fill:#FFFFFF;" width="8.144" height="8.683"/>
			<rect x="143.093" y="616.145" style="fill:#FFFFFF;" width="8.144" height="8.683"/>
			<rect x="156.419" y="631.242" style="fill:#FFFFFF;" width="8.144" height="8.683"/>
			<rect x="143.093" y="631.242" style="fill:#FFFFFF;" width="8.144" height="8.683"/>
			<rect x="156.419" y="646.339" style="fill:#FFFFFF;" width="8.144" height="8.683"/>
			<rect x="143.093" y="646.339" style="fill:#FFFFFF;" width="8.144" height="8.683"/>
			<rect x="156.419" y="661.436" style="fill:#FFFFFF;" width="8.144" height="8.683"/>
			<rect x="143.093" y="661.436" style="fill:#FFFFFF;" width="8.144" height="8.683"/>
			<rect x="156.419" y="676.532" style="fill:#FFFFFF;" width="8.144" height="8.683"/>
			<rect x="143.093" y="676.532" style="fill:#FFFFFF;" width="8.144" height="8.683"/>
		</g>
	</g>
	<g>
		<path style="fill:#6CAFFA;" d="M959.471,774.586h-49.773c-2.119,0-3.838-1.718-3.838-3.838V627.244
			c0-2.119,1.718-3.837,3.838-3.837h49.773c2.119,0,3.838,1.718,3.838,3.837v143.504
			C963.308,772.868,961.59,774.586,959.471,774.586z"/>
		<path style="fill:#4E9FFA;" d="M961.319,623.407h-10.231v91.652c0,24.979-20.249,45.228-45.228,45.228h0v12.31
			c0,1.099,0.891,1.989,1.989,1.989h53.47c1.099,0,1.989-0.891,1.989-1.989V625.396
			C963.308,624.297,962.418,623.407,961.319,623.407z"/>
		<path style="fill:#3A4278;" d="M966.651,779.689h-64.134c-2.642,0-4.783-2.141-4.783-4.783v-0.639
			c0-2.641,2.141-4.783,4.783-4.783h64.134c2.642,0,4.783,2.141,4.783,4.783v0.639C971.434,777.547,969.293,779.689,966.651,779.689
			z"/>
		<rect x="917.148" y="633.435" style="fill:#3A4278;" width="34.872" height="34.872"/>
		<polygon style="fill:#FFCE5C;" points="928.444,638.646 939.889,638.646 936.055,647.642 939.889,647.642 932.22,663.096 
			934.18,650.179 929.279,650.294 		"/>
		<g>
			<path style="fill:#3A4278;" d="M933.312,688.414h-21.896c-0.703,0-1.272-0.57-1.272-1.272v-8.29c0-0.703,0.57-1.272,1.272-1.272
				h21.896c0.703,0,1.272,0.57,1.272,1.272v8.29C934.584,687.844,934.015,688.414,933.312,688.414z"/>
			<rect x="913.23" y="679.406" style="fill:#CCCCCC;" width="18.267" height="0.378"/>
			<rect x="913.23" y="681.044" style="fill:#CCCCCC;" width="18.267" height="0.378"/>
			<rect x="913.23" y="682.682" style="fill:#CCCCCC;" width="18.267" height="0.378"/>
			<rect x="913.23" y="684.32" style="fill:#CCCCCC;" width="18.267" height="0.378"/>
		</g>
		<path style="fill:#FFFFFF;" d="M955.708,693.012h-9.158c-0.88,0-1.594-0.714-1.594-1.594v-13.441c0-0.88,0.714-1.594,1.594-1.594
			h9.158c0.88,0,1.594,0.714,1.594,1.594v13.441C957.302,692.299,956.588,693.012,955.708,693.012z"/>
		<g>
			<path style="fill:#FFFFFF;" d="M958.97,764.665h-48.061v-65.07h48.061V764.665z M911.98,763.594h45.919v-62.928H911.98V763.594z"
				/>
		</g>
		<rect x="952.829" y="722.052" style="fill:#FFFFFF;" width="2.583" height="14.362"/>
		<path style="fill:#3A4278;" d="M947.918,685.111c0-1.761,1.427-3.188,3.188-3.188s3.188,1.427,3.188,3.188
			c0,1.761-1.427,3.188-3.188,3.188S947.918,686.872,947.918,685.111z"/>
	</g>
	<g>
		<g>
			<g>
				<rect x="277.91" y="488.473" style="fill:#A4DAF8;" width="4.376" height="139.725"/>
			</g>
			<g>
				<rect x="280.645" y="488.473" style="fill:#80C8E8;" width="1.641" height="139.725"/>
			</g>
			<g>
				<path style="fill:#A4DAF8;" d="M289.085,740.786v-4.279h-2.642l-2.33-125.971c-0.005-0.282-0.236-0.508-0.517-0.508h-0.386
					v-0.685c0-0.293-0.238-0.531-0.531-0.531h-5.16c-0.293,0-0.531,0.238-0.531,0.531v0.685h-0.503
					c-0.282,0-0.512,0.226-0.517,0.508l-2.33,125.971h-2.134v4.279h-3.165v4.806h23.913v-4.806H289.085z"/>
			</g>
			<g>
				<g>
					<path style="fill:#80C8E8;" d="M281.099,609.344v0.685h0.386c0.282,0,0.512,0.226,0.517,0.508l2.33,125.971h2.11l-2.33-125.971
						c-0.005-0.282-0.236-0.508-0.517-0.508h-0.386v-0.685c0-0.293-0.238-0.531-0.531-0.531h-2.11
						C280.861,608.813,281.099,609.051,281.099,609.344z"/>
				</g>
				<g>
					<rect x="286.975" y="736.508" style="fill:#80C8E8;" width="2.11" height="4.279"/>
				</g>
				<g>
					<rect x="290.14" y="740.786" style="fill:#80C8E8;" width="2.11" height="4.806"/>
				</g>
			</g>
			<g>
				<g>
					<g>
						<path style="fill:#A4DAF8;" d="M277.204,482.036l-3.055-98.358c-0.024-0.768,0.931-1.14,1.433-0.558l3.557,4.128
							c0.103,0.119,0.169,0.266,0.19,0.421l10.775,78.499c0.028,0.207-0.024,0.416-0.145,0.586l-11.276,15.73
							C278.228,483.119,277.229,482.815,277.204,482.036z"/>
					</g>
					<g>
						<path style="fill:#80C8E8;" d="M279.329,387.67c-0.021-0.156-0.088-0.302-0.19-0.421l-3.557-4.128
							c-0.303-0.352-0.751-0.328-1.07-0.107l2.441,2.833c0.103,0.12,0.169,0.266,0.19,0.422l10.774,78.499
							c0.029,0.207-0.023,0.417-0.145,0.586l-10.626,14.823l0.058,1.859c0.024,0.78,1.023,1.083,1.478,0.45l11.276-15.73
							c0.121-0.17,0.173-0.379,0.145-0.586L279.329,387.67z"/>
					</g>
				</g>
				<g>
					<g>
						<path style="fill:#A4DAF8;" d="M282.107,485.365l-83.653,51.825c-0.653,0.405-1.453-0.236-1.199-0.962l1.797-5.145
							c0.052-0.148,0.146-0.279,0.27-0.375l62.595-48.581c0.165-0.128,0.372-0.188,0.58-0.167l19.261,1.901
							C282.534,483.937,282.77,484.955,282.107,485.365z"/>
					</g>
					<g>
						<path style="fill:#80C8E8;" d="M199.322,530.708c-0.124,0.097-0.218,0.227-0.27,0.375l-1.797,5.145
							c-0.153,0.438,0.092,0.814,0.443,0.979l1.233-3.53c0.052-0.149,0.146-0.279,0.27-0.375l62.595-48.581
							c0.165-0.128,0.373-0.188,0.58-0.167l18.151,1.791l1.581-0.979c0.663-0.411,0.427-1.428-0.349-1.504l-19.261-1.901
							c-0.207-0.02-0.415,0.039-0.58,0.167L199.322,530.708z"/>
					</g>
				</g>
				<g>
					<g>
						<path style="fill:#A4DAF8;" d="M280.227,481.318l86.708,46.534c0.677,0.363,0.521,1.376-0.234,1.519l-5.354,1.016
							c-0.155,0.03-0.314,0.013-0.46-0.046l-73.37-29.919c-0.193-0.079-0.349-0.228-0.435-0.418l-7.984-17.631
							C278.777,481.663,279.54,480.95,280.227,481.318z"/>
					</g>
					<g>
						<path style="fill:#80C8E8;" d="M360.888,530.341c0.146,0.059,0.305,0.075,0.46,0.046l5.354-1.016
							c0.456-0.086,0.66-0.487,0.627-0.873l-3.674,0.697c-0.155,0.029-0.314,0.013-0.46-0.046l-73.37-29.919
							c-0.193-0.078-0.349-0.229-0.435-0.419l-7.524-16.614l-1.639-0.88c-0.687-0.369-1.45,0.345-1.128,1.055l7.984,17.631
							c0.086,0.19,0.242,0.34,0.435,0.418L360.888,530.341z"/>
					</g>
				</g>
				<g>
					<g>
						<path style="fill:#80C8E8;" d="M271.755,484.002c-0.133-4.271,3.222-7.841,7.493-7.974c4.271-0.133,7.841,3.222,7.974,7.493
							c0.133,4.271-3.222,7.841-7.493,7.974C275.458,491.628,271.888,488.273,271.755,484.002z"/>
					</g>
					<g>
						<path style="fill:#FFFFFF;" d="M272.6,483.976c-0.118-3.805,2.87-6.984,6.674-7.102c3.805-0.118,6.984,2.87,7.102,6.674
							c0.118,3.805-2.87,6.984-6.674,7.103S272.719,487.78,272.6,483.976z"/>
					</g>
					<g>
						<path style="fill:#A4DAF8;" d="M274.066,483.931c-0.093-2.995,2.259-5.499,5.255-5.592c2.995-0.093,5.499,2.259,5.592,5.255
							c0.093,2.995-2.259,5.499-5.255,5.592C276.662,489.278,274.159,486.926,274.066,483.931z"/>
					</g>
				</g>
			</g>
		</g>
	</g>
	<g>
		<g>
			<g>
				<rect x="695.388" y="561.843" style="fill:#A4DAF8;" width="3.657" height="116.767"/>
			</g>
			<g>
				<rect x="697.674" y="561.843" style="fill:#80C8E8;" width="1.371" height="116.767"/>
			</g>
			<g>
				<path style="fill:#A4DAF8;" d="M704.727,772.7v-3.576h-2.208l-1.947-105.273c-0.004-0.235-0.197-0.424-0.432-0.424h-0.323
					v-0.573c0-0.245-0.199-0.444-0.444-0.444h-4.313c-0.245,0-0.444,0.199-0.444,0.444v0.573h-0.42
					c-0.236,0-0.428,0.189-0.432,0.424l-1.947,105.273h-1.784v3.576h-2.645v4.016h19.984V772.7H704.727z"/>
			</g>
			<g>
				<g>
					<path style="fill:#80C8E8;" d="M698.053,662.854v0.573h0.323c0.236,0,0.428,0.189,0.432,0.424l1.947,105.273h1.763
						l-1.947-105.273c-0.004-0.235-0.197-0.424-0.432-0.424h-0.323v-0.573c0-0.245-0.199-0.444-0.444-0.444h-1.763
						C697.854,662.41,698.053,662.609,698.053,662.854z"/>
				</g>
				<g>
					<rect x="702.963" y="769.124" style="fill:#80C8E8;" width="1.763" height="3.576"/>
				</g>
				<g>
					<rect x="705.608" y="772.7" style="fill:#80C8E8;" width="1.763" height="4.016"/>
				</g>
			</g>
			<g>
				<g>
					<g>
						<path style="fill:#A4DAF8;" d="M694.798,556.464l-2.553-82.197c-0.02-0.642,0.778-0.953,1.197-0.466l2.972,3.45
							c0.086,0.1,0.141,0.222,0.159,0.352l9.004,65.601c0.023,0.173-0.02,0.348-0.121,0.49l-9.423,13.146
							C695.654,557.369,694.818,557.115,694.798,556.464z"/>
					</g>
					<g>
						<path style="fill:#80C8E8;" d="M696.574,477.603c-0.018-0.13-0.073-0.253-0.159-0.352l-2.972-3.45
							c-0.253-0.294-0.628-0.274-0.894-0.089l2.04,2.367c0.086,0.1,0.141,0.222,0.159,0.352l9.004,65.601
							c0.024,0.173-0.02,0.348-0.121,0.49l-8.88,12.388l0.048,1.554c0.02,0.651,0.855,0.906,1.235,0.376l9.423-13.146
							c0.102-0.142,0.145-0.317,0.121-0.49L696.574,477.603z"/>
					</g>
				</g>
				<g>
					<g>
						<path style="fill:#A4DAF8;" d="M698.895,559.246l-69.908,43.31c-0.546,0.338-1.214-0.198-1.003-0.804l1.502-4.299
							c0.043-0.124,0.122-0.233,0.226-0.313l52.31-40.599c0.138-0.107,0.311-0.157,0.485-0.14l16.096,1.588
							C699.252,558.053,699.449,558.903,698.895,559.246z"/>
					</g>
					<g>
						<path style="fill:#80C8E8;" d="M629.712,597.139c-0.104,0.081-0.182,0.19-0.226,0.314l-1.502,4.299
							c-0.128,0.366,0.077,0.681,0.37,0.819l1.03-2.95c0.044-0.124,0.122-0.233,0.226-0.314l52.31-40.599
							c0.138-0.107,0.311-0.157,0.485-0.14l15.168,1.497l1.321-0.818c0.554-0.343,0.357-1.193-0.292-1.257l-16.096-1.588
							c-0.173-0.017-0.347,0.033-0.485,0.14L629.712,597.139z"/>
					</g>
				</g>
				<g>
					<g>
						<path style="fill:#A4DAF8;" d="M697.324,555.864l72.461,38.888c0.566,0.304,0.436,1.15-0.195,1.27l-4.474,0.849
							c-0.129,0.025-0.263,0.011-0.384-0.038l-61.315-25.003c-0.161-0.066-0.292-0.191-0.363-0.35l-6.673-14.734
							C696.113,556.152,696.75,555.556,697.324,555.864z"/>
					</g>
					<g>
						<path style="fill:#80C8E8;" d="M764.732,596.832c0.122,0.05,0.255,0.063,0.384,0.039l4.474-0.849
							c0.381-0.072,0.551-0.407,0.524-0.73l-3.07,0.583c-0.129,0.025-0.263,0.011-0.385-0.038l-61.315-25.003
							c-0.161-0.066-0.292-0.191-0.363-0.35l-6.288-13.884l-1.37-0.735c-0.574-0.308-1.212,0.288-0.943,0.882l6.673,14.734
							c0.072,0.159,0.202,0.284,0.363,0.35L764.732,596.832z"/>
					</g>
				</g>
				<g>
					<g>
						<path style="fill:#80C8E8;" d="M690.244,558.107c-0.111-3.57,2.693-6.553,6.262-6.664c3.569-0.111,6.553,2.693,6.664,6.262
							c0.111,3.57-2.693,6.553-6.262,6.664C693.339,564.48,690.355,561.677,690.244,558.107z"/>
					</g>
					<g>
						<path style="fill:#FFFFFF;" d="M690.951,558.085c-0.099-3.179,2.399-5.837,5.578-5.935c3.179-0.099,5.837,2.398,5.935,5.578
							c0.099,3.179-2.399,5.837-5.578,5.936C693.707,563.762,691.049,561.264,690.951,558.085z"/>
					</g>
					<g>
						<path style="fill:#A4DAF8;" d="M692.175,558.047c-0.078-2.503,1.888-4.595,4.391-4.673c2.503-0.078,4.595,1.888,4.673,4.391
							c0.078,2.503-1.888,4.595-4.391,4.673C694.345,562.516,692.253,560.55,692.175,558.047z"/>
					</g>
				</g>
			</g>
		</g>
	</g>
	<g>
		<g>
			<g>
				<rect x="1101.508" y="478.676" style="fill:#A4DAF8;" width="2.951" height="94.219"/>
			</g>
			<g>
				<rect x="1103.353" y="478.676" style="fill:#80C8E8;" width="1.107" height="94.219"/>
			</g>
			<g>
				<path style="fill:#A4DAF8;" d="M1109.044,648.814v-2.885h-1.782l-1.571-84.944c-0.004-0.19-0.159-0.342-0.349-0.342h-0.26
					v-0.462c0-0.198-0.16-0.358-0.358-0.358h-3.48c-0.198,0-0.358,0.16-0.358,0.358v0.462h-0.339c-0.19,0-0.345,0.152-0.349,0.342
					l-1.571,84.944h-1.439v2.885h-2.134v3.241h16.125v-3.241H1109.044z"/>
			</g>
			<g>
				<g>
					<path style="fill:#80C8E8;" d="M1103.659,560.181v0.462h0.26c0.19,0,0.345,0.152,0.349,0.342l1.571,84.944h1.423l-1.571-84.944
						c-0.004-0.19-0.159-0.342-0.349-0.342h-0.26v-0.462c0-0.198-0.16-0.358-0.358-0.358h-1.423
						C1103.499,559.823,1103.659,559.983,1103.659,560.181z"/>
				</g>
				<g>
					<rect x="1107.621" y="645.929" style="fill:#80C8E8;" width="1.423" height="2.885"/>
				</g>
				<g>
					<rect x="1109.755" y="648.814" style="fill:#80C8E8;" width="1.423" height="3.241"/>
				</g>
			</g>
			<g>
				<g>
					<g>
						<path style="fill:#A4DAF8;" d="M1101.033,474.335l-2.06-66.324c-0.016-0.518,0.628-0.769,0.966-0.376l2.398,2.784
							c0.069,0.08,0.114,0.179,0.128,0.284l7.266,52.933c0.019,0.139-0.016,0.281-0.098,0.395l-7.604,10.607
							C1101.723,475.066,1101.049,474.861,1101.033,474.335z"/>
					</g>
					<g>
						<path style="fill:#80C8E8;" d="M1102.465,410.703c-0.014-0.105-0.059-0.204-0.128-0.284l-2.398-2.784
							c-0.204-0.237-0.506-0.221-0.721-0.072l1.646,1.91c0.069,0.081,0.114,0.179,0.128,0.284l7.265,52.933
							c0.019,0.139-0.016,0.281-0.098,0.395l-7.165,9.995l0.039,1.254c0.016,0.526,0.69,0.731,0.996,0.303l7.604-10.607
							c0.082-0.114,0.117-0.256,0.098-0.395L1102.465,410.703z"/>
					</g>
				</g>
				<g>
					<g>
						<path style="fill:#A4DAF8;" d="M1104.339,476.58l-56.408,34.946c-0.441,0.273-0.98-0.159-0.809-0.649l1.212-3.469
							c0.035-0.1,0.098-0.188,0.182-0.253l42.209-32.759c0.111-0.086,0.251-0.127,0.391-0.113l12.988,1.282
							C1104.626,475.617,1104.786,476.303,1104.339,476.58z"/>
					</g>
					<g>
						<path style="fill:#80C8E8;" d="M1048.515,507.155c-0.084,0.065-0.147,0.153-0.182,0.253l-1.212,3.469
							c-0.103,0.295,0.062,0.549,0.299,0.661l0.831-2.381c0.035-0.1,0.098-0.188,0.182-0.253l42.209-32.759
							c0.111-0.086,0.251-0.127,0.391-0.113l12.239,1.207l1.066-0.66c0.447-0.277,0.288-0.963-0.236-1.014l-12.988-1.282
							c-0.14-0.014-0.28,0.026-0.391,0.113L1048.515,507.155z"/>
					</g>
				</g>
				<g>
					<g>
						<path style="fill:#A4DAF8;" d="M1103.071,473.851l58.469,31.378c0.457,0.245,0.352,0.928-0.158,1.024l-3.61,0.685
							c-0.104,0.02-0.212,0.009-0.31-0.031l-49.474-20.175c-0.13-0.053-0.235-0.154-0.293-0.282l-5.384-11.889
							C1102.093,474.084,1102.608,473.603,1103.071,473.851z"/>
					</g>
					<g>
						<path style="fill:#80C8E8;" d="M1157.462,506.908c0.098,0.04,0.206,0.051,0.31,0.031l3.61-0.685
							c0.307-0.058,0.445-0.328,0.423-0.589l-2.477,0.47c-0.104,0.02-0.212,0.009-0.31-0.031l-49.474-20.175
							c-0.13-0.053-0.235-0.154-0.293-0.282l-5.074-11.203l-1.105-0.593c-0.463-0.249-0.978,0.232-0.761,0.711l5.384,11.889
							c0.058,0.128,0.163,0.229,0.293,0.282L1157.462,506.908z"/>
					</g>
				</g>
				<g>
					<g>
						<path style="fill:#80C8E8;" d="M1097.358,475.661c-0.089-2.88,2.173-5.288,5.053-5.377c2.88-0.09,5.287,2.173,5.377,5.053
							c0.09,2.88-2.173,5.288-5.053,5.377C1099.855,480.803,1097.448,478.541,1097.358,475.661z"/>
					</g>
					<g>
						<path style="fill:#FFFFFF;" d="M1097.928,475.643c-0.08-2.565,1.935-4.71,4.501-4.789c2.565-0.08,4.709,1.935,4.789,4.501
							c0.08,2.565-1.935,4.71-4.501,4.789C1100.152,480.224,1098.008,478.209,1097.928,475.643z"/>
					</g>
					<g>
						<path style="fill:#A4DAF8;" d="M1098.916,475.613c-0.063-2.02,1.524-3.708,3.543-3.771c2.02-0.063,3.708,1.523,3.771,3.543
							c0.063,2.02-1.524,3.708-3.543,3.771C1100.667,479.219,1098.979,477.632,1098.916,475.613z"/>
					</g>
				</g>
			</g>
		</g>
	</g>
	<path style="fill:#3F4883;" d="M1326.84,779.828L1326.84,779.828c0,1.718-1.359,3.111-3.034,3.111H47.464
		c-1.676,0-3.034-1.393-3.034-3.111l0,0c0-1.718,1.359-3.111,3.034-3.111h1276.342
		C1325.481,776.716,1326.84,778.109,1326.84,779.828z"/>
	<g>
		<path style="fill:#1D8FB5;" d="M811.867,698.605c-1.917-4.202-4.651-8.009-6.367-12.297c-3.173-7.929-2.623-16.799-4.093-25.212
			s-6.17-17.444-14.513-19.272c-6.183-1.355-12.682,1.831-16.849,6.595c-4.167,4.765-6.406,10.884-8.255,16.938
			c-1.313,4.297-2.608,8.87-5.886,11.943c-2.199,2.062-5.098,3.245-7.346,5.254c-3.556,3.178-5.107,8.187-4.877,12.951
			c0.23,4.763,2.06,9.319,4.374,13.489c1.386,2.496,2.971,4.937,3.698,7.698c0.984,3.737,0.306,7.695,0.648,11.544
			c0.559,6.286,4.009,12.257,9.176,15.881c5.167,3.624,11.956,4.834,18.057,3.219c10.743,6.148,29.34-2.559,30.074-15.466
			C810.364,720.314,816.672,709.136,811.867,698.605z"/>
		<path style="fill:#117CA0;" d="M811.867,698.605c-1.917-4.202-4.651-8.009-6.367-12.297c-3.173-7.929-2.623-16.799-4.093-25.212
			s-6.17-17.444-14.513-19.272c-6.183-1.355-12.682,1.831-16.849,6.595c-0.484,0.553-0.939,1.127-1.374,1.714
			c0.428,2.277,1.016,4.512,1.882,6.677c1.716,4.288,4.45,8.095,6.367,12.297c4.804,10.531-1.503,21.71-2.16,33.266
			c-0.58,10.201-12.317,17.776-22.517,17.47c0.194,2.772-0.089,5.611,0.158,8.393c0.559,6.286,4.009,12.257,9.176,15.881
			c5.167,3.624,11.956,4.834,18.057,3.219c10.743,6.148,29.34-2.559,30.074-15.466C810.364,720.314,816.672,709.136,811.867,698.605
			z"/>
		<path style="fill:#096F91;" d="M811.867,698.605c-1.917-4.202-4.651-8.009-6.367-12.297c-3.173-7.929-2.623-16.799-4.093-25.212
			s-6.17-17.444-14.513-19.272c-0.722-0.158-1.448-0.252-2.174-0.291c0.41,1.364,0.736,2.746,0.974,4.111
			c1.471,8.413,0.92,17.283,4.093,25.212c1.716,4.288,4.45,8.095,6.367,12.297c4.804,10.531-1.503,21.71-2.16,33.266
			c-0.734,12.907-19.33,21.614-30.074,15.466c-3.536,0.936-7.302,0.917-10.851,0.035c1.33,4.877,4.365,9.293,8.508,12.199
			c5.167,3.624,11.956,4.834,18.057,3.219c10.743,6.148,29.34-2.559,30.074-15.466C810.364,720.314,816.672,709.136,811.867,698.605
			z"/>
		<path style="fill:#004057;" d="M790.756,685.208c-3.505,3.373-6.844,6.912-10.062,10.56v-20.182c0-0.988-1.536-0.99-1.536,0
			v21.985c-0.051,0.152-0.041,0.303,0,0.447v23.537c-3.938-5.388-7.876-10.776-11.814-16.164c-0.577-0.79-1.91-0.024-1.326,0.775
			c4.263,5.832,8.526,11.664,12.789,17.496c0.098,0.135,0.223,0.211,0.352,0.262v55.365c0,0.988,1.536,0.99,1.536,0v-81.234
			c3.538-4.085,7.253-8.014,11.147-11.762C792.555,685.608,791.468,684.522,790.756,685.208z"/>
	</g>
	<g>
		<path style="fill:#1D8FB5;" d="M1313.007,673.847c-2.505-5.491-6.078-10.466-8.32-16.069c-4.146-10.362-3.427-21.953-5.349-32.947
			c-1.922-10.994-8.063-22.796-18.965-25.185c-8.08-1.771-16.573,2.392-22.018,8.619c-5.445,6.226-8.372,14.223-10.788,22.134
			c-1.715,5.615-3.409,11.591-7.691,15.607c-2.874,2.695-6.662,4.24-9.599,6.866c-4.647,4.153-6.674,10.699-6.373,16.924
			c0.301,6.225,2.692,12.178,5.716,17.627c1.81,3.262,3.883,6.451,4.833,10.06c1.286,4.883,0.4,10.056,0.847,15.086
			c0.73,8.215,5.239,16.018,11.991,20.753c6.752,4.736,15.623,6.317,23.596,4.207c14.039,8.034,38.341-3.344,39.299-20.21
			C1311.043,702.217,1319.285,687.609,1313.007,673.847z"/>
		<path style="fill:#117CA0;" d="M1313.007,673.847c-2.505-5.491-6.078-10.466-8.321-16.069
			c-4.146-10.362-3.427-21.953-5.349-32.947c-1.922-10.994-8.063-22.796-18.965-25.185c-8.079-1.771-16.573,2.393-22.018,8.619
			c-0.632,0.723-1.228,1.472-1.795,2.24c0.559,2.975,1.327,5.897,2.459,8.726c2.243,5.604,5.815,10.578,8.321,16.069
			c6.278,13.762-1.964,28.369-2.823,43.471c-0.758,13.33-16.096,23.229-29.425,22.829c0.254,3.622-0.116,7.332,0.207,10.968
			c0.731,8.215,5.239,16.018,11.991,20.753c6.752,4.736,15.623,6.317,23.596,4.207c14.039,8.034,38.341-3.344,39.299-20.21
			C1311.043,702.217,1319.285,687.609,1313.007,673.847z"/>
		<path style="fill:#096F91;" d="M1313.007,673.847c-2.505-5.491-6.078-10.466-8.321-16.069
			c-4.146-10.362-3.427-21.953-5.349-32.947c-1.922-10.994-8.063-22.796-18.965-25.185c-0.943-0.207-1.892-0.33-2.841-0.381
			c0.536,1.783,0.961,3.588,1.273,5.372c1.922,10.994,1.203,22.585,5.349,32.947c2.243,5.604,5.815,10.578,8.321,16.069
			c6.278,13.762-1.964,28.369-2.823,43.471c-0.959,16.866-25.26,28.245-39.299,20.21c-4.621,1.223-9.543,1.198-14.18,0.045
			c1.738,6.373,5.703,12.144,11.118,15.941c6.752,4.736,15.623,6.317,23.596,4.207c14.039,8.034,38.341-3.344,39.299-20.21
			C1311.043,702.217,1319.285,687.609,1313.007,673.847z"/>
		<path style="fill:#004057;" d="M1285.419,656.341c-4.58,4.408-8.944,9.033-13.149,13.799v-26.373c0-1.291-2.007-1.293-2.007,0
			v28.729c-0.067,0.199-0.054,0.396,0,0.584v30.757c-5.146-7.041-10.292-14.081-15.439-21.122c-0.754-1.032-2.497-0.032-1.733,1.013
			c5.57,7.621,11.141,15.242,16.712,22.863c0.129,0.177,0.291,0.275,0.46,0.343v72.35c0,1.291,2.007,1.293,2.007,0V673.13
			c4.623-5.338,9.479-10.473,14.567-15.37C1287.77,656.863,1286.35,655.445,1285.419,656.341z"/>
	</g>
	<g>
		<path style="fill:#1D8FB5;" d="M126.293,673.847c-2.505-5.491-6.078-10.466-8.32-16.069c-4.146-10.362-3.427-21.953-5.349-32.947
			c-1.922-10.994-8.063-22.796-18.965-25.185c-8.08-1.771-16.573,2.392-22.018,8.619c-5.445,6.226-8.372,14.223-10.788,22.134
			c-1.715,5.615-3.409,11.591-7.691,15.607c-2.874,2.695-6.662,4.24-9.599,6.866c-4.647,4.153-6.674,10.699-6.373,16.924
			c0.301,6.225,2.692,12.178,5.716,17.627c1.81,3.262,3.883,6.451,4.833,10.06c1.286,4.883,0.4,10.056,0.847,15.086
			c0.73,8.215,5.239,16.018,11.991,20.753c6.752,4.736,15.623,6.317,23.596,4.207c14.039,8.034,38.341-3.344,39.299-20.21
			C124.329,702.217,132.571,687.609,126.293,673.847z"/>
		<path style="fill:#117CA0;" d="M126.293,673.847c-2.505-5.491-6.078-10.466-8.321-16.069c-4.146-10.362-3.427-21.953-5.349-32.947
			c-1.922-10.994-8.063-22.796-18.965-25.185c-8.08-1.771-16.573,2.393-22.018,8.619c-0.632,0.723-1.228,1.472-1.795,2.24
			c0.56,2.975,1.327,5.897,2.46,8.726c2.243,5.604,5.815,10.578,8.32,16.069c6.278,13.762-1.964,28.369-2.823,43.471
			c-0.758,13.33-16.096,23.229-29.425,22.829c0.254,3.622-0.116,7.332,0.207,10.968c0.731,8.215,5.239,16.018,11.991,20.753
			c6.752,4.736,15.623,6.317,23.596,4.207c14.039,8.034,38.341-3.344,39.299-20.21C124.329,702.217,132.571,687.609,126.293,673.847
			z"/>
		<path style="fill:#096F91;" d="M126.293,673.847c-2.505-5.491-6.078-10.466-8.321-16.069c-4.146-10.362-3.427-21.953-5.349-32.947
			c-1.922-10.994-8.063-22.796-18.965-25.185c-0.943-0.207-1.892-0.33-2.841-0.381c0.536,1.783,0.961,3.588,1.273,5.372
			c1.922,10.994,1.203,22.585,5.349,32.947c2.243,5.604,5.815,10.578,8.32,16.069c6.278,13.762-1.964,28.369-2.823,43.471
			c-0.959,16.866-25.26,28.245-39.299,20.21c-4.621,1.223-9.543,1.198-14.18,0.045c1.738,6.373,5.703,12.144,11.118,15.941
			c6.752,4.736,15.623,6.317,23.596,4.207c14.039,8.034,38.341-3.344,39.299-20.21C124.329,702.217,132.571,687.609,126.293,673.847
			z"/>
		<path style="fill:#004057;" d="M98.705,656.341c-4.58,4.408-8.944,9.033-13.148,13.799v-26.373c0-1.291-2.007-1.293-2.007,0
			v28.729c-0.067,0.199-0.054,0.396,0,0.584v30.757c-5.146-7.041-10.292-14.081-15.439-21.122c-0.754-1.032-2.496-0.032-1.733,1.013
			c5.571,7.621,11.141,15.242,16.712,22.863c0.129,0.177,0.291,0.275,0.46,0.343v72.35c0,1.291,2.007,1.293,2.007,0V673.13
			c4.623-5.338,9.479-10.473,14.567-15.37C101.056,656.863,99.636,655.445,98.705,656.341z"/>
	</g>
	<g>
		<path style="fill:#333333;" d="M959.708,731.28c-0.48,0-0.962-0.07-1.455-0.223c-6.577-2.039-8.915-17.093-7.148-46.021
			l1.082,0.066c-1.708,27.964,0.441,43.077,6.388,44.92c2.489,0.77,4.897-1.149,8.227-3.809c4.163-3.326,9.865-7.882,19.062-9.598
			c5.429-1.013,9.503-0.555,12.779-0.187c3.958,0.445,6.82,0.769,9.949-1.623c3.378-2.584,4.231-6.128,5.133-9.881
			c0.916-3.81,1.863-7.751,5.568-10.771c4.258-3.47,10.589-4.408,18.814-2.79l-0.21,1.064c-7.894-1.554-13.923-0.69-17.92,2.567
			c-3.421,2.789-4.285,6.381-5.198,10.184c-0.907,3.771-1.844,7.671-5.529,10.488c-3.476,2.656-6.675,2.296-10.729,1.84
			c-3.201-0.359-7.188-0.808-12.458,0.176c-8.93,1.666-14.51,6.124-18.584,9.379C964.583,729.374,962.196,731.28,959.708,731.28z"/>
	</g>
	<g>
		<g>
			<g>
				<path style="fill:#1B6CA8;" d="M180.601,713.937L180.601,713.937c3.126,0,5.661-2.534,5.661-5.661v-13.404
					c0-3.126-2.534-5.661-5.661-5.661l0,0c-3.126,0-5.661,2.534-5.661,5.661v13.404C174.94,711.402,177.475,713.937,180.601,713.937
					z"/>
			</g>
			<g>
				<g>
					<path style="fill:#FF6272;" d="M174.176,709.312h2.897c0.323,0,0.584-0.262,0.584-0.584v-14.359
						c0-0.438-0.355-0.794-0.794-0.794h-2.479c-0.438,0-0.794,0.355-0.794,0.794v14.359
						C173.591,709.051,173.853,709.312,174.176,709.312z"/>
				</g>
				<g>
					<path style="fill:#FF8FA1;" d="M175.251,708.977h0.747c0.744,0,1.347-0.603,1.347-1.347V695.63c0-0.95-0.77-1.72-1.72-1.72l0,0
						c-0.95,0-1.72,0.77-1.72,1.72v12.001C173.904,708.375,174.507,708.977,175.251,708.977z"/>
				</g>
			</g>
		</g>
		<path style="fill:#508FEB;" d="M531.429,736.89c-0.194,6.373-0.9,11.229-1.112,12.482c-0.053,0.336-0.106,0.653-0.159,0.971
			c-0.636,3.831-1.448,7.186-2.225,9.958H286.072c-2.384-0.106-4.732-0.247-7.045-0.371c-2.984-0.159-5.932-0.336-8.81-0.512
			c-2.066-0.141-4.097-0.265-6.109-0.406c-5.156-0.336-10.116-0.706-14.884-1.095c-1.801-0.124-3.585-0.282-5.314-0.424
			c-3.302-0.265-6.498-0.547-9.57-0.83c-2.666-0.247-5.226-0.494-7.715-0.724c-24.718-2.419-40.308-4.696-41.508-4.838
			c-0.547-0.07-1.235-0.318-1.96-0.759c-2.754-1.589-6.338-5.65-7.698-11.07c-1.712-6.85-1.041-22.016,1.254-25.141
			c2.277-3.107,0.829-11.423,2.489-24.912c1.66-13.507,20.975-11.423,35.929-12.677c14.955-1.254,50.689-39.054,115.908-37.8
			c61.918,1.183,107.716,39.919,112.183,43.839c1.907,0.141,4.467,0.353,7.522,0.653c4.714,0.459,10.575,1.148,16.967,2.119
			c22.899,3.443,52.684,10.664,61.37,25.177C530.529,717.398,531.747,726.384,531.429,736.89z"/>
		<path style="fill:#E6E6E6;" d="M369.596,691.888h-19.589c-0.472,0-0.854,0.382-0.854,0.854v3.097c0,0.472,0.382,0.854,0.854,0.854
			h19.589c0.472,0,0.854-0.382,0.854-0.854v-3.097C370.45,692.271,370.068,691.888,369.596,691.888z"/>
		<path style="fill:#E6E6E6;" d="M277.431,691.888h-19.589c-0.472,0-0.854,0.382-0.854,0.854v3.097c0,0.472,0.382,0.854,0.854,0.854
			h19.589c0.472,0,0.854-0.382,0.854-0.854v-3.097C278.285,692.271,277.902,691.888,277.431,691.888z"/>
		<g>
			<path style="fill:#1B6CA8;" d="M523.472,711.493c-2.621,0-8.266-0.123-12.773-1.072c-6.186-1.303-12.026-9.354-12.273-9.697
				l-1.028-1.431l1.762,0.034c22.143,0.422,26.39,10.514,26.561,10.943l0.466,1.175l-1.264,0.033
				C524.843,711.48,524.314,711.493,523.472,711.493z M501.012,701.154c1.936,2.324,6.024,6.692,10.05,7.539
				c4.228,0.89,9.667,1.023,12.281,1.031C521.531,707.269,515.879,701.854,501.012,701.154z"/>
		</g>
		<path style="fill:#FFFFFF;" d="M524.901,710.596c0,0-3.947-9.97-25.756-10.386c0,0,5.816,8.101,11.736,9.347
			C516.8,710.803,524.901,710.596,524.901,710.596z"/>
		<g>
			<g>
				<g>
					<path style="fill:#1B6CA8;" d="M509.45,730.068c0,3.525,2.669,6.382,5.961,6.382c3.292,0,5.962-2.857,5.962-6.382
						s-2.669-6.382-5.962-6.382C512.119,723.686,509.45,726.544,509.45,730.068z"/>
				</g>
				<g>
					<ellipse style="fill:#FFFFFF;" cx="515.411" cy="730.068" rx="4.878" ry="5.222"/>
				</g>
			</g>
			<g>
				<path style="fill:#FFFFFF;" d="M532.037,727.295h-7.435c-0.618,0-1.119-0.501-1.119-1.119l0,0c0-0.618,0.501-1.119,1.119-1.119
					h7.435c0.618,0,1.119,0.501,1.119,1.119l0,0C533.156,726.794,532.655,727.295,532.037,727.295z"/>
			</g>
			<g>
				<path style="fill:#FFFFFF;" d="M532.037,730.712h-7.435c-0.618,0-1.119-0.501-1.119-1.119l0,0c0-0.618,0.501-1.119,1.119-1.119
					h7.435c0.618,0,1.119,0.501,1.119,1.119l0,0C533.156,730.211,532.655,730.712,532.037,730.712z"/>
			</g>
			<g>
				<path style="fill:#FFFFFF;" d="M532.037,734.129h-7.435c-0.618,0-1.119-0.501-1.119-1.119l0,0c0-0.618,0.501-1.119,1.119-1.119
					h7.435c0.618,0,1.119,0.501,1.119,1.119l0,0C533.156,733.628,532.655,734.129,532.037,734.129z"/>
			</g>
		</g>
		<path style="fill:#366FC2;" d="M539.374,755.322c0,1.377-0.565,2.613-1.466,3.531c-0.9,0.883-2.154,1.448-3.531,1.448H178.585
			c-2.754,0-4.997-2.225-4.997-4.979c0-1.377,0.565-2.613,1.465-3.531c0.9-0.883,2.154-1.448,3.531-1.448h355.792
			C537.132,750.343,539.374,752.567,539.374,755.322z"/>
		<g>
			<g>
				<path style="fill:#366FC2;" d="M287.325,756.611c-0.106,1.271-0.3,2.507-0.547,3.725c-2.613-0.123-5.209-0.265-7.751-0.406
					c-0.212,0.83-0.477,1.642-0.759,2.419l-9.111-0.759l-6.956-0.565c0,0,0,0-0.018,0l-11.441-0.936l-6.197-0.512l-9.87-0.812
					c-0.141-0.688-0.265-1.395-0.335-2.101c-2.666-0.247-5.226-0.494-7.715-0.724c-0.106-1.412-0.089-2.86,0.035-4.308
					c0.318-3.866,1.342-7.521,2.949-10.823c5.332-10.947,16.984-18.079,29.873-17.02c12.871,1.059,23.217,9.993,26.677,21.663
					C287.219,748.966,287.642,752.744,287.325,756.611z"/>
			</g>
			<g>
				<path style="fill:#3F4883;" d="M279.715,755.975c-0.106,1.359-0.335,2.684-0.689,3.955c-0.212,0.83-0.477,1.642-0.759,2.419
					c-3.566,9.181-12.836,15.343-23.147,14.495c-10.328-0.847-18.449-8.439-20.445-18.079c-0.141-0.688-0.265-1.395-0.335-2.101
					c-0.177-1.43-0.194-2.913-0.07-4.414c1.023-12.553,12.041-21.875,24.576-20.851C271.4,732.423,280.74,743.44,279.715,755.975z"
					/>
			</g>
			<g>
				
					<ellipse transform="matrix(0.9803 -0.1973 0.1973 0.9803 -143.8348 65.6194)" style="fill:#FFFFFF;" cx="257.347" cy="754.543" rx="13.758" ry="13.758"/>
			</g>
			<g>
				<path style="fill:#3F4883;" d="M248.369,753.411c-0.391,4.76,3.151,8.935,7.911,9.326c4.76,0.391,8.936-3.151,9.326-7.911
					s-3.151-8.935-7.911-9.326C252.935,745.109,248.759,748.651,248.369,753.411z"/>
			</g>
		</g>
		<g>
			<g>
				<path style="fill:#366FC2;" d="M512.097,754.121c0,2.119-0.212,4.184-0.635,6.18h-7.857c0,0.088-0.035,0.194-0.071,0.282
					h-43.733c-0.035-0.088-0.053-0.194-0.071-0.282h-7.856c-0.407-1.995-0.636-4.061-0.636-6.18c0-1.289,0.071-2.542,0.247-3.779
					c0.3-2.525,0.918-4.961,1.818-7.239c4.414-11.37,15.448-19.421,28.373-19.421c12.923,0,23.958,8.051,28.372,19.421
					c0.883,2.278,1.501,4.714,1.801,7.239C512.026,751.579,512.097,752.832,512.097,754.121z"/>
			</g>
			<g>
				<path style="fill:#3F4883;" d="M504.469,754.121c0,2.136-0.3,4.22-0.865,6.18c0,0.088-0.035,0.194-0.071,0.282
					c-2.79,9.446-11.512,16.331-21.857,16.331c-10.347,0-19.086-6.886-21.875-16.331c-0.035-0.088-0.053-0.194-0.071-0.282
					c-0.565-1.96-0.865-4.043-0.865-6.18c0-1.289,0.105-2.56,0.317-3.779c1.801-10.787,11.193-19.015,22.493-19.015
					c11.299,0,20.674,8.228,22.475,19.015C504.363,751.561,504.469,752.832,504.469,754.121z"/>
			</g>
			<g>
				<circle style="fill:#FFFFFF;" cx="482.065" cy="754.513" r="13.758"/>
			</g>
			<g>
				<circle style="fill:#3F4883;" cx="481.672" cy="754.12" r="8.648"/>
			</g>
		</g>
		<g>
			<path style="fill:#D4E7F4;" d="M421.011,683.612c-0.528,0.07-1.079,0.129-1.654,0.199c-1.454,0.153-3.037,0.293-4.738,0.422
				c-0.985,0.07-2.005,0.129-3.072,0.188c-7.201,0.387-16.042,0.493-25.776,0.399c-0.669-0.012-1.349-0.024-2.029-0.024
				c-2.216-0.035-4.479-0.07-6.778-0.129c-0.68-0.012-1.372-0.035-2.076-0.059c-1.419-0.035-2.85-0.07-4.292-0.117
				c-1.173-0.023-2.345-0.059-3.529-0.106c-7.752-0.246-15.714-0.598-23.583-1.008L340.4,667.71l-0.469-2.404l-0.575-2.92
				l-0.281-1.419l-0.927-4.691l-0.281-1.419l-1.278-6.508c7.013,0.164,13.85,0.868,20.44,1.958c1.595,0.258,3.178,0.551,4.738,0.856
				c2.85,0.551,5.64,1.173,8.373,1.853c1.137,0.281,2.263,0.575,3.378,0.879c32.882,8.831,56.219,25.061,56.219,25.061
				C431.659,681.185,428.141,682.674,421.011,683.612z"/>
			<path style="fill:#D4E7F4;" d="M340.06,683.178c-12.149-0.645-23.958-1.454-34.243-2.31c-1.02-0.082-2.005-0.164-2.99-0.246
				c-11.856-1.02-21.413-2.076-26.737-2.99c-0.645-0.117-1.22-0.223-1.724-0.328c-0.094-0.023-0.188-0.035-0.281-0.059
				c-3.014-0.645-5.688-1.302-8.056-1.958c-1.548-0.41-2.967-0.833-4.268-1.243c-10.847-3.413-13.521-6.297-13.521-6.297
				s0.997-0.68,3.026-1.794c0.469-0.246,0.997-0.528,1.583-0.821c0.997-0.528,2.17-1.102,3.506-1.712
				c0.258-0.117,0.528-0.246,0.809-0.375c3.846-1.724,8.96-3.753,15.398-5.746c0.622-0.199,1.255-0.387,1.911-0.586
				c8.104-2.392,18.13-4.691,30.197-6.297c2.392-0.328,4.867-0.61,7.411-0.868c2.416-0.246,4.902-0.469,7.47-0.657
				c1.032-0.07,2.064-0.141,3.119-0.199c1.712-0.106,3.459-0.199,5.242-0.27c1.771-0.07,3.518-0.106,5.289-0.106l1.97,10.003
				l0.598,3.073l1.489,7.564l1.525,7.751L340.06,683.178z"/>
			<path style="fill:#E5F2F9;" d="M335.768,661.39l-16.218-12.501c1.032-0.07,2.064-0.141,3.119-0.199l12.501,9.628L335.768,661.39z
				"/>
			<path style="fill:#E5F2F9;" d="M338.781,676.705l-34.114-26.292c2.392-0.328,4.867-0.61,7.411-0.868l25.178,19.408
				L338.781,676.705z"/>
			<path style="fill:#E5F2F9;" d="M305.817,680.868c-1.02-0.082-2.005-0.164-2.99-0.246l-30.267-23.325
				c0.622-0.199,1.255-0.387,1.911-0.586L305.817,680.868z"/>
			<path style="fill:#E5F2F9;" d="M266.027,675.286c-1.548-0.41-2.967-0.833-4.268-1.243l-10.496-8.092
				c0.469-0.246,0.997-0.528,1.583-0.821L266.027,675.286z"/>
			<path style="fill:#E5F2F9;" d="M276.089,677.631c-0.645-0.117-1.22-0.223-1.724-0.328l-18.013-13.885
				c0.258-0.117,0.528-0.246,0.809-0.375L276.089,677.631z"/>
			<path style="fill:#E5F2F9;" d="M414.62,684.234c-0.985,0.07-2.005,0.129-3.072,0.188l-54.519-34.114
				c1.595,0.258,3.178,0.551,4.738,0.856L414.62,684.234z"/>
			<path style="fill:#E5F2F9;" d="M370.597,684.492c-1.173-0.023-2.345-0.059-3.529-0.106L340.4,667.71l-0.469-2.404
				L370.597,684.492z"/>
			<path style="fill:#E5F2F9;" d="M385.772,684.82c-0.669-0.012-1.349-0.024-2.029-0.024l-45.594-28.52l-0.281-1.419L385.772,684.82
				z"/>
			<path style="fill:#E5F2F9;" d="M376.965,684.667c-0.68-0.012-1.372-0.035-2.076-0.059l-35.533-22.223l-0.281-1.419
				L376.965,684.667z"/>
			<path style="fill:#E5F2F9;" d="M421.011,683.612c-0.528,0.07-1.079,0.129-1.654,0.199l-49.218-30.795
				c1.137,0.281,2.263,0.575,3.378,0.879L421.011,683.612z"/>
		</g>
	</g>
	<g>
		<g>
			<g>
				<path style="fill:#3A4278;" d="M1041.074,776.853h-4.381c-6.257,0-11.329-5.072-11.329-11.329v-19.059
					c0-5.669,4.596-10.265,10.265-10.265h6.509c5.669,0,10.265,4.596,10.265,10.265v19.059
					C1052.403,771.781,1047.331,776.853,1041.074,776.853z"/>
			</g>
			<g>
				<path style="fill:#3A4278;" d="M1045.786,736.65c1.253,1.611,2.001,3.633,2.001,5.831v19.831
					c0,6.248-5.065,11.313-11.313,11.313h-4.414c-1.395,0-2.729-0.254-3.963-0.715c2.075,2.413,5.147,3.944,8.579,3.944h4.414
					c6.248,0,11.313-5.065,11.313-11.313v-19.831C1052.403,741.466,1049.623,737.873,1045.786,736.65z"/>
			</g>
		</g>
		<g>
			<g>
				<path style="fill:#3A4278;" d="M1196.696,776.853h4.381c6.257,0,11.329-5.072,11.329-11.329v-19.059
					c0-5.669-4.596-10.265-10.265-10.265h-6.509c-5.669,0-10.265,4.596-10.265,10.265v19.059
					C1185.367,771.781,1190.439,776.853,1196.696,776.853z"/>
			</g>
			<g>
				<path style="fill:#3A4278;" d="M1191.984,736.65c-1.253,1.611-2.001,3.633-2.001,5.831v19.831
					c0,6.248,5.065,11.313,11.313,11.313h4.414c1.395,0,2.729-0.254,3.963-0.715c-2.075,2.413-5.147,3.944-8.579,3.944h-4.414
					c-6.248,0-11.313-5.065-11.313-11.313v-19.831C1185.367,741.466,1188.146,737.873,1191.984,736.65z"/>
			</g>
		</g>
		<g>
			<path style="fill:#FF78AE;" d="M1222.314,744.366c0.004,6.434-5.199,11.654-11.633,11.654c-61.778,4.82-122.975,4.757-183.62,0
				c-6.118,0-11.124-4.723-11.592-10.719c-0.029-0.308-0.042-0.62-0.042-0.935c0.008-4.445,0.084-10.483,0.299-18.628
				c0.666-25.289,25.618-38.819,25.618-38.819s3.328-24.127,15.476-39.43c12.143-15.308,46.117-14.562,62.052-14.562
				c15.931,0,49.905-0.746,62.052,14.562c12.143,15.303,15.472,39.43,15.472,39.43s12.531,6.792,20.069,19.753
				c0,0,0.004,0,0.004,0.004c3.101,5.326,5.355,11.697,5.549,19.062C1222.23,733.883,1222.31,739.921,1222.314,744.366z"/>
		</g>
		<g>
			<g>
				<path style="fill:#FFFFFF;" d="M1050.164,724.578c-6.932,0-12.572-5.64-12.572-12.572c0-6.932,5.64-12.573,12.572-12.573
					c6.932,0,12.572,5.64,12.572,12.573C1062.737,718.938,1057.097,724.578,1050.164,724.578z"/>
			</g>
			<g>
				<circle style="fill:#CFE9FF;" cx="1050.164" cy="712.006" r="10.991"/>
			</g>
		</g>
		<g>
			<g>
				<path style="fill:#FFFFFF;" d="M1191.914,724.578c-6.932,0-12.572-5.64-12.572-12.572c0-6.932,5.64-12.573,12.572-12.573
					c6.932,0,12.572,5.64,12.572,12.573C1204.486,718.938,1198.846,724.578,1191.914,724.578z"/>
			</g>
			<g>
				<circle style="fill:#CFE9FF;" cx="1191.914" cy="712.006" r="10.991"/>
			</g>
		</g>
		<g>
			<path style="fill:#FF78AE;" d="M1194.789,666.647v2.604c0,1.13-0.916,2.047-2.047,2.047h-4.599c-1.13,0-2.047,0.917-2.047,2.047
				v0.878c0,1.13,0.917,2.047,2.047,2.047h6.646h5.662h9.213c1.131,0,2.047-0.917,2.047-2.047v-7.576
				c0-1.131-0.917-2.047-2.047-2.047h-12.828C1195.706,664.6,1194.789,665.516,1194.789,666.647z"/>
		</g>
		<g>
			<path style="fill:#FF78AE;" d="M1042.944,666.647v2.604c0,1.13,0.917,2.047,2.047,2.047h4.598c1.131,0,2.047,0.917,2.047,2.047
				v0.878c0,1.13-0.917,2.047-2.047,2.047h-6.646h-5.662h-9.213c-1.13,0-2.047-0.917-2.047-2.047v-7.576
				c0-1.131,0.917-2.047,2.047-2.047h12.828C1042.027,664.6,1042.944,665.516,1042.944,666.647z"/>
		</g>
		<g>
			<g>
				<path style="fill:#FFFFFF;" d="M1182.755,740.363v-5.392c0-1.452,1.177-2.629,2.629-2.629h15.639
					c1.451,0,2.628,1.177,2.628,2.628v5.393c0,1.451-1.177,2.628-2.628,2.628h-15.639
					C1183.931,742.991,1182.755,741.815,1182.755,740.363z"/>
			</g>
			<g>
				<path style="fill:#B3DAF4;" d="M1200.651,741.62h-14.898c-0.899,0-1.627-0.729-1.627-1.627v-4.652
					c0-0.899,0.729-1.627,1.627-1.627h14.898c0.899,0,1.627,0.729,1.627,1.627v4.652
					C1202.279,740.892,1201.55,741.62,1200.651,741.62z"/>
			</g>
		</g>
		<g>
			<g>
				<path style="fill:#FFFFFF;" d="M1037.592,740.363v-5.392c0-1.452,1.177-2.629,2.628-2.629h15.639
					c1.451,0,2.628,1.177,2.628,2.628v5.393c0,1.451-1.177,2.628-2.628,2.628h-15.639
					C1038.769,742.991,1037.592,741.815,1037.592,740.363z"/>
			</g>
			<g>
				<path style="fill:#B3DAF4;" d="M1055.488,741.62h-14.897c-0.899,0-1.627-0.729-1.627-1.627v-4.652
					c0-0.899,0.729-1.627,1.627-1.627h14.898c0.899,0,1.627,0.729,1.627,1.627v4.652
					C1057.116,740.892,1056.387,741.62,1055.488,741.62z"/>
			</g>
		</g>
		<g>
			<path style="fill:#CFE9FF;" d="M1182.446,678.201v8.794c-7.143-0.313-14.269-0.575-21.378-0.783
				c-3.886-0.116-7.766-0.214-11.642-0.299c-7.255-0.157-14.497-0.259-21.719-0.303c-14.276-0.095-28.48,0.031-42.62,0.385
				c-6.983,0.174-13.949,0.402-20.898,0.687c-2.396,0.095-4.788,0.201-7.18,0.313v-8.828c0-18.948,16.614-34.599,37.733-35.433
				c0.493-0.02,0.983-0.037,1.477-0.054c5.383-0.204,10.774-0.333,16.171-0.391c6.673-0.072,13.353-0.037,20.044,0.102
				c4.09,0.085,8.184,0.211,12.281,0.378c8.215,0.33,15.743,2.896,21.882,7.027c4.257,2.862,7.841,6.476,10.519,10.614
				c1.545,2.385,2.787,4.945,3.682,7.633C1181.871,671.265,1182.446,674.675,1182.446,678.201z"/>
		</g>
		<g>
			<path style="fill:#6D6E71;" d="M1112.391,642.288l-48.201,44.393c-2.396,0.095-4.788,0.201-7.18,0.313v-8.205l39.21-36.11
				C1101.603,642.475,1106.993,642.346,1112.391,642.288z"/>
		</g>
		<g>
			<path style="fill:#6D6E71;" d="M1166.598,649.795l-38.891,35.814c-14.276-0.095-28.48,0.031-42.62,0.385l47.347-43.604
				c4.09,0.085,8.184,0.211,12.281,0.378C1152.931,643.098,1160.459,645.664,1166.598,649.795z"/>
		</g>
		<g>
			<path style="fill:#FFA1C6;" d="M1055.646,685.994l5.418,2.771c10.695,5.47,22.526,8.352,34.539,8.414l48.349,0.249
				c12.481,0.064,24.79-2.918,35.857-8.688l3.648-1.902L1055.646,685.994z"/>
		</g>
		<g>
			<path style="fill:#6D6E71;" d="M1180.799,668.043l-19.731,18.169c-3.886-0.116-7.766-0.214-11.642-0.299l27.691-25.503
				C1178.662,662.795,1179.904,665.354,1180.799,668.043z"/>
		</g>
		<g>
			<g>
				<path style="fill:#FFFFFF;" d="M1057.071,688.354c-0.776,0.036-1.425-0.583-1.425-1.36v-8.827
					c0-19.768,17.149-35.93,39.042-36.794c16.507-0.651,33.357-0.64,50.082,0.035c21.889,0.884,39.036,17.046,39.036,36.795v8.792
					c0,0.775-0.646,1.394-1.421,1.36l0,0C1139.495,686.476,1097.333,686.476,1057.071,688.354L1057.071,688.354z M1118.741,684.223
					c20.512,0,41.34,0.45,62.343,1.349v-7.37c0-18.282-15.999-33.25-36.423-34.075c-16.653-0.672-33.43-0.684-49.865-0.035
					c-20.426,0.807-36.427,15.774-36.427,34.074v7.402C1078.087,684.672,1098.259,684.223,1118.741,684.223z"/>
			</g>
		</g>
		<g>
			<g>
				<path style="fill:#FFA1C6;" d="M1074.964,742.991c-2.135,0-4.132-1.005-5.623-2.831c-2-2.449-2.81-6.087-2.115-9.493
					l4.023-19.714c0.892-4.37,4.074-7.422,7.738-7.422h81.543c3.664,0,6.846,3.052,7.738,7.421l4.023,19.714
					c0.695,3.406-0.115,7.044-2.115,9.493c-1.491,1.826-3.488,2.831-5.623,2.831H1074.964z"/>
			</g>
			<g>
				<path style="fill:#EB5792;" d="M1164.553,740.463h-89.589c-3.602,0-6.215-4.615-5.261-9.29l4.023-19.714
					c0.651-3.189,2.804-5.399,5.261-5.399h81.543c2.457,0,4.61,2.21,5.261,5.399l4.023,19.714
					C1170.768,735.848,1168.155,740.463,1164.553,740.463z"/>
			</g>
			<g>
				<path style="fill:#FFA1C6;" d="M1151.891,714.76h-66.014c-0.515,0-0.932-0.417-0.932-0.932l0,0c0-0.515,0.417-0.932,0.932-0.932
					h66.014c0.515,0,0.932,0.417,0.932,0.932l0,0C1152.824,714.343,1152.406,714.76,1151.891,714.76z"/>
			</g>
			<g>
				<path style="fill:#FFA1C6;" d="M1156.837,724.194h-75.892c-0.515,0-0.932-0.417-0.932-0.932l0,0
					c0-0.515,0.417-0.932,0.932-0.932h75.892c0.515,0,0.932,0.417,0.932,0.932l0,0
					C1157.769,723.777,1157.351,724.194,1156.837,724.194z"/>
			</g>
			<g>
				<path style="fill:#FFA1C6;" d="M1160.163,733.628h-82.251c-0.515,0-0.932-0.417-0.932-0.932l0,0
					c0-0.515,0.417-0.932,0.932-0.932h82.251c0.515,0,0.932,0.417,0.932,0.932l0,0
					C1161.096,733.211,1160.678,733.628,1160.163,733.628z"/>
			</g>
		</g>
		<g>
			<path style="fill:#EB5792;" d="M1222.314,744.366c0.004,6.434-5.199,11.654-11.633,11.654c-61.778,4.82-122.975,4.757-183.62,0
				c-6.118,0-11.124-4.723-11.592-10.719c0.072,0.067,0.139,0.135,0.211,0.206c11.221,11.216,174.542,8.107,191.244,4.561
				c17.477-3.71,9.752-42.702,9.542-43.393h0.004c3.101,5.326,5.355,11.697,5.549,19.062
				C1222.23,733.883,1222.31,739.921,1222.314,744.366z"/>
		</g>
		<g>
			<path style="fill:#B3DAF4;" d="M1043.986,711.978c0-3.412,2.766-6.178,6.178-6.178s6.178,2.766,6.178,6.178
				c0,3.412-2.766,6.178-6.178,6.178S1043.986,715.391,1043.986,711.978z"/>
		</g>
		<g>
			<path style="fill:#B3DAF4;" d="M1185.763,711.978c0-3.412,2.766-6.178,6.178-6.178s6.178,2.766,6.178,6.178
				c0,3.412-2.766,6.178-6.178,6.178S1185.763,715.391,1185.763,711.978z"/>
		</g>
		<g>
			<path style="fill:#FF78AE;" d="M1157.555,636.17h-77.368l0,0c0-4.413,3.577-7.99,7.99-7.99h61.388
				C1153.978,628.18,1157.555,631.757,1157.555,636.17L1157.555,636.17z"/>
		</g>
	</g>
	<g>
		<rect x="947.884" y="682.736" style="fill:#333333;" width="7.525" height="4.665"/>
	</g>
	<g>
		<g>
			<g>
				<g>
					<path style="fill:#F9CBCB;" d="M616.323,717.278c-0.165,15.566,2.115,29.638,6.954,43.595c0.899,2.621,1.9,5.243,2.989,7.865
						l-1.254,8.435h24.046l-15.522-9.385c-0.355-2.242-0.646-4.56-0.899-6.915c-1.634-15.946-0.937-33.564-0.469-41.506
						c0.165-2.875-0.278-5.737-1.292-8.435c-4.18-11.044-15.414-41.683-19.036-60.63h-26.395
						C580.922,680.623,593.107,693.694,616.323,717.278z"/>
				</g>
			</g>
			<g>
				<g>
					<path style="fill:#3A4278;" d="M597.135,696.341c5.054,6.497,11.513,13.147,19.188,20.937
						c-0.165,15.566,1.924,34.097,6.762,48.055l11.472-0.214c-1.634-15.946-2.858-37.809-2.39-45.751
						c0.165-2.875-0.278-5.737-1.292-8.435c-4.18-11.044-15.414-41.683-19.036-60.63h-26.395
						C582.417,670.604,586.875,683.182,597.135,696.341z"/>
				</g>
			</g>
			<g>
				<g>
					<path style="fill:#2E3669;" d="M623.487,754.759c-3.086-12.617-2.675-27.841-3.276-40.781
						c-13.38-9.098-10.574-29.08-15.99-35.279c-10.732-12.257-20.268-8.81-18.77-28.398h-0.007
						c-3.027,20.303,1.431,32.88,11.69,46.039c5.053,6.497,11.513,13.147,19.188,20.937c-0.164,15.566,1.924,34.097,6.762,48.055
						c4.255,0.496,8.209,0.597,11.472-0.215c-0.049-0.479-1.325-1.04-2.888-1.551C627.607,762.24,624.502,758.91,623.487,754.759z"
						/>
				</g>
			</g>
			<g>
				<g>
					<path style="fill:#3F4883;" d="M633.536,767.788c5.785,3.003,15.878,2.171,16.472,9.385h-24.996
						c-0.282-3.396-0.118-6.582,0.863-9.385H633.536z"/>
				</g>
			</g>
		</g>
		<g>
			<g>
				<g>
					<path style="fill:#F9CBCB;" d="M584.406,770.005l-1.368,7.168h20.801l-14.341-7.093c0.671-3.052,1.444-8.651,2.33-11.741
						c3.521-12.387,8.613-24.952,14.021-36.731c1.292-2.799,1.938-5.864,1.862-8.955c-0.507-19.619-4.37-44.001-4.192-64.886
						h-18.074c-13.147,30.879-5.687,44.52,5.712,69.395c-5.56,11.931-7.359,26.42-7.131,41.176
						C584.063,761.38,584.203,766.965,584.406,770.005z"/>
				</g>
			</g>
			<g>
				<g>
					<path style="fill:#3F4883;" d="M591.156,717.164c-5.56,11.931-9.344,32.907-9.116,47.663l11.052,0.479
						c3.521-12.387,7.348-31.918,12.756-43.697c1.292-2.799,1.938-5.864,1.862-8.955c-0.507-19.619-1.891-44.001-1.714-64.886
						h-20.552C572.297,678.647,579.757,692.288,591.156,717.164z"/>
				</g>
			</g>
			<g>
				<g>
					<g>
						<path style="fill:#373F73;" d="M586.384,751.131c0.851-12.583,4.317-26.441,7.943-35.873
							c-9.069-16.647-15.877-28.047-15.554-44.024c-1.752,16.393,4.332,28.36,12.383,45.93c-5.56,11.931-9.344,32.907-9.116,47.663
							c3.886,0.944,7.602,1.23,11.052,0.479c0.028-0.097-0.104-0.238-0.347-0.408C588.33,761.809,586.021,756.508,586.384,751.131z"
							/>
					</g>
				</g>
			</g>
			<g>
				<g>
					<path style="fill:#3F4883;" d="M590.02,767.788c5.785,3.003,16.172,2.171,16.766,9.385h-24.144
						c-0.282-3.396,0.647-6.582,1.628-9.385H590.02z"/>
				</g>
			</g>
		</g>
		<g>
			<g>
				<path style="fill:#3F4883;" d="M608.919,594.995c-3.351,0.651-4.836,2.127-8.779-0.196c-5.999-3.535-10.139-15.032-1.225-19.061
					c0.767-1.665,1.423-2.275,3.683-2.515c2.259-0.24,4.418,0.967,7.467,1.245c3.049,0.278,7.694-2.388,9.866,2.326
					c2.173,4.713-4.779,7.44-8.313,9.261C608.085,587.875,608.746,591.75,608.919,594.995z"/>
			</g>
		</g>
		<g>
			<g>
				<path style="fill:#F9CBCB;" d="M586.72,660.441h26.395l7.321-31.816c0,0,12.894,10.766,19.227,10.373
					c3.951-0.241,9.562-7.574,13.058-12.767c1.925-2.862,3.204-5.066,3.204-5.066c8.727-3.939,7.321-15.807,4.091-14.224
					c-2.064,1.001-2.305,4.863-5.066,5.535c0,0-0.828-3.228-2.538-1.987c-1.723,1.254-1.35,6.901-1.35,6.901
					c-1.064,0.735-2.115,1.469-3.141,2.191c-3.888,2.824-7.346,5.687-9.676,8.41c-2.787-2.901-5.32-6.447-8.359-10.26
					c-2.135-2.667-4.531-5.464-7.451-8.252c-2.389-2.281-5.289-3.971-8.431-4.99l-3.496-1.133l-0.203-0.063h-7.688l-0.025,0.012
					c-0.621,0.19-10.525,3.306-13.54,10.525C582.35,629.853,586.72,660.441,586.72,660.441z"/>
			</g>
		</g>
		<g>
			<g>
				<polygon style="fill:#F9CBCB;" points="602.615,603.294 610.303,603.294 610.303,594.82 605.275,592.578 604.515,595.644 				
					"/>
			</g>
		</g>
		<g>
			<g>
				<path style="fill:#FFFFFF;" d="M620.131,629.929l-6.17,26.822c-0.497,2.162-2.421,3.693-4.639,3.693
					c-3.827,1.736-9.271,1.141-15.093,0c-4.351,0-7.968-3.332-8.326-7.668c-0.836-10.127-1.444-27.958,3.153-38.947
					c2.361-5.645,8.94-8.787,11.981-9.975c0.959-0.375,1.977-0.56,3.007-0.56h4.943c0.874,0,1.742,0.138,2.574,0.407l1.554,0.503
					c3.181,1.03,5.442,3.859,5.745,7.189l1.45,15.906C620.389,628.179,620.329,629.067,620.131,629.929z"/>
			</g>
		</g>
		<g>
			<g>
				<path style="fill:#FF78AE;" d="M653.897,626.748c-3.493,5.197-10.283,12.007-14.237,12.252c-1.797,0.11-4.116-0.672-6.521-1.851
					c-6.081-3.004-12.704-8.526-12.704-8.526v9.717l-0.004,13.099l-0.004,11.274l-0.004,15.296c-1.394,0.493-2.759,0.872-4.08,1.076
					c-0.073,0.012-0.139,0.024-0.212,0.037c-1.802,0.253-3.509,0.204-5.132-0.265c-1.304-0.367-2.356-1.357-2.71-2.645
					c-1.109-4.043-0.742-9.215,0.122-15.345c0.554-3.958,1.312-8.319,2.013-13.034c1.875-12.598,3.157-27.731-0.874-44.54
					c0,0,0.247-0.039,0.752,0.002l3.7,1.189c3.139,1.027,6.04,2.71,8.433,4.993c2.914,2.8,5.307,5.584,7.447,8.257
					c3.041,3.811,5.082,5.991,7.866,8.889c2.902-2.075,6.285-4.214,10.173-7.039L653.897,626.748z"/>
			</g>
		</g>
		<g>
			<g>
				<path style="fill:#FF78AE;" d="M578.902,680.128c5.539,1.188,11.737,0.645,16.502-0.019c4.006-0.558,6.852-4.133,6.556-8.167
					c-1.659-22.572,4.933-44.684,0.656-68.648l-0.025,0.012c-0.621,0.19-10.57,3.287-13.54,10.525
					c-5.584,13.61-7.764,43.752-12.023,63.341C576.738,678.502,577.572,679.842,578.902,680.128z"/>
			</g>
		</g>
		<g>
			<g>
				<path style="fill:#F0629B;" d="M620.436,620.532v8.094c0,0,6.624,5.522,12.703,8.524
					C629.554,630.268,621.875,628.764,620.436,620.532z"/>
			</g>
		</g>
		<g>
			<g>
				<rect x="583.205" y="659.637" style="fill:#F0629B;" width="12.507" height="1.884"/>
			</g>
		</g>
		<g>
			<g>
				<path style="fill:#EBACAC;" d="M604.515,595.644c0.266,0.405,0.558,0.823,0.874,1.241c1.178,1.57,3.673,2.14,4.914,2.343v-4.407
					l-5.028-2.242L604.515,595.644z"/>
			</g>
		</g>
		<g>
			<g>
				<g>
					<path style="fill:#F9CBCB;" d="M586.616,624.731c0,0,7.941,27.902,13.552,31.474c4.142,2.647,19.822,3.597,27.624,3.901
						c2.711,0.114,4.471,0.14,4.471,0.14c6.573,3.876,16.11,1.457,16.858-4.902c0.253-2.166-6.65,0.95-8.815-0.228
						c0,0,2.166-3.888,0.431-4.61c-0.963-0.393-7.84,4.522-7.84,4.522c-1.419-0.671-2.825-1.304-4.231-1.9
						c-7.232-3.078-14.375-5.206-21.405-6.434c-2.368-14.109-6.219-27.219-12.349-38.82
						C590.593,609.811,586.945,618.132,586.616,624.731z"/>
				</g>
			</g>
			<g>
				<g>
					<path style="fill:#FF78AE;" d="M586.181,624.361c0,0,8.115,28.771,13.726,32.343c4.142,2.647,20.26,4.026,28.063,4.33
						l1.187-8.803c-7.232-3.078-14.288-4.829-21.27-7.085c-0.336-15.08,2.441-31.598-5.271-41.852
						C593.248,605.224,587.804,611.656,586.181,624.361z"/>
				</g>
			</g>
			<g>
				<g>
					<path style="fill:#F0629B;" d="M600.913,654.437c-5.311-3.165-14.4-29.735-14.463-29.24c0,0,7.846,27.934,13.457,31.506
						c4.142,2.647,20.26,4.026,28.063,4.33l0.419-3.105C620.353,657.81,605.009,656.888,600.913,654.437z"/>
				</g>
			</g>
			<g>
				<g>
					<path style="fill:#F0629B;" d="M607.886,645.146l-0.083-6.768c-0.686,3.713-1.591,6.621-2.909,8.015
						c3.059-0.222,5.168-0.03,9.548,0.772C614.369,647.333,607.886,645.146,607.886,645.146z"/>
				</g>
			</g>
		</g>
		<g>
			<path style="fill:#3F4883;" d="M652.775,619.07l-1.097-0.633c-0.645-0.372-0.866-1.197-0.493-1.841l8.997-15.584
				c0.372-0.645,1.197-0.866,1.841-0.493l1.097,0.633c0.645,0.372,0.866,1.197,0.493,1.841l-8.997,15.584
				C654.244,619.221,653.42,619.442,652.775,619.07z"/>
		</g>
		<g>
			<g>
				<path style="fill:#F9CBCB;" d="M616.557,580.483c1.024,4.319,1.472,13.67-2.428,16.706c-2.469,1.922-10.486,0.205-11.495-5.927
					c-1.802-1.628-2.862-5.237-0.89-6.607c1.406-0.977,2.726,2.151,5.019,1.906c0.87-0.093-1.124-6.055,1.636-6.751
					C611.158,579.113,613.734,581.55,616.557,580.483z"/>
			</g>
		</g>
	</g>
	<path style="fill:#FFFFFF;" d="M334.912,251.637H204.168c-1.691-4.51-2.504-9.334-2.591-14.256
		c1.203,0.249,2.483,0.509,3.816,0.802c19.937,4.369,21.682-8.673,21.682-8.673c11.73-32.654,23.623,8.922,36.73,1.019
		c16.067-9.692,15.503,12.413,24.62,9.052c10.711-3.946,22.376-0.575,26.398,4.206C318.845,248.58,334.912,251.637,334.912,251.637z
		"/>
	<path style="fill:#FFFFFF;" d="M861.013,235.473c0,0-16.07-3.061-20.088-7.844c-4.018-4.783-15.688-8.16-26.401-4.209
		c-9.113,3.361-8.545-18.749-24.616-9.055c-13.107,7.906-24.999-33.671-36.732-1.02c0,0-1.748,13.049-21.682,8.673
		c-20.917-4.592-26.429-2.187-23.213,6.122c3.061,7.908-15.305-3.061-20.917,0c-3.046,1.661,2.806,7.334,2.806,7.334H861.013z"/>
	<path style="fill:#FFFFFF;" d="M1112.914,341.38H966.505c0,0-5.854-5.67-2.808-7.329c5.605-3.068,23.98,7.903,20.913,0
		c-3.22-8.315,2.298-10.722,23.211-6.125c19.937,4.369,21.682-8.673,21.682-8.673c11.741-32.654,23.634,8.922,36.741,1.019
		c1.778-1.073,3.35-1.756,4.759-2.136C1083.134,329.043,1098.105,336.556,1112.914,341.38z"/>
	<path style="fill:#FFFFFF;" d="M636.299,376.204c0,0-16.07-3.061-20.088-7.844s-15.688-8.16-26.401-4.209
		c-9.113,3.361-8.545-18.749-24.616-9.056c-13.107,7.906-24.998-33.671-36.732-1.02c0,0-1.748,13.049-21.682,8.673
		c-20.917-4.592-26.429-2.187-23.213,6.122c3.061,7.908-15.305-3.061-20.917,0c-3.046,1.661,2.806,7.334,2.806,7.334H636.299z"/>
</g>
</svg>
