<?xml version="1.0" encoding="utf-8"?>
<!-- Generator: Adobe Illustrator 27.5.0, SVG Export Plug-In . SVG Version: 6.00 Build 0)  -->
<svg version="1.1" xmlns="http://www.w3.org/2000/svg" xmlns:xlink="http://www.w3.org/1999/xlink" x="0px" y="0px"
	 viewBox="0 0 2000 3000" style="enable-background:new 0 0 2000 3000;" xml:space="preserve">
<g id="Слой_2">
	<g>
		<g>
			<rect style="fill:#F6F0F8;" width="2000" height="3000"/>
		</g>
		<g>
			<path style="fill:#333343;" d="M1515.373,736h-2.022V523.86c0-70.339-57.021-127.36-127.36-127.36H614.01
				c-70.339,0-127.36,57.021-127.36,127.36V736h-2.022c-9.183,0-16.627,7.444-16.627,16.627v146.745
				c0,9.183,7.444,16.627,16.627,16.627h2.022v35h-2.022c-9.183,0-16.627,7.444-16.627,16.627v146.745
				c0,9.183,7.444,16.627,16.627,16.627h2.022v1285.141c0,70.338,57.021,127.359,127.36,127.359h771.981
				c70.34,0,127.36-57.021,127.36-127.359V1006h2.022c9.182,0,16.627-7.444,16.627-16.627V752.627
				C1532,743.444,1524.556,736,1515.373,736z"/>
			<path style="fill:#FFFFFF;" d="M1372.846,2512H627.155c-57.131,0-103.444-46.313-103.444-103.444V531.444
				C523.71,474.314,570.024,428,627.155,428h745.691c57.131,0,103.444,46.313,103.444,103.444v1877.111
				C1476.29,2465.687,1429.976,2512,1372.846,2512z"/>
		</g>
		<g>
			<g>
				<g>
					<path style="fill:#3E3D51;" d="M689.328,563.312h-61c-1.38,0-2.5-1.119-2.5-2.5c0-1.381,1.12-2.5,2.5-2.5h61
						c1.381,0,2.5,1.119,2.5,2.5C691.828,562.193,690.709,563.312,689.328,563.312z"/>
					<path style="fill:#3E3D51;" d="M689.328,585.812h-61c-1.38,0-2.5-1.119-2.5-2.5c0-1.381,1.12-2.5,2.5-2.5h61
						c1.381,0,2.5,1.119,2.5,2.5C691.828,584.693,690.709,585.812,689.328,585.812z"/>
					<path style="fill:#3E3D51;" d="M689.328,608.312h-61c-1.38,0-2.5-1.119-2.5-2.5c0-1.381,1.12-2.5,2.5-2.5h61
						c1.381,0,2.5,1.119,2.5,2.5C691.828,607.193,690.709,608.312,689.328,608.312z"/>
				</g>
				<g>
					<g>
						<path style="fill:#3E3D51;" d="M1227.578,595.188c-2.102-0.7-3.752-1.607-4.952-2.722l1.586-3.344
							c1.143,1.029,2.608,1.865,4.394,2.508c1.786,0.643,3.623,0.964,5.51,0.964c2.486,0,4.344-0.421,5.573-1.265
							c1.229-0.843,1.844-1.965,1.844-3.366c0-1.029-0.337-1.865-1.008-2.508c-0.672-0.643-1.501-1.136-2.486-1.479
							c-0.986-0.343-2.38-0.729-4.181-1.158c-2.258-0.542-4.08-1.086-5.466-1.629c-1.387-0.542-2.572-1.378-3.559-2.508
							c-0.986-1.129-1.479-2.651-1.479-4.566c0-1.601,0.422-3.044,1.265-4.331c0.843-1.286,2.123-2.315,3.838-3.086
							c1.715-0.772,3.844-1.158,6.388-1.158c1.771,0,3.516,0.229,5.23,0.686c1.715,0.458,3.187,1.115,4.416,1.972l-1.415,3.43
							c-1.258-0.8-2.6-1.407-4.03-1.822c-1.429-0.413-2.829-0.621-4.201-0.621c-2.43,0-4.252,0.443-5.466,1.329
							c-1.216,0.886-1.822,2.03-1.822,3.43c0,1.029,0.343,1.865,1.028,2.508c0.687,0.643,1.536,1.144,2.552,1.5
							c1.014,0.358,2.393,0.736,4.137,1.136c2.258,0.543,4.073,1.086,5.445,1.629c1.371,0.543,2.551,1.372,3.536,2.487
							c0.986,1.115,1.479,2.615,1.479,4.502c0,1.572-0.429,3.009-1.286,4.309c-0.857,1.301-2.158,2.33-3.901,3.087
							c-1.744,0.757-3.888,1.136-6.431,1.136C1231.857,596.238,1229.679,595.888,1227.578,595.188z"/>
						<path style="fill:#3E3D51;" d="M1260.226,585.305l-4.716,4.373v6.217h-4.116v-31.812h4.116v20.407l12.39-11.318h4.974
							l-9.56,9.389l10.504,13.333h-5.06L1260.226,585.305z"/>
						<path style="fill:#3E3D51;" d="M1277.567,568.028c-0.529-0.515-0.793-1.143-0.793-1.887c0-0.743,0.264-1.378,0.793-1.908
							c0.528-0.529,1.193-0.793,1.993-0.793c0.8,0,1.465,0.25,1.994,0.75c0.528,0.5,0.793,1.122,0.793,1.865
							c0,0.771-0.265,1.422-0.793,1.951c-0.529,0.529-1.194,0.793-1.994,0.793C1278.761,568.799,1278.096,568.542,1277.567,568.028z
							 M1277.503,573.172h4.116v22.723h-4.116V573.172z"/>
						<path style="fill:#3E3D51;" d="M1307.428,574.416c1.743,0.972,3.108,2.33,4.095,4.073c0.985,1.744,1.479,3.759,1.479,6.045
							c0,2.287-0.493,4.309-1.479,6.066c-0.986,1.758-2.351,3.123-4.095,4.094c-1.744,0.972-3.716,1.458-5.916,1.458
							c-1.63,0-3.123-0.314-4.481-0.943c-1.358-0.628-2.509-1.543-3.451-2.744v11.747h-4.116v-31.04h3.944v3.602
							c0.914-1.258,2.072-2.208,3.473-2.851c1.4-0.643,2.943-0.965,4.631-0.965C1303.712,572.958,1305.684,573.444,1307.428,574.416
							z M1305.091,591.544c1.158-0.671,2.072-1.614,2.744-2.83c0.671-1.214,1.008-2.608,1.008-4.18c0-1.572-0.337-2.965-1.008-4.18
							c-0.672-1.214-1.586-2.15-2.744-2.808c-1.157-0.657-2.465-0.986-3.923-0.986c-1.43,0-2.722,0.336-3.88,1.008
							c-1.157,0.672-2.072,1.608-2.744,2.808c-0.672,1.201-1.007,2.587-1.007,4.159c0,1.572,0.328,2.966,0.985,4.18
							c0.657,1.215,1.572,2.158,2.744,2.83c1.172,0.672,2.472,1.007,3.901,1.007
							C1302.626,592.551,1303.934,592.215,1305.091,591.544z"/>
					</g>
					<path style="fill:#3E3D51;" d="M1326.5,630.983h-117.328c-26.286,0-47.672-21.385-47.672-47.671
						c0-26.286,21.386-47.671,47.672-47.671H1326.5c26.286,0,47.672,21.385,47.672,47.671
						C1374.172,609.598,1352.786,630.983,1326.5,630.983z M1209.172,540.641c-23.529,0-42.672,19.142-42.672,42.671
						s19.142,42.671,42.672,42.671H1326.5c23.529,0,42.672-19.142,42.672-42.671s-19.142-42.671-42.672-42.671H1209.172z"/>
				</g>
			</g>
			<g>
				<path style="fill:#8282A8;" d="M938.81,2323.5c-8.423,0-15.275,6.853-15.275,15.275c0,8.424,6.853,15.276,15.275,15.276
					c8.424,0,15.276-6.853,15.276-15.276C954.086,2330.353,947.234,2323.5,938.81,2323.5z"/>
				<path style="fill:#8282A8;" d="M1000,2354.275c-8.423,0-15.276-6.853-15.276-15.275s6.853-15.275,15.276-15.275
					c8.423,0,15.275,6.853,15.275,15.275S1008.423,2354.275,1000,2354.275z M1000,2328.725c-5.666,0-10.276,4.609-10.276,10.275
					s4.61,10.275,10.276,10.275c5.666,0,10.275-4.609,10.275-10.275S1005.666,2328.725,1000,2328.725z"/>
				<path style="fill:#8282A8;" d="M1061.189,2354.5c-8.423,0-15.275-6.853-15.275-15.275c0-8.424,6.853-15.276,15.275-15.276
					c8.424,0,15.276,6.853,15.276,15.276C1076.466,2347.647,1069.613,2354.5,1061.189,2354.5z M1061.189,2328.948
					c-5.666,0-10.275,4.61-10.275,10.276s4.609,10.275,10.275,10.275c5.666,0,10.276-4.609,10.276-10.275
					S1066.855,2328.948,1061.189,2328.948z"/>
			</g>
			<g>
				<g>
					<path style="fill:#3E3D51;" d="M680.65,1851.646h17.894v81.215h50.381v15.142H680.65V1851.646z"/>
					<path style="fill:#3E3D51;" d="M773.704,1944.148c-5.966-3.211-10.623-7.685-13.972-13.421
						c-3.351-5.734-5.024-12.228-5.024-19.478c0-7.248,1.673-13.718,5.024-19.409c3.349-5.688,8.005-10.139,13.972-13.353
						c5.964-3.211,12.664-4.817,20.098-4.817c7.523,0,14.268,1.606,20.234,4.817c5.964,3.214,10.621,7.664,13.972,13.353
						c3.349,5.691,5.024,12.161,5.024,19.409c0,7.25-1.675,13.743-5.024,19.478c-3.351,5.736-8.008,10.21-13.972,13.421
						c-5.967,3.214-12.711,4.818-20.234,4.818C786.368,1948.967,779.668,1947.362,773.704,1944.148z M809.493,1927.905
						c4.13-4.22,6.195-9.772,6.195-16.655s-2.065-12.434-6.195-16.656c-4.129-4.22-9.36-6.332-15.691-6.332
						c-6.333,0-11.542,2.112-15.624,6.332c-4.084,4.223-6.125,9.773-6.125,16.656s2.041,12.436,6.125,16.655
						c4.083,4.223,9.292,6.332,15.624,6.332C800.133,1934.237,805.364,1932.128,809.493,1927.905z"/>
					<path style="fill:#3E3D51;" d="M892.083,1873.671v16.381c-1.469-0.275-2.8-0.413-3.992-0.413c-6.7,0-11.931,1.95-15.692,5.85
						c-3.764,3.902-5.643,9.522-5.643,16.862v35.652h-17.207v-73.506h16.38v10.736
						C870.885,1877.525,879.602,1873.671,892.083,1873.671z"/>
					<path style="fill:#3E3D51;" d="M974.813,1916.756h-57.677c1.008,5.416,3.647,9.704,7.915,12.87
						c4.267,3.166,9.566,4.749,15.898,4.749c8.074,0,14.729-2.66,19.96-7.983l9.223,10.6c-3.304,3.946-7.481,6.93-12.526,8.947
						c-5.048,2.02-10.737,3.028-17.068,3.028c-8.077,0-15.19-1.604-21.337-4.818c-6.149-3.211-10.898-7.685-14.247-13.421
						c-3.351-5.734-5.023-12.228-5.023-19.478c0-7.158,1.628-13.604,4.887-19.341c3.255-5.733,7.777-10.207,13.559-13.421
						c5.781-3.211,12.296-4.817,19.546-4.817c7.159,0,13.559,1.583,19.203,4.749c5.644,3.166,10.048,7.618,13.214,13.353
						c3.166,5.735,4.749,12.367,4.749,19.891C975.088,1912.856,974.996,1914.554,974.813,1916.756z M923.95,1892.322
						c-3.809,3.259-6.125,7.595-6.951,13.009h41.708c-0.736-5.321-2.983-9.636-6.745-12.939c-3.764-3.304-8.444-4.956-14.041-4.956
						C932.416,1887.436,927.757,1889.066,923.95,1892.322z"/>
					<path style="fill:#3E3D51;" d="M1106.408,1881.724c5.412,5.368,8.121,13.421,8.121,24.158v42.121h-17.207v-39.919
						c0-6.423-1.424-11.264-4.267-14.522c-2.846-3.257-6.93-4.887-12.25-4.887c-5.781,0-10.418,1.905-13.904,5.713
						c-3.488,3.809-5.23,9.246-5.23,16.312v37.304h-17.207v-39.919c0-6.423-1.424-11.264-4.266-14.522
						c-2.846-3.257-6.93-4.887-12.252-4.887c-5.873,0-10.529,1.882-13.971,5.644c-3.441,3.764-5.162,9.223-5.162,16.381v37.304
						h-17.207v-73.506h16.381v9.36c2.752-3.304,6.193-5.827,10.324-7.571c4.129-1.742,8.717-2.615,13.764-2.615
						c5.508,0,10.394,1.032,14.66,3.097c4.268,2.065,7.641,5.117,10.117,9.154c3.029-3.854,6.928-6.859,11.701-9.017
						c4.771-2.155,10.049-3.234,15.83-3.234C1093.65,1873.671,1100.992,1876.354,1106.408,1881.724z"/>
					<path style="fill:#3E3D51;" d="M1179.773,1946.626c-5.691-1.559-10.233-3.531-13.628-5.919l6.607-13.076
						c3.304,2.202,7.271,3.97,11.907,5.299c4.633,1.332,9.198,1.996,13.696,1.996c10.276,0,15.417-2.705,15.417-8.121
						c0-2.568-1.308-4.357-3.923-5.368c-2.616-1.009-6.814-1.973-12.596-2.892c-6.057-0.916-10.99-1.972-14.798-3.166
						c-3.809-1.191-7.112-3.279-9.91-6.263c-2.801-2.981-4.199-7.134-4.199-12.458c0-6.973,2.912-12.548,8.741-16.725
						c5.826-4.175,13.696-6.263,23.608-6.263c5.046,0,10.094,0.574,15.142,1.721c5.046,1.148,9.176,2.684,12.389,4.611
						l-6.607,13.077c-6.241-3.67-13.262-5.507-21.06-5.507c-5.048,0-8.879,0.758-11.494,2.271c-2.615,1.515-3.923,3.511-3.923,5.988
						c0,2.753,1.398,4.703,4.198,5.85c2.798,1.148,7.135,2.227,13.008,3.235c5.872,0.918,10.691,1.975,14.454,3.166
						c3.762,1.193,6.996,3.213,9.704,6.057c2.706,2.846,4.061,6.883,4.061,12.113c0,6.883-2.983,12.389-8.947,16.519
						c-5.966,4.129-14.088,6.194-24.364,6.194C1191.289,1948.967,1185.462,1948.186,1179.773,1946.626z"/>
					<path style="fill:#3E3D51;" d="M1246.259,1859.424c-2.112-1.973-3.166-4.427-3.166-7.364c0-2.937,1.054-5.391,3.166-7.364
						c2.11-1.973,4.725-2.96,7.847-2.96c3.118,0,5.733,0.942,7.846,2.822c2.11,1.882,3.166,4.245,3.166,7.089
						c0,3.028-1.032,5.575-3.097,7.64c-2.066,2.064-4.704,3.097-7.915,3.097C1250.984,1862.383,1248.369,1861.398,1246.259,1859.424
						z M1245.433,1874.497h17.207v73.506h-17.207V1874.497z"/>
					<path style="fill:#3E3D51;" d="M1329.398,1944.011c-2.019,1.652-4.474,2.891-7.364,3.717c-2.891,0.826-5.942,1.239-9.154,1.239
						c-8.076,0-14.315-2.11-18.72-6.332c-4.405-4.22-6.607-10.369-6.607-18.445v-35.377h-12.113v-13.766h12.113v-16.793h17.206
						v16.793h19.685v13.766h-19.685v34.964c0,3.579,0.871,6.311,2.615,8.19c1.742,1.882,4.268,2.821,7.571,2.821
						c3.854,0,7.065-1.009,9.636-3.028L1329.398,1944.011z"/>
				</g>
				<g>
					<path style="fill:#8282A8;" d="M632.491,2045.082h11.21c2.812,0,5.306,0.558,7.485,1.672c2.178,1.115,3.87,2.68,5.073,4.693
						c1.203,2.014,1.805,4.326,1.805,6.936s-0.602,4.92-1.805,6.934c-1.204,2.015-2.895,3.579-5.073,4.693
						c-2.179,1.115-4.674,1.672-7.485,1.672h-11.21V2045.082z M643.473,2068.376c2.153,0,4.047-0.418,5.681-1.254
						c1.635-0.836,2.894-2.007,3.781-3.515c0.886-1.508,1.33-3.25,1.33-5.225c0-1.977-0.444-3.719-1.33-5.226
						c-0.887-1.507-2.146-2.679-3.781-3.515c-1.634-0.836-3.527-1.254-5.681-1.254h-7.182v19.987H643.473z"/>
					<path style="fill:#8282A8;" d="M666.576,2070.58c-1.596-0.887-2.844-2.109-3.743-3.667c-0.899-1.558-1.349-3.325-1.349-5.301
						s0.449-3.743,1.349-5.302c0.899-1.558,2.147-2.773,3.743-3.647c1.596-0.874,3.395-1.312,5.396-1.312
						c2,0,3.793,0.438,5.377,1.312c1.583,0.874,2.825,2.09,3.724,3.647c0.899,1.559,1.349,3.326,1.349,5.302
						s-0.45,3.743-1.349,5.301s-2.141,2.78-3.724,3.667c-1.584,0.887-3.376,1.33-5.377,1.33
						C669.971,2071.91,668.172,2071.467,666.576,2070.58z M675.449,2067.825c1.026-0.595,1.83-1.431,2.413-2.509
						c0.582-1.076,0.874-2.311,0.874-3.704s-0.292-2.628-0.874-3.705c-0.583-1.077-1.387-1.906-2.413-2.489
						c-1.026-0.582-2.185-0.874-3.477-0.874c-1.292,0-2.451,0.292-3.477,0.874c-1.026,0.583-1.837,1.412-2.432,2.489
						c-0.596,1.077-0.893,2.312-0.893,3.705s0.297,2.628,0.893,3.704c0.595,1.078,1.406,1.914,2.432,2.509
						c1.026,0.596,2.185,0.894,3.477,0.894C673.264,2068.719,674.423,2068.421,675.449,2067.825z"/>
					<path style="fill:#8282A8;" d="M687.477,2043.486h3.647v28.195h-3.647V2043.486z"/>
					<path style="fill:#8282A8;" d="M701.308,2070.58c-1.596-0.887-2.844-2.109-3.743-3.667s-1.349-3.325-1.349-5.301
						s0.449-3.743,1.349-5.302c0.899-1.558,2.147-2.773,3.743-3.647c1.596-0.874,3.394-1.312,5.396-1.312
						c2.001,0,3.794,0.438,5.377,1.312c1.583,0.874,2.824,2.09,3.724,3.647c0.899,1.559,1.349,3.326,1.349,5.302
						s-0.45,3.743-1.349,5.301c-0.899,1.558-2.141,2.78-3.724,3.667c-1.583,0.887-3.376,1.33-5.377,1.33
						C704.702,2071.91,702.904,2071.467,701.308,2070.58z M710.181,2067.825c1.026-0.595,1.83-1.431,2.413-2.509
						c0.583-1.076,0.874-2.311,0.874-3.704s-0.291-2.628-0.874-3.705s-1.387-1.906-2.413-2.489
						c-1.025-0.582-2.185-0.874-3.477-0.874s-2.451,0.292-3.477,0.874c-1.025,0.583-1.837,1.412-2.432,2.489
						c-0.595,1.077-0.893,2.312-0.893,3.705s0.297,2.628,0.893,3.704c0.595,1.078,1.407,1.914,2.432,2.509
						c1.026,0.596,2.185,0.894,3.477,0.894S709.155,2068.421,710.181,2067.825z"/>
					<path style="fill:#8282A8;" d="M728.516,2052.264c1.241-0.607,2.749-0.912,4.523-0.912v3.535
						c-0.203-0.025-0.482-0.039-0.836-0.039c-1.976,0-3.528,0.59-4.655,1.768c-1.128,1.178-1.691,2.856-1.691,5.035v10.031h-3.648
						v-20.14h3.496v3.382C726.336,2053.76,727.274,2052.872,728.516,2052.264z"/>
					<path style="fill:#8282A8;" d="M749.035,2071.245c-1.521-0.442-2.711-1.007-3.572-1.69l1.52-2.889
						c0.886,0.634,1.963,1.141,3.23,1.52c1.267,0.381,2.546,0.57,3.838,0.57c3.192,0,4.788-0.912,4.788-2.736
						c0-0.607-0.216-1.088-0.646-1.443c-0.432-0.354-0.97-0.613-1.616-0.779c-0.646-0.164-1.564-0.348-2.755-0.551
						c-1.622-0.253-2.945-0.545-3.971-0.874c-1.025-0.329-1.906-0.886-2.641-1.672c-0.735-0.785-1.102-1.888-1.102-3.306
						c0-1.824,0.759-3.287,2.279-4.389c1.521-1.103,3.559-1.654,6.118-1.654c1.343,0,2.686,0.166,4.028,0.494
						c1.342,0.33,2.444,0.773,3.306,1.33l-1.558,2.889c-1.647-1.064-3.585-1.596-5.814-1.596c-1.545,0-2.724,0.253-3.534,0.76
						c-0.811,0.507-1.216,1.178-1.216,2.014c0,0.659,0.229,1.178,0.684,1.559c0.457,0.379,1.02,0.658,1.691,0.836
						c0.671,0.177,1.615,0.379,2.831,0.607c1.621,0.279,2.932,0.576,3.933,0.893c1,0.317,1.856,0.855,2.565,1.615
						s1.064,1.824,1.064,3.192c0,1.823-0.779,3.274-2.337,4.351c-1.558,1.077-3.68,1.615-6.365,1.615
						C752.138,2071.91,750.555,2071.688,749.035,2071.245z"/>
					<path style="fill:#8282A8;" d="M767.104,2046.982c-0.469-0.456-0.703-1.014-0.703-1.672s0.234-1.223,0.703-1.691
						c0.469-0.469,1.057-0.703,1.767-0.703c0.708,0,1.298,0.223,1.767,0.665c0.469,0.444,0.703,0.995,0.703,1.653
						c0,0.684-0.234,1.26-0.703,1.729c-0.469,0.469-1.058,0.703-1.767,0.703C768.161,2047.666,767.572,2047.438,767.104,2046.982z
						 M767.047,2051.542h3.647v20.14h-3.647V2051.542z"/>
					<path style="fill:#8282A8;" d="M788.973,2070.504c-0.533,0.456-1.192,0.805-1.976,1.045c-0.786,0.24-1.597,0.361-2.433,0.361
						c-2.027,0-3.598-0.545-4.712-1.634c-1.115-1.089-1.671-2.647-1.671-4.675v-11.058h-3.42v-3.002h3.42v-4.407h3.647v4.407h5.776
						v3.002h-5.776v10.906c0,1.089,0.273,1.925,0.817,2.508c0.544,0.583,1.323,0.874,2.337,0.874c1.115,0,2.065-0.316,2.85-0.949
						L788.973,2070.504z"/>
					<path style="fill:#8282A8;" d="M817.338,2053.404c1.482,1.367,2.223,3.407,2.223,6.117v12.16h-3.458v-2.66
						c-0.608,0.938-1.476,1.654-2.603,2.147c-1.128,0.494-2.464,0.741-4.009,0.741c-2.255,0-4.06-0.545-5.415-1.634
						c-1.355-1.089-2.033-2.521-2.033-4.294s0.646-3.198,1.938-4.275c1.292-1.076,3.344-1.615,6.156-1.615h5.776v-0.722
						c0-1.57-0.457-2.774-1.369-3.61c-0.912-0.836-2.255-1.254-4.027-1.254c-1.191,0-2.356,0.197-3.496,0.59
						c-1.141,0.393-2.103,0.918-2.888,1.576l-1.52-2.736c1.038-0.836,2.28-1.475,3.724-1.918c1.444-0.443,2.977-0.666,4.598-0.666
						C813.722,2051.352,815.856,2052.036,817.338,2053.404z M813.709,2068.167c1.014-0.62,1.748-1.501,2.205-2.641v-2.812h-5.625
						c-3.091,0-4.636,1.039-4.636,3.115c0,1.014,0.393,1.812,1.178,2.395c0.785,0.582,1.875,0.873,3.269,0.873
						C811.492,2069.098,812.695,2068.788,813.709,2068.167z"/>
					<path style="fill:#8282A8;" d="M857.542,2053.557c1.482,1.469,2.223,3.647,2.223,6.535v11.59h-3.648v-11.172
						c0-1.95-0.45-3.42-1.349-4.408c-0.899-0.987-2.185-1.481-3.857-1.481c-1.85,0-3.319,0.577-4.408,1.729
						c-1.089,1.152-1.634,2.806-1.634,4.959v10.373h-3.648v-11.172c0-1.95-0.45-3.42-1.349-4.408
						c-0.899-0.987-2.186-1.481-3.857-1.481c-1.85,0-3.319,0.577-4.408,1.729c-1.089,1.152-1.634,2.806-1.634,4.959v10.373h-3.648
						v-20.14h3.496v3.002c0.735-1.038,1.697-1.829,2.888-2.375c1.19-0.544,2.546-0.817,4.066-0.817c1.57,0,2.964,0.318,4.18,0.951
						c1.216,0.633,2.152,1.558,2.812,2.773c0.76-1.165,1.817-2.077,3.173-2.736c1.354-0.658,2.881-0.988,4.579-0.988
						C854.052,2051.352,856.06,2052.088,857.542,2053.557z"/>
					<path style="fill:#8282A8;" d="M884.73,2062.828h-16.34c0.228,1.773,1.007,3.199,2.337,4.275
						c1.331,1.076,2.983,1.615,4.959,1.615c2.407,0,4.344-0.811,5.814-2.433l2.014,2.356c-0.912,1.063-2.046,1.875-3.401,2.432
						c-1.356,0.558-2.869,0.836-4.541,0.836c-2.128,0-4.016-0.438-5.662-1.311c-1.647-0.875-2.92-2.096-3.819-3.668
						c-0.899-1.57-1.349-3.344-1.349-5.319c0-1.95,0.437-3.711,1.311-5.282c0.874-1.57,2.077-2.793,3.61-3.667
						c1.532-0.874,3.261-1.312,5.187-1.312c1.924,0,3.641,0.438,5.148,1.312c1.507,0.874,2.686,2.097,3.534,3.667
						c0.848,1.571,1.273,3.369,1.273,5.396C884.806,2062.006,884.78,2062.372,884.73,2062.828z M870.461,2056.026
						c-1.178,1.063-1.868,2.458-2.071,4.18h12.92c-0.203-1.696-0.893-3.084-2.071-4.161c-1.178-1.076-2.641-1.615-4.389-1.615
						C873.102,2054.43,871.639,2054.962,870.461,2056.026z"/>
					<path style="fill:#8282A8;" d="M901.185,2070.504c-0.533,0.456-1.191,0.805-1.977,1.045c-0.786,0.24-1.596,0.361-2.432,0.361
						c-2.027,0-3.598-0.545-4.712-1.634c-1.115-1.089-1.671-2.647-1.671-4.675v-11.058h-3.421v-3.002h3.421v-4.407h3.647v4.407
						h5.776v3.002h-5.776v10.906c0,1.089,0.272,1.925,0.817,2.508c0.544,0.583,1.324,0.874,2.337,0.874
						c1.115,0,2.065-0.316,2.85-0.949L901.185,2070.504z"/>
					<path style="fill:#8282A8;" d="M908.65,2067.445c0.468,0.494,0.703,1.108,0.703,1.843c0,0.38-0.044,0.747-0.133,1.103
						c-0.089,0.354-0.26,0.898-0.513,1.633l-1.785,5.283h-2.395l1.406-5.662c-0.482-0.178-0.869-0.476-1.159-0.894
						c-0.292-0.418-0.437-0.905-0.437-1.463c0-0.76,0.24-1.38,0.722-1.862c0.48-0.48,1.088-0.722,1.824-0.722
						C907.593,2066.704,908.181,2066.951,908.65,2067.445z"/>
					<path style="fill:#8282A8;" d="M928.105,2070.58c-1.609-0.887-2.869-2.109-3.781-3.667c-0.912-1.558-1.368-3.325-1.368-5.301
						s0.456-3.743,1.368-5.302c0.912-1.558,2.172-2.773,3.781-3.647c1.608-0.874,3.439-1.312,5.491-1.312
						c1.824,0,3.451,0.368,4.883,1.103c1.431,0.735,2.539,1.8,3.325,3.192l-2.774,1.785c-0.633-0.962-1.419-1.684-2.356-2.166
						c-0.938-0.48-1.976-0.722-3.116-0.722c-1.318,0-2.503,0.292-3.553,0.874c-1.052,0.583-1.875,1.412-2.471,2.489
						c-0.595,1.077-0.893,2.312-0.893,3.705c0,1.419,0.297,2.667,0.893,3.743c0.596,1.076,1.419,1.906,2.471,2.488
						c1.05,0.584,2.235,0.875,3.553,0.875c1.14,0,2.178-0.241,3.116-0.723c0.937-0.48,1.723-1.203,2.356-2.166l2.774,1.748
						c-0.786,1.394-1.895,2.464-3.325,3.211c-1.432,0.748-3.059,1.121-4.883,1.121
						C931.544,2071.91,929.714,2071.467,928.105,2070.58z"/>
					<path style="fill:#8282A8;" d="M949.442,2070.58c-1.597-0.887-2.845-2.109-3.744-3.667c-0.899-1.558-1.348-3.325-1.348-5.301
						s0.449-3.743,1.348-5.302c0.899-1.558,2.147-2.773,3.744-3.647c1.596-0.874,3.394-1.312,5.396-1.312
						c2.001,0,3.793,0.438,5.377,1.312c1.583,0.874,2.825,2.09,3.724,3.647c0.899,1.559,1.35,3.326,1.35,5.302
						s-0.451,3.743-1.35,5.301c-0.899,1.558-2.141,2.78-3.724,3.667c-1.583,0.887-3.376,1.33-5.377,1.33
						C952.836,2071.91,951.039,2071.467,949.442,2070.58z M958.315,2067.825c1.026-0.595,1.83-1.431,2.413-2.509
						c0.583-1.076,0.874-2.311,0.874-3.704s-0.292-2.628-0.874-3.705c-0.583-1.077-1.387-1.906-2.413-2.489
						c-1.026-0.582-2.185-0.874-3.477-0.874c-1.292,0-2.451,0.292-3.477,0.874c-1.026,0.583-1.837,1.412-2.432,2.489
						c-0.595,1.077-0.893,2.312-0.893,3.705s0.298,2.628,0.893,3.704c0.595,1.078,1.406,1.914,2.432,2.509
						c1.026,0.596,2.185,0.894,3.477,0.894C956.13,2068.719,957.289,2068.421,958.315,2067.825z"/>
					<path style="fill:#8282A8;" d="M987.195,2053.575c1.507,1.481,2.261,3.654,2.261,6.517v11.59h-3.648v-11.172
						c0-1.95-0.469-3.42-1.406-4.408c-0.938-0.987-2.28-1.481-4.028-1.481c-1.976,0-3.534,0.577-4.674,1.729
						c-1.141,1.152-1.711,2.806-1.711,4.959v10.373h-3.648v-20.14h3.496v3.04c0.734-1.039,1.729-1.836,2.983-2.395
						c1.254-0.557,2.679-0.836,4.274-0.836C983.654,2051.352,985.688,2052.094,987.195,2053.575z"/>
					<path style="fill:#8282A8;" d="M997.246,2071.245c-1.521-0.442-2.711-1.007-3.572-1.69l1.52-2.889
						c0.887,0.634,1.963,1.141,3.23,1.52c1.267,0.381,2.546,0.57,3.838,0.57c3.191,0,4.787-0.912,4.787-2.736
						c0-0.607-0.215-1.088-0.646-1.443c-0.43-0.354-0.969-0.613-1.614-0.779c-0.646-0.164-1.565-0.348-2.755-0.551
						c-1.621-0.253-2.944-0.545-3.971-0.874c-1.026-0.329-1.906-0.886-2.641-1.672c-0.735-0.785-1.102-1.888-1.102-3.306
						c0-1.824,0.76-3.287,2.28-4.389c1.52-1.103,3.559-1.654,6.118-1.654c1.342,0,2.685,0.166,4.028,0.494
						c1.342,0.33,2.443,0.773,3.305,1.33l-1.557,2.889c-1.648-1.064-3.586-1.596-5.814-1.596c-1.546,0-2.724,0.253-3.534,0.76
						c-0.811,0.507-1.216,1.178-1.216,2.014c0,0.659,0.228,1.178,0.685,1.559c0.456,0.379,1.02,0.658,1.69,0.836
						c0.671,0.177,1.615,0.379,2.831,0.607c1.621,0.279,2.931,0.576,3.933,0.893c1,0.317,1.855,0.855,2.565,1.615
						c0.709,0.76,1.064,1.824,1.064,3.192c0,1.823-0.779,3.274-2.338,4.351c-1.557,1.077-3.679,1.615-6.364,1.615
						C1000.349,2071.91,998.766,2071.688,997.246,2071.245z"/>
					<path style="fill:#8282A8;" d="M1033.383,2062.828h-16.34c0.228,1.773,1.007,3.199,2.337,4.275
						c1.33,1.076,2.983,1.615,4.959,1.615c2.406,0,4.345-0.811,5.814-2.433l2.015,2.356c-0.912,1.063-2.046,1.875-3.401,2.432
						c-1.356,0.558-2.869,0.836-4.541,0.836c-2.128,0-4.016-0.438-5.662-1.311c-1.647-0.875-2.92-2.096-3.818-3.668
						c-0.899-1.57-1.35-3.344-1.35-5.319c0-1.95,0.438-3.711,1.312-5.282c0.874-1.57,2.077-2.793,3.609-3.667
						c1.533-0.874,3.262-1.312,5.188-1.312c1.925,0,3.642,0.438,5.148,1.312c1.508,0.874,2.686,2.097,3.534,3.667
						c0.849,1.571,1.273,3.369,1.273,5.396C1033.459,2062.006,1033.434,2062.372,1033.383,2062.828z M1019.114,2056.026
						c-1.179,1.063-1.869,2.458-2.071,4.18h12.92c-0.203-1.696-0.893-3.084-2.071-4.161c-1.178-1.076-2.641-1.615-4.389-1.615
						C1021.755,2054.43,1020.292,2054.962,1019.114,2056.026z"/>
					<path style="fill:#8282A8;" d="M1041.8,2070.58c-1.609-0.887-2.869-2.109-3.781-3.667s-1.368-3.325-1.368-5.301
						s0.456-3.743,1.368-5.302c0.912-1.558,2.172-2.773,3.781-3.647c1.608-0.874,3.438-1.312,5.491-1.312
						c1.823,0,3.451,0.368,4.883,1.103c1.431,0.735,2.539,1.8,3.325,3.192l-2.774,1.785c-0.634-0.962-1.419-1.684-2.355-2.166
						c-0.938-0.48-1.977-0.722-3.116-0.722c-1.318,0-2.502,0.292-3.554,0.874c-1.051,0.583-1.875,1.412-2.47,2.489
						c-0.596,1.077-0.893,2.312-0.893,3.705c0,1.419,0.297,2.667,0.893,3.743c0.595,1.076,1.419,1.906,2.47,2.488
						c1.052,0.584,2.236,0.875,3.554,0.875c1.14,0,2.179-0.241,3.116-0.723c0.936-0.48,1.722-1.203,2.355-2.166l2.774,1.748
						c-0.786,1.394-1.895,2.464-3.325,3.211c-1.432,0.748-3.06,1.121-4.883,1.121
						C1045.238,2071.91,1043.408,2071.467,1041.8,2070.58z"/>
					<path style="fill:#8282A8;" d="M1071.801,2070.504c-0.532,0.456-1.191,0.805-1.976,1.045c-0.785,0.24-1.596,0.361-2.432,0.361
						c-2.027,0-3.598-0.545-4.712-1.634c-1.115-1.089-1.672-2.647-1.672-4.675v-11.058h-3.42v-3.002h3.42v-4.407h3.647v4.407h5.776
						v3.002h-5.776v10.906c0,1.089,0.273,1.925,0.818,2.508c0.544,0.583,1.323,0.874,2.337,0.874c1.114,0,2.065-0.316,2.85-0.949
						L1071.801,2070.504z"/>
					<path style="fill:#8282A8;" d="M1093.65,2062.828h-16.34c0.228,1.773,1.007,3.199,2.337,4.275
						c1.33,1.076,2.983,1.615,4.959,1.615c2.406,0,4.345-0.811,5.814-2.433l2.015,2.356c-0.912,1.063-2.046,1.875-3.401,2.432
						c-1.355,0.558-2.869,0.836-4.541,0.836c-2.128,0-4.016-0.438-5.662-1.311c-1.646-0.875-2.92-2.096-3.818-3.668
						c-0.899-1.57-1.35-3.344-1.35-5.319c0-1.95,0.438-3.711,1.312-5.282c0.874-1.57,2.077-2.793,3.609-3.667
						c1.533-0.874,3.262-1.312,5.188-1.312c1.925,0,3.642,0.438,5.148,1.312c1.508,0.874,2.686,2.097,3.534,3.667
						c0.849,1.571,1.273,3.369,1.273,5.396C1093.726,2062.006,1093.701,2062.372,1093.65,2062.828z M1079.382,2056.026
						c-1.179,1.063-1.869,2.458-2.071,4.18h12.92c-0.203-1.696-0.892-3.084-2.071-4.161c-1.178-1.076-2.641-1.615-4.389-1.615
						C1082.022,2054.43,1080.559,2054.962,1079.382,2056.026z"/>
					<path style="fill:#8282A8;" d="M1110.104,2070.504c-0.532,0.456-1.191,0.805-1.977,1.045c-0.785,0.24-1.596,0.361-2.432,0.361
						c-2.027,0-3.598-0.545-4.712-1.634c-1.115-1.089-1.672-2.647-1.672-4.675v-11.058h-3.42v-3.002h3.42v-4.407h3.647v4.407h5.776
						v3.002h-5.776v10.906c0,1.089,0.273,1.925,0.818,2.508c0.544,0.583,1.323,0.874,2.337,0.874c1.114,0,2.065-0.316,2.85-0.949
						L1110.104,2070.504z"/>
					<path style="fill:#8282A8;" d="M1133.284,2051.542v20.14h-3.458v-3.039c-0.735,1.039-1.704,1.843-2.907,2.412
						c-1.204,0.57-2.515,0.855-3.933,0.855c-2.686,0-4.801-0.741-6.346-2.223c-1.546-1.482-2.318-3.668-2.318-6.555v-11.591h3.648
						v11.173c0,1.95,0.469,3.426,1.406,4.426c0.937,1.002,2.279,1.502,4.027,1.502c1.926,0,3.445-0.583,4.56-1.748
						c1.114-1.166,1.672-2.813,1.672-4.94v-10.412H1133.284z"/>
					<path style="fill:#8282A8;" d="M1146.545,2052.264c1.241-0.607,2.749-0.912,4.522-0.912v3.535
						c-0.203-0.025-0.481-0.039-0.836-0.039c-1.977,0-3.528,0.59-4.655,1.768c-1.127,1.178-1.69,2.856-1.69,5.035v10.031h-3.648
						v-20.14h3.496v3.382C1144.366,2053.76,1145.304,2052.872,1146.545,2052.264z"/>
					<path style="fill:#8282A8;" d="M1179.775,2053.404c1.481,1.367,2.223,3.407,2.223,6.117v12.16h-3.458v-2.66
						c-0.608,0.938-1.476,1.654-2.603,2.147c-1.128,0.494-2.465,0.741-4.01,0.741c-2.255,0-4.06-0.545-5.415-1.634
						c-1.355-1.089-2.032-2.521-2.032-4.294s0.646-3.198,1.938-4.275c1.292-1.076,3.344-1.615,6.156-1.615h5.775v-0.722
						c0-1.57-0.455-2.774-1.367-3.61s-2.256-1.254-4.028-1.254c-1.191,0-2.357,0.197-3.496,0.59
						c-1.14,0.393-2.103,0.918-2.888,1.576l-1.521-2.736c1.039-0.836,2.28-1.475,3.725-1.918c1.443-0.443,2.976-0.666,4.598-0.666
						C1176.158,2051.352,1178.293,2052.036,1179.775,2053.404z M1176.146,2068.167c1.013-0.62,1.748-1.501,2.203-2.641v-2.812
						h-5.623c-3.092,0-4.637,1.039-4.637,3.115c0,1.014,0.393,1.812,1.179,2.395c0.784,0.582,1.874,0.873,3.268,0.873
						C1173.929,2069.098,1175.133,2068.788,1176.146,2068.167z"/>
					<path style="fill:#8282A8;" d="M1207.875,2043.486v28.195h-3.496v-3.191c-0.811,1.115-1.837,1.963-3.078,2.546
						c-1.241,0.583-2.609,0.874-4.104,0.874c-1.951,0-3.699-0.431-5.244-1.292c-1.546-0.86-2.755-2.071-3.629-3.629
						c-0.874-1.558-1.312-3.351-1.312-5.377s0.438-3.813,1.312-5.358c0.874-1.545,2.083-2.748,3.629-3.609
						c1.545-0.861,3.293-1.293,5.244-1.293c1.443,0,2.774,0.273,3.989,0.817c1.217,0.546,2.229,1.349,3.04,2.413v-11.096H1207.875z
						 M1200.959,2067.825c1.038-0.595,1.849-1.431,2.432-2.509c0.583-1.076,0.874-2.311,0.874-3.704s-0.291-2.628-0.874-3.705
						s-1.394-1.906-2.432-2.489c-1.039-0.582-2.191-0.874-3.458-0.874c-1.292,0-2.451,0.292-3.476,0.874
						c-1.026,0.583-1.838,1.412-2.433,2.489c-0.596,1.077-0.893,2.312-0.893,3.705s0.297,2.628,0.893,3.704
						c0.595,1.078,1.406,1.914,2.433,2.509c1.025,0.596,2.184,0.894,3.476,0.894
						C1198.767,2068.719,1199.92,2068.421,1200.959,2067.825z"/>
					<path style="fill:#8282A8;" d="M1214.848,2046.982c-0.469-0.456-0.703-1.014-0.703-1.672s0.234-1.223,0.703-1.691
						c0.469-0.469,1.058-0.703,1.768-0.703c0.709,0,1.298,0.223,1.767,0.665c0.469,0.444,0.703,0.995,0.703,1.653
						c0,0.684-0.234,1.26-0.703,1.729s-1.058,0.703-1.767,0.703C1215.905,2047.666,1215.316,2047.438,1214.848,2046.982z
						 M1214.791,2051.542h3.648v20.14h-3.648V2051.542z"/>
					<path style="fill:#8282A8;" d="M1241.314,2052.645c1.545,0.861,2.755,2.064,3.629,3.609c0.874,1.546,1.311,3.332,1.311,5.358
						s-0.438,3.819-1.311,5.377c-0.874,1.558-2.084,2.769-3.629,3.629c-1.546,0.861-3.293,1.292-5.244,1.292
						c-1.443,0-2.768-0.278-3.971-0.836c-1.203-0.557-2.223-1.368-3.059-2.432v10.412h-3.649v-27.513h3.496v3.192
						c0.811-1.115,1.836-1.957,3.078-2.527c1.24-0.57,2.608-0.855,4.104-0.855
						C1238.021,2051.352,1239.768,2051.783,1241.314,2052.645z M1239.243,2067.825c1.026-0.595,1.837-1.431,2.433-2.509
						c0.595-1.076,0.893-2.311,0.893-3.704s-0.298-2.628-0.893-3.705c-0.596-1.077-1.406-1.906-2.433-2.489
						c-1.025-0.582-2.184-0.874-3.476-0.874c-1.268,0-2.413,0.298-3.44,0.894c-1.025,0.596-1.837,1.425-2.432,2.488
						c-0.596,1.064-0.893,2.293-0.893,3.687s0.291,2.628,0.874,3.704c0.582,1.078,1.393,1.914,2.432,2.509
						c1.038,0.596,2.19,0.894,3.458,0.894C1237.059,2068.719,1238.218,2068.421,1239.243,2067.825z"/>
					<path style="fill:#8282A8;" d="M1251.365,2046.982c-0.469-0.456-0.703-1.014-0.703-1.672s0.234-1.223,0.703-1.691
						c0.469-0.469,1.057-0.703,1.768-0.703c0.709,0,1.298,0.223,1.767,0.665c0.469,0.444,0.703,0.995,0.703,1.653
						c0,0.684-0.234,1.26-0.703,1.729c-0.469,0.469-1.058,0.703-1.767,0.703C1252.423,2047.666,1251.834,2047.438,1251.365,2046.982
						z M1251.309,2051.542h3.648v20.14h-3.648V2051.542z"/>
					<path style="fill:#8282A8;" d="M1262.937,2071.245c-1.521-0.442-2.712-1.007-3.572-1.69l1.52-2.889
						c0.887,0.634,1.963,1.141,3.23,1.52c1.267,0.381,2.546,0.57,3.838,0.57c3.193,0,4.788-0.912,4.788-2.736
						c0-0.607-0.216-1.088-0.647-1.443c-0.431-0.354-0.969-0.613-1.614-0.779c-0.646-0.164-1.565-0.348-2.755-0.551
						c-1.622-0.253-2.945-0.545-3.972-0.874c-1.026-0.329-1.906-0.886-2.641-1.672c-0.735-0.785-1.103-1.888-1.103-3.306
						c0-1.824,0.761-3.287,2.28-4.389c1.521-1.103,3.559-1.654,6.118-1.654c1.343,0,2.684,0.166,4.028,0.494
						c1.342,0.33,2.444,0.773,3.306,1.33l-1.558,2.889c-1.647-1.064-3.586-1.596-5.814-1.596c-1.546,0-2.724,0.253-3.534,0.76
						c-0.811,0.507-1.216,1.178-1.216,2.014c0,0.659,0.229,1.178,0.684,1.559c0.456,0.379,1.019,0.658,1.691,0.836
						c0.671,0.177,1.615,0.379,2.831,0.607c1.621,0.279,2.932,0.576,3.933,0.893c1.001,0.317,1.855,0.855,2.565,1.615
						c0.709,0.76,1.063,1.824,1.063,3.192c0,1.823-0.778,3.274-2.337,4.351c-1.558,1.077-3.68,1.615-6.364,1.615
						C1266.039,2071.91,1264.456,2071.688,1262.937,2071.245z"/>
					<path style="fill:#8282A8;" d="M1284.235,2070.58c-1.609-0.887-2.869-2.109-3.781-3.667s-1.368-3.325-1.368-5.301
						s0.456-3.743,1.368-5.302c0.912-1.558,2.172-2.773,3.781-3.647c1.608-0.874,3.438-1.312,5.491-1.312
						c1.823,0,3.451,0.368,4.883,1.103c1.431,0.735,2.539,1.8,3.325,3.192l-2.774,1.785c-0.634-0.962-1.419-1.684-2.355-2.166
						c-0.938-0.48-1.977-0.722-3.116-0.722c-1.317,0-2.502,0.292-3.554,0.874c-1.051,0.583-1.875,1.412-2.47,2.489
						c-0.596,1.077-0.893,2.312-0.893,3.705c0,1.419,0.297,2.667,0.893,3.743c0.595,1.076,1.419,1.906,2.47,2.488
						c1.052,0.584,2.236,0.875,3.554,0.875c1.14,0,2.179-0.241,3.116-0.723c0.937-0.48,1.722-1.203,2.355-2.166l2.774,1.748
						c-0.786,1.394-1.895,2.464-3.325,3.211c-1.432,0.748-3.059,1.121-4.883,1.121
						C1287.674,2071.91,1285.844,2071.467,1284.235,2070.58z"/>
					<path style="fill:#8282A8;" d="M1302.703,2046.982c-0.469-0.456-0.703-1.014-0.703-1.672s0.234-1.223,0.703-1.691
						c0.469-0.469,1.057-0.703,1.768-0.703c0.709,0,1.298,0.223,1.767,0.665c0.469,0.444,0.703,0.995,0.703,1.653
						c0,0.684-0.234,1.26-0.703,1.729c-0.469,0.469-1.058,0.703-1.767,0.703C1303.761,2047.666,1303.172,2047.438,1302.703,2046.982
						z M1302.646,2051.542h3.649v20.14h-3.649V2051.542z"/>
					<path style="fill:#8282A8;" d="M1330.101,2053.575c1.508,1.481,2.262,3.654,2.262,6.517v11.59h-3.649v-11.172
						c0-1.95-0.469-3.42-1.406-4.408c-0.938-0.987-2.279-1.481-4.027-1.481c-1.976,0-3.534,0.577-4.674,1.729
						c-1.141,1.152-1.71,2.806-1.71,4.959v10.373h-3.648v-20.14h3.496v3.04c0.734-1.039,1.729-1.836,2.982-2.395
						c1.255-0.557,2.68-0.836,4.275-0.836C1326.56,2051.352,1328.594,2052.094,1330.101,2053.575z"/>
					<path style="fill:#8282A8;" d="M1358.506,2051.542v17.404c0,3.521-0.874,6.124-2.622,7.81
						c-1.748,1.684-4.358,2.526-7.827,2.526c-1.9,0-3.712-0.261-5.435-0.779c-1.723-0.52-3.116-1.261-4.18-2.223l1.748-2.812
						c0.936,0.811,2.096,1.449,3.477,1.918c1.381,0.469,2.806,0.703,4.275,0.703c2.355,0,4.098-0.557,5.225-1.672
						c1.127-1.115,1.691-2.813,1.691-5.092v-1.596c-0.861,1.039-1.919,1.818-3.173,2.336c-1.254,0.52-2.616,0.779-4.085,0.779
						c-1.926,0-3.667-0.411-5.226-1.234c-1.558-0.823-2.78-1.977-3.667-3.458c-0.887-1.482-1.33-3.173-1.33-5.073
						s0.443-3.591,1.33-5.072c0.887-1.482,2.109-2.629,3.667-3.439c1.559-0.811,3.3-1.217,5.226-1.217
						c1.52,0,2.932,0.279,4.236,0.836c1.305,0.559,2.375,1.382,3.211,2.471v-3.116H1358.506z M1351.571,2066.818
						c1.051-0.557,1.874-1.336,2.47-2.338c0.595-1,0.893-2.133,0.893-3.4c0-1.95-0.646-3.527-1.938-4.73s-2.951-1.806-4.978-1.806
						c-2.053,0-3.725,0.603-5.017,1.806s-1.938,2.78-1.938,4.73c0,1.268,0.297,2.4,0.893,3.4c0.595,1.002,1.419,1.781,2.47,2.338
						c1.052,0.557,2.248,0.836,3.592,0.836C1349.335,2067.654,1350.52,2067.375,1351.571,2066.818z"/>
					<path style="fill:#8282A8;" d="M650.085,2117.828h-16.34c0.228,1.773,1.007,3.199,2.337,4.275
						c1.33,1.076,2.983,1.615,4.959,1.615c2.407,0,4.345-0.811,5.814-2.433l2.014,2.356c-0.912,1.063-2.046,1.875-3.401,2.432
						c-1.356,0.558-2.869,0.836-4.541,0.836c-2.128,0-4.016-0.438-5.662-1.311c-1.647-0.875-2.92-2.096-3.819-3.668
						c-0.899-1.57-1.349-3.344-1.349-5.319c0-1.95,0.438-3.711,1.311-5.282c0.873-1.57,2.077-2.793,3.61-3.667
						c1.532-0.874,3.261-1.312,5.188-1.312c1.924,0,3.642,0.438,5.148,1.312c1.507,0.874,2.685,2.097,3.534,3.667
						c0.848,1.571,1.273,3.369,1.273,5.396C650.161,2117.006,650.135,2117.372,650.085,2117.828z M635.815,2111.026
						c-1.178,1.063-1.868,2.458-2.071,4.18h12.92c-0.203-1.696-0.893-3.084-2.071-4.161c-1.178-1.076-2.641-1.615-4.388-1.615
						C638.456,2109.43,636.994,2109.962,635.815,2111.026z"/>
					<path style="fill:#8282A8;" d="M655.214,2098.486h3.648v28.195h-3.648V2098.486z"/>
					<path style="fill:#8282A8;" d="M665.873,2101.982c-0.469-0.456-0.703-1.014-0.703-1.672s0.234-1.223,0.703-1.691
						c0.468-0.469,1.058-0.703,1.767-0.703c0.708,0,1.298,0.223,1.767,0.665c0.469,0.444,0.703,0.995,0.703,1.653
						c0,0.684-0.234,1.26-0.703,1.729c-0.468,0.469-1.058,0.703-1.767,0.703C666.931,2102.666,666.341,2102.438,665.873,2101.982z
						 M665.816,2106.542h3.648v20.14h-3.648V2106.542z"/>
					<path style="fill:#8282A8;" d="M687.742,2125.504c-0.532,0.456-1.191,0.805-1.977,1.045s-1.596,0.361-2.432,0.361
						c-2.027,0-3.598-0.545-4.712-1.634c-1.116-1.089-1.672-2.647-1.672-4.675v-11.058h-3.42v-3.002h3.42v-4.407h3.648v4.407h5.776
						v3.002h-5.776v10.906c0,1.089,0.272,1.925,0.817,2.508c0.544,0.583,1.324,0.874,2.337,0.874c1.114,0,2.065-0.316,2.85-0.949
						L687.742,2125.504z"/>
					<path style="fill:#8282A8;" d="M695.208,2122.445c0.469,0.494,0.703,1.108,0.703,1.843c0,0.38-0.044,0.747-0.133,1.103
						c-0.089,0.354-0.26,0.898-0.513,1.633l-1.786,5.283h-2.394l1.406-5.662c-0.481-0.178-0.868-0.476-1.159-0.894
						c-0.292-0.418-0.437-0.905-0.437-1.463c0-0.76,0.24-1.38,0.722-1.862c0.48-0.48,1.089-0.722,1.824-0.722
						C694.15,2121.704,694.739,2121.951,695.208,2122.445z"/>
					<path style="fill:#8282A8;" d="M712.402,2126.245c-1.52-0.442-2.711-1.007-3.571-1.69l1.52-2.889
						c0.886,0.634,1.963,1.141,3.23,1.52c1.266,0.381,2.545,0.57,3.837,0.57c3.192,0,4.788-0.912,4.788-2.736
						c0-0.607-0.216-1.088-0.646-1.443c-0.431-0.354-0.969-0.613-1.615-0.779c-0.646-0.164-1.564-0.348-2.755-0.551
						c-1.622-0.253-2.945-0.545-3.971-0.874c-1.025-0.329-1.906-0.886-2.641-1.672c-0.735-0.785-1.102-1.888-1.102-3.306
						c0-1.824,0.759-3.287,2.279-4.389c1.521-1.103,3.559-1.654,6.118-1.654c1.342,0,2.686,0.166,4.028,0.494
						c1.343,0.33,2.445,0.773,3.306,1.33l-1.558,2.889c-1.647-1.064-3.585-1.596-5.814-1.596c-1.545,0-2.724,0.253-3.534,0.76
						c-0.811,0.507-1.216,1.178-1.216,2.014c0,0.659,0.228,1.178,0.684,1.559c0.456,0.379,1.019,0.658,1.691,0.836
						c0.671,0.177,1.615,0.379,2.831,0.607c1.622,0.279,2.932,0.576,3.934,0.893c1,0.317,1.855,0.855,2.564,1.615
						s1.064,1.824,1.064,3.192c0,1.823-0.779,3.274-2.336,4.351c-1.559,1.077-3.681,1.615-6.366,1.615
						C715.505,2126.91,713.922,2126.688,712.402,2126.245z"/>
					<path style="fill:#8282A8;" d="M748.539,2117.828H732.2c0.228,1.773,1.007,3.199,2.337,4.275
						c1.33,1.076,2.983,1.615,4.959,1.615c2.406,0,4.344-0.811,5.814-2.433l2.014,2.356c-0.912,1.063-2.046,1.875-3.401,2.432
						c-1.355,0.558-2.869,0.836-4.541,0.836c-2.128,0-4.015-0.438-5.662-1.311c-1.647-0.875-2.92-2.096-3.819-3.668
						c-0.899-1.57-1.349-3.344-1.349-5.319c0-1.95,0.438-3.711,1.312-5.282c0.873-1.57,2.076-2.793,3.609-3.667
						c1.532-0.874,3.262-1.312,5.188-1.312c1.925,0,3.642,0.438,5.148,1.312c1.507,0.874,2.685,2.097,3.534,3.667
						c0.848,1.571,1.273,3.369,1.273,5.396C748.616,2117.006,748.59,2117.372,748.539,2117.828z M734.271,2111.026
						c-1.178,1.063-1.869,2.458-2.071,4.18h12.92c-0.203-1.696-0.893-3.084-2.071-4.161c-1.178-1.076-2.641-1.615-4.388-1.615
						C736.912,2109.43,735.449,2109.962,734.271,2111.026z"/>
					<path style="fill:#8282A8;" d="M772.669,2098.486v28.195h-3.496v-3.191c-0.811,1.115-1.837,1.963-3.078,2.546
						c-1.241,0.583-2.609,0.874-4.104,0.874c-1.951,0-3.698-0.431-5.244-1.292c-1.546-0.86-2.755-2.071-3.629-3.629
						c-0.874-1.558-1.311-3.351-1.311-5.377s0.437-3.813,1.311-5.358c0.874-1.545,2.083-2.748,3.629-3.609
						c1.545-0.861,3.293-1.293,5.244-1.293c1.444,0,2.774,0.273,3.99,0.817c1.216,0.546,2.229,1.349,3.04,2.413v-11.096H772.669z
						 M765.753,2122.825c1.039-0.595,1.849-1.431,2.432-2.509c0.583-1.076,0.874-2.311,0.874-3.704s-0.291-2.628-0.874-3.705
						s-1.393-1.906-2.432-2.489c-1.039-0.582-2.191-0.874-3.458-0.874c-1.292,0-2.451,0.292-3.477,0.874
						c-1.025,0.583-1.837,1.412-2.432,2.489c-0.595,1.077-0.893,2.312-0.893,3.705s0.297,2.628,0.893,3.704
						c0.595,1.078,1.407,1.914,2.432,2.509c1.026,0.596,2.185,0.894,3.477,0.894
						C763.562,2123.719,764.714,2123.421,765.753,2122.825z"/>
					<path style="fill:#8282A8;" d="M807.933,2117.828h-16.34c0.228,1.773,1.007,3.199,2.337,4.275
						c1.331,1.076,2.983,1.615,4.959,1.615c2.406,0,4.344-0.811,5.814-2.433l2.014,2.356c-0.912,1.063-2.046,1.875-3.401,2.432
						c-1.355,0.558-2.868,0.836-4.541,0.836c-2.128,0-4.015-0.438-5.661-1.311c-1.648-0.875-2.921-2.096-3.82-3.668
						c-0.899-1.57-1.349-3.344-1.349-5.319c0-1.95,0.437-3.711,1.311-5.282c0.874-1.57,2.077-2.793,3.61-3.667
						c1.532-0.874,3.261-1.312,5.187-1.312c1.925,0,3.642,0.438,5.149,1.312c1.507,0.874,2.685,2.097,3.534,3.667
						c0.848,1.571,1.273,3.369,1.273,5.396C808.009,2117.006,807.983,2117.372,807.933,2117.828z M793.664,2111.026
						c-1.178,1.063-1.869,2.458-2.071,4.18h12.92c-0.203-1.696-0.893-3.084-2.071-4.161c-1.178-1.076-2.641-1.615-4.389-1.615
						S794.842,2109.962,793.664,2111.026z"/>
					<path style="fill:#8282A8;" d="M813.12,2101.982c-0.469-0.456-0.703-1.014-0.703-1.672s0.234-1.223,0.703-1.691
						c0.468-0.469,1.057-0.703,1.767-0.703c0.708,0,1.298,0.223,1.767,0.665c0.469,0.444,0.703,0.995,0.703,1.653
						c0,0.684-0.234,1.26-0.703,1.729c-0.469,0.469-1.058,0.703-1.767,0.703C814.177,2102.666,813.588,2102.438,813.12,2101.982z
						 M813.063,2106.542h3.648v20.14h-3.648V2106.542z"/>
					<path style="fill:#8282A8;" d="M842.436,2106.542v20.14h-3.458v-3.039c-0.735,1.039-1.704,1.843-2.907,2.412
						c-1.203,0.57-2.515,0.855-3.933,0.855c-2.686,0-4.802-0.741-6.347-2.223c-1.545-1.482-2.318-3.668-2.318-6.555v-11.591h3.648
						v11.173c0,1.95,0.468,3.426,1.405,4.426c0.937,1.002,2.281,1.502,4.028,1.502c1.925,0,3.445-0.583,4.56-1.748
						c1.114-1.166,1.672-2.813,1.672-4.94v-10.412H842.436z"/>
					<path style="fill:#8282A8;" d="M850.415,2126.245c-1.52-0.442-2.71-1.007-3.572-1.69l1.521-2.889
						c0.886,0.634,1.962,1.141,3.229,1.52c1.267,0.381,2.546,0.57,3.838,0.57c3.192,0,4.788-0.912,4.788-2.736
						c0-0.607-0.216-1.088-0.646-1.443c-0.431-0.354-0.969-0.613-1.615-0.779c-0.646-0.164-1.565-0.348-2.755-0.551
						c-1.622-0.253-2.945-0.545-3.971-0.874c-1.026-0.329-1.906-0.886-2.641-1.672c-0.735-0.785-1.102-1.888-1.102-3.306
						c0-1.824,0.76-3.287,2.28-4.389c1.52-1.103,3.559-1.654,6.118-1.654c1.343,0,2.685,0.166,4.028,0.494
						c1.343,0.33,2.445,0.773,3.306,1.33l-1.558,2.889c-1.647-1.064-3.585-1.596-5.814-1.596c-1.545,0-2.724,0.253-3.534,0.76
						c-0.811,0.507-1.216,1.178-1.216,2.014c0,0.659,0.228,1.178,0.685,1.559c0.456,0.379,1.019,0.658,1.69,0.836
						c0.671,0.177,1.615,0.379,2.831,0.607c1.621,0.279,2.933,0.576,3.934,0.893c1,0.317,1.855,0.855,2.565,1.615
						c0.709,0.76,1.064,1.824,1.064,3.192c0,1.823-0.779,3.274-2.337,4.351c-1.558,1.077-3.68,1.615-6.365,1.615
						C853.518,2126.91,851.935,2126.688,850.415,2126.245z"/>
					<path style="fill:#8282A8;" d="M899.644,2108.557c1.482,1.469,2.223,3.647,2.223,6.535v11.59h-3.648v-11.172
						c0-1.95-0.45-3.42-1.349-4.408c-0.899-0.987-2.185-1.481-3.857-1.481c-1.85,0-3.319,0.577-4.408,1.729
						c-1.09,1.152-1.634,2.806-1.634,4.959v10.373h-3.648v-11.172c0-1.95-0.45-3.42-1.349-4.408
						c-0.899-0.987-2.185-1.481-3.857-1.481c-1.85,0-3.319,0.577-4.407,1.729c-1.09,1.152-1.635,2.806-1.635,4.959v10.373h-3.648
						v-20.14h3.496v3.002c0.734-1.038,1.697-1.829,2.888-2.375c1.19-0.544,2.546-0.817,4.066-0.817c1.57,0,2.964,0.318,4.18,0.951
						c1.216,0.633,2.152,1.558,2.811,2.773c0.76-1.165,1.817-2.077,3.174-2.736c1.354-0.658,2.881-0.988,4.579-0.988
						C896.154,2106.352,898.162,2107.088,899.644,2108.557z"/>
					<path style="fill:#8282A8;" d="M911.936,2125.58c-1.596-0.887-2.844-2.109-3.743-3.667s-1.349-3.325-1.349-5.301
						s0.449-3.743,1.349-5.302c0.899-1.558,2.147-2.773,3.743-3.647c1.596-0.874,3.395-1.312,5.396-1.312
						c2.001,0,3.793,0.438,5.377,1.312c1.583,0.874,2.824,2.09,3.724,3.647c0.899,1.559,1.349,3.326,1.349,5.302
						s-0.45,3.743-1.349,5.301c-0.9,1.558-2.141,2.78-3.724,3.667c-1.584,0.887-3.376,1.33-5.377,1.33
						C915.331,2126.91,913.533,2126.467,911.936,2125.58z M920.81,2122.825c1.026-0.595,1.83-1.431,2.413-2.509
						c0.583-1.076,0.874-2.311,0.874-3.704s-0.291-2.628-0.874-3.705s-1.387-1.906-2.413-2.489
						c-1.025-0.582-2.185-0.874-3.477-0.874c-1.292,0-2.451,0.292-3.477,0.874c-1.025,0.583-1.837,1.412-2.432,2.489
						s-0.893,2.312-0.893,3.705s0.297,2.628,0.893,3.704c0.595,1.078,1.407,1.914,2.432,2.509c1.026,0.596,2.185,0.894,3.477,0.894
						C918.625,2123.719,919.784,2123.421,920.81,2122.825z"/>
					<path style="fill:#8282A8;" d="M951.836,2098.486v28.195h-3.496v-3.191c-0.811,1.115-1.837,1.963-3.078,2.546
						c-1.241,0.583-2.61,0.874-4.104,0.874c-1.951,0-3.698-0.431-5.244-1.292c-1.546-0.86-2.755-2.071-3.629-3.629
						c-0.874-1.558-1.311-3.351-1.311-5.377s0.437-3.813,1.311-5.358c0.873-1.545,2.083-2.748,3.629-3.609
						c1.545-0.861,3.293-1.293,5.244-1.293c1.444,0,2.774,0.273,3.99,0.817c1.216,0.546,2.229,1.349,3.04,2.413v-11.096H951.836z
						 M944.92,2122.825c1.038-0.595,1.849-1.431,2.432-2.509c0.583-1.076,0.874-2.311,0.874-3.704s-0.292-2.628-0.874-3.705
						c-0.583-1.077-1.394-1.906-2.432-2.489c-1.039-0.582-2.191-0.874-3.458-0.874c-1.292,0-2.452,0.292-3.478,0.874
						c-1.025,0.583-1.837,1.412-2.432,2.489c-0.595,1.077-0.893,2.312-0.893,3.705s0.297,2.628,0.893,3.704
						c0.595,1.078,1.407,1.914,2.432,2.509c1.026,0.596,2.185,0.894,3.478,0.894C942.729,2123.719,943.881,2123.421,944.92,2122.825
						z"/>
					<path style="fill:#8282A8;" d="M980.298,2125.504c-0.532,0.456-1.191,0.805-1.976,1.045c-0.786,0.24-1.597,0.361-2.433,0.361
						c-2.026,0-3.598-0.545-4.712-1.634c-1.115-1.089-1.672-2.647-1.672-4.675v-11.058h-3.42v-3.002h3.42v-4.407h3.648v4.407h5.776
						v3.002h-5.776v10.906c0,1.089,0.272,1.925,0.817,2.508c0.545,0.583,1.323,0.874,2.337,0.874c1.114,0,2.065-0.316,2.85-0.949
						L980.298,2125.504z"/>
					<path style="fill:#8282A8;" d="M1002.146,2117.828h-16.339c0.228,1.773,1.006,3.199,2.336,4.275s2.983,1.615,4.959,1.615
						c2.407,0,4.344-0.811,5.814-2.433l2.014,2.356c-0.912,1.063-2.046,1.875-3.401,2.432c-1.356,0.558-2.869,0.836-4.541,0.836
						c-2.128,0-4.016-0.438-5.662-1.311c-1.647-0.875-2.92-2.096-3.819-3.668c-0.899-1.57-1.349-3.344-1.349-5.319
						c0-1.95,0.438-3.711,1.311-5.282c0.873-1.57,2.077-2.793,3.61-3.667c1.532-0.874,3.261-1.312,5.187-1.312
						c1.925,0,3.642,0.438,5.148,1.312c1.507,0.874,2.686,2.097,3.534,3.667c0.848,1.571,1.272,3.369,1.272,5.396
						C1002.223,2117.006,1002.197,2117.372,1002.146,2117.828z M987.878,2111.026c-1.178,1.063-1.868,2.458-2.07,4.18h12.919
						c-0.203-1.696-0.893-3.084-2.071-4.161c-1.178-1.076-2.64-1.615-4.388-1.615
						C990.519,2109.43,989.056,2109.962,987.878,2111.026z"/>
					<path style="fill:#8282A8;" d="M1038.493,2108.557c1.483,1.469,2.224,3.647,2.224,6.535v11.59h-3.648v-11.172
						c0-1.95-0.45-3.42-1.349-4.408c-0.899-0.987-2.186-1.481-3.857-1.481c-1.85,0-3.319,0.577-4.408,1.729
						c-1.089,1.152-1.634,2.806-1.634,4.959v10.373h-3.648v-11.172c0-1.95-0.449-3.42-1.349-4.408
						c-0.899-0.987-2.185-1.481-3.856-1.481c-1.85,0-3.319,0.577-4.408,1.729c-1.09,1.152-1.634,2.806-1.634,4.959v10.373h-3.648
						v-20.14h3.496v3.002c0.734-1.038,1.697-1.829,2.888-2.375c1.19-0.544,2.546-0.817,4.066-0.817c1.57,0,2.964,0.318,4.18,0.951
						s2.153,1.558,2.812,2.773c0.76-1.165,1.818-2.077,3.173-2.736c1.354-0.658,2.881-0.988,4.579-0.988
						C1035.003,2106.352,1037.012,2107.088,1038.493,2108.557z"/>
					<path style="fill:#8282A8;" d="M1063.364,2107.645c1.545,0.861,2.755,2.064,3.629,3.609c0.874,1.546,1.312,3.332,1.312,5.358
						s-0.438,3.819-1.312,5.377c-0.874,1.558-2.084,2.769-3.629,3.629c-1.546,0.861-3.293,1.292-5.244,1.292
						c-1.443,0-2.768-0.278-3.971-0.836c-1.203-0.557-2.223-1.368-3.059-2.432v10.412h-3.649v-27.513h3.496v3.192
						c0.811-1.115,1.836-1.957,3.078-2.527c1.24-0.57,2.608-0.855,4.104-0.855
						C1060.071,2106.352,1061.818,2106.783,1063.364,2107.645z M1061.293,2122.825c1.026-0.595,1.837-1.431,2.433-2.509
						c0.595-1.076,0.892-2.311,0.892-3.704s-0.298-2.628-0.892-3.705c-0.596-1.077-1.406-1.906-2.433-2.489
						c-1.025-0.582-2.184-0.874-3.476-0.874c-1.268,0-2.413,0.298-3.44,0.894c-1.025,0.596-1.837,1.425-2.432,2.488
						c-0.596,1.064-0.893,2.293-0.893,3.687s0.291,2.628,0.874,3.704c0.582,1.078,1.393,1.914,2.432,2.509
						c1.038,0.596,2.19,0.894,3.458,0.894C1059.108,2123.719,1060.267,2123.421,1061.293,2122.825z"/>
					<path style="fill:#8282A8;" d="M1076.589,2125.58c-1.597-0.887-2.845-2.109-3.743-3.667c-0.899-1.558-1.35-3.325-1.35-5.301
						s0.45-3.743,1.35-5.302c0.898-1.558,2.146-2.773,3.743-3.647c1.596-0.874,3.394-1.312,5.396-1.312
						c2.001,0,3.794,0.438,5.377,1.312s2.824,2.09,3.724,3.647c0.899,1.559,1.35,3.326,1.35,5.302s-0.45,3.743-1.35,5.301
						s-2.141,2.78-3.724,3.667s-3.376,1.33-5.377,1.33C1079.982,2126.91,1078.184,2126.467,1076.589,2125.58z M1085.461,2122.825
						c1.026-0.595,1.83-1.431,2.413-2.509c0.583-1.076,0.874-2.311,0.874-3.704s-0.291-2.628-0.874-3.705s-1.387-1.906-2.413-2.489
						c-1.026-0.582-2.185-0.874-3.477-0.874s-2.451,0.292-3.476,0.874c-1.026,0.583-1.838,1.412-2.433,2.489
						c-0.596,1.077-0.893,2.312-0.893,3.705s0.297,2.628,0.893,3.704c0.595,1.078,1.406,1.914,2.433,2.509
						c1.025,0.596,2.184,0.894,3.476,0.894S1084.435,2123.421,1085.461,2122.825z"/>
					<path style="fill:#8282A8;" d="M1103.796,2107.264c1.241-0.607,2.749-0.912,4.522-0.912v3.535
						c-0.203-0.025-0.481-0.039-0.836-0.039c-1.977,0-3.528,0.59-4.655,1.768c-1.127,1.178-1.69,2.856-1.69,5.035v10.031h-3.649
						v-20.14h3.496v3.382C1101.617,2108.76,1102.555,2107.872,1103.796,2107.264z"/>
					<path style="fill:#8282A8;" d="M1123.346,2101.982c-0.469-0.456-0.703-1.014-0.703-1.672s0.234-1.223,0.703-1.691
						c0.469-0.469,1.058-0.703,1.767-0.703c0.709,0,1.298,0.223,1.767,0.665c0.469,0.444,0.703,0.995,0.703,1.653
						c0,0.684-0.234,1.26-0.703,1.729c-0.469,0.469-1.058,0.703-1.767,0.703C1124.403,2102.666,1123.814,2102.438,1123.346,2101.982
						z M1123.289,2106.542h3.649v20.14h-3.649V2106.542z"/>
					<path style="fill:#8282A8;" d="M1150.743,2108.575c1.508,1.481,2.262,3.654,2.262,6.517v11.59h-3.648v-11.172
						c0-1.95-0.469-3.42-1.406-4.408c-0.938-0.987-2.279-1.481-4.027-1.481c-1.976,0-3.534,0.577-4.674,1.729
						c-1.141,1.152-1.71,2.806-1.71,4.959v10.373h-3.648v-20.14h3.496v3.04c0.734-1.039,1.729-1.836,2.982-2.395
						c1.255-0.557,2.68-0.836,4.275-0.836C1147.203,2106.352,1149.236,2107.094,1150.743,2108.575z"/>
					<path style="fill:#8282A8;" d="M1163.17,2125.58c-1.609-0.887-2.869-2.109-3.781-3.667s-1.368-3.325-1.368-5.301
						s0.456-3.743,1.368-5.302c0.912-1.558,2.172-2.773,3.781-3.647c1.608-0.874,3.438-1.312,5.491-1.312
						c1.823,0,3.451,0.368,4.883,1.103c1.431,0.735,2.539,1.8,3.325,3.192l-2.774,1.785c-0.634-0.962-1.419-1.684-2.356-2.166
						c-0.938-0.48-1.976-0.722-3.116-0.722c-1.317,0-2.502,0.292-3.554,0.874c-1.051,0.583-1.875,1.412-2.47,2.489
						c-0.596,1.077-0.893,2.312-0.893,3.705c0,1.419,0.297,2.667,0.893,3.743c0.595,1.076,1.419,1.906,2.47,2.488
						c1.052,0.584,2.236,0.875,3.554,0.875c1.14,0,2.179-0.241,3.116-0.723c0.937-0.48,1.722-1.203,2.356-2.166l2.774,1.748
						c-0.786,1.394-1.895,2.464-3.325,3.211c-1.432,0.748-3.06,1.121-4.883,1.121
						C1166.608,2126.91,1164.778,2126.467,1163.17,2125.58z"/>
					<path style="fill:#8282A8;" d="M1181.638,2101.982c-0.469-0.456-0.703-1.014-0.703-1.672s0.234-1.223,0.703-1.691
						c0.469-0.469,1.058-0.703,1.767-0.703c0.709,0,1.298,0.223,1.767,0.665c0.469,0.444,0.703,0.995,0.703,1.653
						c0,0.684-0.234,1.26-0.703,1.729c-0.469,0.469-1.058,0.703-1.767,0.703C1182.695,2102.666,1182.106,2102.438,1181.638,2101.982
						z M1181.581,2106.542h3.649v20.14h-3.649V2106.542z"/>
					<path style="fill:#8282A8;" d="M1211.183,2098.486v28.195h-3.496v-3.191c-0.811,1.115-1.837,1.963-3.078,2.546
						s-2.609,0.874-4.104,0.874c-1.951,0-3.699-0.431-5.244-1.292c-1.546-0.86-2.755-2.071-3.629-3.629
						c-0.874-1.558-1.312-3.351-1.312-5.377s0.438-3.813,1.312-5.358c0.874-1.545,2.083-2.748,3.629-3.609
						c1.545-0.861,3.293-1.293,5.244-1.293c1.443,0,2.774,0.273,3.989,0.817c1.217,0.546,2.23,1.349,3.04,2.413v-11.096H1211.183z
						 M1204.267,2122.825c1.038-0.595,1.849-1.431,2.432-2.509c0.583-1.076,0.874-2.311,0.874-3.704s-0.291-2.628-0.874-3.705
						c-0.583-1.077-1.393-1.906-2.432-2.489c-1.039-0.582-2.191-0.874-3.458-0.874c-1.292,0-2.451,0.292-3.477,0.874
						c-1.026,0.583-1.838,1.412-2.433,2.489c-0.596,1.077-0.893,2.312-0.893,3.705s0.297,2.628,0.893,3.704
						c0.595,1.078,1.406,1.914,2.433,2.509c1.025,0.596,2.185,0.894,3.477,0.894
						C1202.075,2123.719,1203.228,2123.421,1204.267,2122.825z"/>
					<path style="fill:#8282A8;" d="M1218.155,2101.982c-0.469-0.456-0.703-1.014-0.703-1.672s0.234-1.223,0.703-1.691
						c0.469-0.469,1.058-0.703,1.768-0.703c0.709,0,1.298,0.223,1.767,0.665c0.469,0.444,0.703,0.995,0.703,1.653
						c0,0.684-0.234,1.26-0.703,1.729c-0.469,0.469-1.057,0.703-1.767,0.703C1219.213,2102.666,1218.624,2102.438,1218.155,2101.982
						z M1218.099,2106.542h3.648v20.14h-3.648V2106.542z"/>
					<path style="fill:#8282A8;" d="M1247.7,2098.486v28.195h-3.496v-3.191c-0.811,1.115-1.837,1.963-3.078,2.546
						c-1.241,0.583-2.609,0.874-4.104,0.874c-1.951,0-3.699-0.431-5.244-1.292c-1.546-0.86-2.755-2.071-3.629-3.629
						s-1.312-3.351-1.312-5.377s0.438-3.813,1.312-5.358c0.874-1.545,2.083-2.748,3.629-3.609c1.545-0.861,3.293-1.293,5.244-1.293
						c1.443,0,2.774,0.273,3.989,0.817c1.217,0.546,2.229,1.349,3.04,2.413v-11.096H1247.7z M1240.784,2122.825
						c1.038-0.595,1.849-1.431,2.432-2.509c0.583-1.076,0.874-2.311,0.874-3.704s-0.291-2.628-0.874-3.705s-1.394-1.906-2.432-2.489
						c-1.039-0.582-2.191-0.874-3.458-0.874c-1.292,0-2.451,0.292-3.476,0.874c-1.026,0.583-1.838,1.412-2.433,2.489
						c-0.596,1.077-0.893,2.312-0.893,3.705s0.297,2.628,0.893,3.704c0.595,1.078,1.406,1.914,2.433,2.509
						c1.025,0.596,2.184,0.894,3.476,0.894C1238.593,2123.719,1239.745,2123.421,1240.784,2122.825z"/>
					<path style="fill:#8282A8;" d="M1273.389,2106.542v20.14h-3.458v-3.039c-0.735,1.039-1.704,1.843-2.907,2.412
						c-1.204,0.57-2.515,0.855-3.934,0.855c-2.685,0-4.801-0.741-6.346-2.223c-1.546-1.482-2.318-3.668-2.318-6.555v-11.591h3.649
						v11.173c0,1.95,0.469,3.426,1.406,4.426c0.937,1.002,2.279,1.502,4.027,1.502c1.926,0,3.445-0.583,4.561-1.748
						c1.114-1.166,1.672-2.813,1.672-4.94v-10.412H1273.389z"/>
					<path style="fill:#8282A8;" d="M1297.194,2108.575c1.508,1.481,2.262,3.654,2.262,6.517v11.59h-3.648v-11.172
						c0-1.95-0.469-3.42-1.406-4.408c-0.938-0.987-2.279-1.481-4.027-1.481c-1.977,0-3.534,0.577-4.674,1.729
						c-1.141,1.152-1.71,2.806-1.71,4.959v10.373h-3.648v-20.14h3.496v3.04c0.734-1.039,1.729-1.836,2.982-2.395
						c1.255-0.557,2.68-0.836,4.275-0.836C1293.654,2106.352,1295.688,2107.094,1297.194,2108.575z"/>
					<path style="fill:#8282A8;" d="M1317.544,2125.504c-0.532,0.456-1.191,0.805-1.977,1.045c-0.785,0.24-1.596,0.361-2.432,0.361
						c-2.027,0-3.598-0.545-4.712-1.634c-1.115-1.089-1.672-2.647-1.672-4.675v-11.058h-3.42v-3.002h3.42v-4.407h3.648v4.407h5.776
						v3.002h-5.776v10.906c0,1.089,0.272,1.925,0.817,2.508c0.544,0.583,1.323,0.874,2.337,0.874c1.114,0,2.064-0.316,2.85-0.949
						L1317.544,2125.504z"/>
					<path style="fill:#8282A8;" d="M1350.945,2106.542v20.14h-3.458v-3.039c-0.735,1.039-1.704,1.843-2.907,2.412
						c-1.204,0.57-2.515,0.855-3.934,0.855c-2.686,0-4.801-0.741-6.346-2.223c-1.546-1.482-2.318-3.668-2.318-6.555v-11.591h3.648
						v11.173c0,1.95,0.469,3.426,1.406,4.426c0.937,1.002,2.279,1.502,4.027,1.502c1.926,0,3.445-0.583,4.561-1.748
						c1.114-1.166,1.672-2.813,1.672-4.94v-10.412H1350.945z"/>
					<path style="fill:#8282A8;" d="M1369.223,2125.504c-0.532,0.456-1.191,0.805-1.976,1.045c-0.785,0.24-1.596,0.361-2.432,0.361
						c-2.027,0-3.598-0.545-4.712-1.634c-1.115-1.089-1.672-2.647-1.672-4.675v-11.058h-3.42v-3.002h3.42v-4.407h3.648v4.407h5.776
						v3.002h-5.776v10.906c0,1.089,0.272,1.925,0.817,2.508c0.544,0.583,1.323,0.874,2.337,0.874c1.114,0,2.064-0.316,2.85-0.949
						L1369.223,2125.504z"/>
					<path style="fill:#8282A8;" d="M631.958,2153.486h3.648v28.195h-3.648V2153.486z"/>
					<path style="fill:#8282A8;" d="M656.297,2163.404c1.482,1.367,2.223,3.407,2.223,6.117v12.16h-3.458v-2.66
						c-0.608,0.938-1.476,1.654-2.603,2.147c-1.127,0.494-2.464,0.741-4.009,0.741c-2.255,0-4.06-0.545-5.415-1.634
						c-1.355-1.089-2.033-2.521-2.033-4.294s0.646-3.198,1.938-4.275c1.292-1.076,3.344-1.615,6.157-1.615h5.776v-0.722
						c0-1.57-0.456-2.774-1.369-3.61c-0.911-0.836-2.255-1.254-4.027-1.254c-1.191,0-2.356,0.197-3.496,0.59
						c-1.141,0.393-2.104,0.918-2.888,1.576l-1.52-2.736c1.038-0.836,2.279-1.475,3.723-1.918c1.444-0.443,2.977-0.666,4.598-0.666
						C652.681,2161.352,654.815,2162.036,656.297,2163.404z M652.668,2178.167c1.013-0.62,1.748-1.501,2.204-2.641v-2.812h-5.625
						c-3.091,0-4.636,1.039-4.636,3.115c0,1.014,0.393,1.812,1.178,2.395c0.785,0.582,1.875,0.873,3.269,0.873
						C650.451,2179.098,651.654,2178.788,652.668,2178.167z"/>
					<path style="fill:#8282A8;" d="M681.206,2162.645c1.545,0.861,2.754,2.064,3.629,3.609c0.874,1.546,1.311,3.332,1.311,5.358
						s-0.437,3.819-1.311,5.377c-0.875,1.558-2.084,2.769-3.629,3.629c-1.546,0.861-3.294,1.292-5.244,1.292
						c-1.495,0-2.863-0.291-4.104-0.874c-1.242-0.583-2.268-1.431-3.078-2.546v3.191h-3.496v-28.195h3.647v11.096
						c0.811-1.064,1.824-1.867,3.04-2.413c1.216-0.544,2.546-0.817,3.99-0.817C677.912,2161.352,679.66,2161.783,681.206,2162.645z
						 M679.135,2177.825c1.025-0.595,1.836-1.431,2.432-2.509c0.594-1.076,0.893-2.311,0.893-3.704s-0.298-2.628-0.893-3.705
						c-0.596-1.077-1.407-1.906-2.432-2.489c-1.026-0.582-2.185-0.874-3.477-0.874c-1.267,0-2.419,0.292-3.458,0.874
						c-1.039,0.583-1.849,1.412-2.432,2.489c-0.583,1.077-0.874,2.312-0.874,3.705s0.291,2.628,0.874,3.704
						c0.583,1.078,1.393,1.914,2.432,2.509c1.039,0.596,2.191,0.894,3.458,0.894C676.95,2178.719,678.109,2178.421,679.135,2177.825
						z"/>
					<path style="fill:#8282A8;" d="M694.43,2180.58c-1.597-0.887-2.845-2.109-3.744-3.667c-0.899-1.558-1.349-3.325-1.349-5.301
						s0.449-3.743,1.349-5.302c0.899-1.558,2.147-2.773,3.744-3.647c1.596-0.874,3.394-1.312,5.396-1.312
						c2.001,0,3.793,0.438,5.377,1.312c1.583,0.874,2.825,2.09,3.725,3.647c0.898,1.559,1.349,3.326,1.349,5.302
						s-0.45,3.743-1.349,5.301c-0.9,1.558-2.142,2.78-3.725,3.667c-1.583,0.887-3.376,1.33-5.377,1.33
						C697.824,2181.91,696.025,2181.467,694.43,2180.58z M703.302,2177.825c1.026-0.595,1.83-1.431,2.413-2.509
						c0.583-1.076,0.874-2.311,0.874-3.704s-0.292-2.628-0.874-3.705c-0.583-1.077-1.387-1.906-2.413-2.489
						c-1.025-0.582-2.185-0.874-3.477-0.874s-2.451,0.292-3.477,0.874c-1.025,0.583-1.837,1.412-2.432,2.489
						c-0.595,1.077-0.893,2.312-0.893,3.705s0.297,2.628,0.893,3.704c0.595,1.078,1.407,1.914,2.432,2.509
						c1.026,0.596,2.185,0.894,3.477,0.894S702.277,2178.421,703.302,2177.825z"/>
					<path style="fill:#8282A8;" d="M721.637,2162.264c1.241-0.607,2.748-0.912,4.522-0.912v3.535
						c-0.203-0.025-0.481-0.039-0.836-0.039c-1.976,0-3.528,0.59-4.655,1.768c-1.127,1.178-1.691,2.856-1.691,5.035v10.031h-3.648
						v-20.14h3.496v3.382C719.458,2163.76,720.396,2162.872,721.637,2162.264z"/>
					<path style="fill:#8282A8;" d="M748.579,2172.828h-16.34c0.229,1.773,1.007,3.199,2.337,4.275
						c1.33,1.076,2.983,1.615,4.959,1.615c2.406,0,4.345-0.811,5.815-2.433l2.014,2.356c-0.912,1.063-2.046,1.875-3.401,2.432
						c-1.356,0.558-2.869,0.836-4.541,0.836c-2.128,0-4.015-0.438-5.661-1.311c-1.648-0.875-2.92-2.096-3.82-3.668
						c-0.899-1.57-1.349-3.344-1.349-5.319c0-1.95,0.437-3.711,1.311-5.282c0.874-1.57,2.077-2.793,3.61-3.667
						c1.532-0.874,3.261-1.312,5.187-1.312c1.925,0,3.642,0.438,5.149,1.312c1.507,0.874,2.685,2.097,3.534,3.667
						c0.848,1.571,1.273,3.369,1.273,5.396C748.655,2172.006,748.63,2172.372,748.579,2172.828z M734.31,2166.026
						c-1.178,1.063-1.869,2.458-2.071,4.18h12.92c-0.203-1.696-0.893-3.084-2.071-4.161c-1.178-1.076-2.64-1.615-4.389-1.615
						C736.951,2164.43,735.488,2164.962,734.31,2166.026z"/>
					<path style="fill:#8282A8;" d="M782.057,2172.828h-16.34c0.228,1.773,1.007,3.199,2.337,4.275
						c1.33,1.076,2.983,1.615,4.959,1.615c2.406,0,4.344-0.811,5.814-2.433l2.014,2.356c-0.912,1.063-2.046,1.875-3.401,2.432
						c-1.356,0.558-2.869,0.836-4.541,0.836c-2.128,0-4.015-0.438-5.662-1.311c-1.648-0.875-2.92-2.096-3.819-3.668
						c-0.899-1.57-1.349-3.344-1.349-5.319c0-1.95,0.437-3.711,1.311-5.282c0.874-1.57,2.077-2.793,3.61-3.667
						c1.533-0.874,3.261-1.312,5.187-1.312c1.925,0,3.642,0.438,5.149,1.312c1.506,0.874,2.685,2.097,3.534,3.667
						c0.848,1.571,1.273,3.369,1.273,5.396C782.133,2172.006,782.107,2172.372,782.057,2172.828z M767.788,2166.026
						c-1.178,1.063-1.869,2.458-2.071,4.18h12.92c-0.203-1.696-0.893-3.084-2.071-4.161c-1.178-1.076-2.641-1.615-4.389-1.615
						C770.429,2164.43,768.966,2164.962,767.788,2166.026z"/>
					<path style="fill:#8282A8;" d="M798.511,2180.504c-0.532,0.456-1.191,0.805-1.976,1.045c-0.786,0.24-1.597,0.361-2.433,0.361
						c-2.026,0-3.598-0.545-4.712-1.634c-1.115-1.089-1.672-2.647-1.672-4.675v-11.058h-3.42v-3.002h3.42v-4.407h3.648v4.407h5.776
						v3.002h-5.776v10.906c0,1.089,0.272,1.925,0.817,2.508c0.544,0.583,1.323,0.874,2.337,0.874c1.115,0,2.064-0.316,2.85-0.949
						L798.511,2180.504z"/>
					<path style="fill:#8282A8;" d="M832.14,2153.486v28.195h-3.496v-3.191c-0.811,1.115-1.837,1.963-3.078,2.546
						c-1.241,0.583-2.609,0.874-4.104,0.874c-1.951,0-3.699-0.431-5.244-1.292c-1.546-0.86-2.755-2.071-3.629-3.629
						c-0.874-1.558-1.311-3.351-1.311-5.377s0.437-3.813,1.311-5.358c0.874-1.545,2.083-2.748,3.629-3.609
						c1.545-0.861,3.293-1.293,5.244-1.293c1.444,0,2.774,0.273,3.99,0.817c1.216,0.546,2.229,1.349,3.04,2.413v-11.096H832.14z
						 M825.224,2177.825c1.039-0.595,1.849-1.431,2.432-2.509c0.582-1.076,0.875-2.311,0.875-3.704s-0.292-2.628-0.875-3.705
						c-0.583-1.077-1.393-1.906-2.432-2.489c-1.039-0.582-2.191-0.874-3.458-0.874c-1.292,0-2.451,0.292-3.477,0.874
						c-1.026,0.583-1.837,1.412-2.433,2.489s-0.893,2.312-0.893,3.705s0.297,2.628,0.893,3.704c0.595,1.078,1.406,1.914,2.433,2.509
						c1.025,0.596,2.185,0.894,3.477,0.894C823.032,2178.719,824.185,2178.421,825.224,2177.825z"/>
					<path style="fill:#8282A8;" d="M842.285,2180.58c-1.596-0.887-2.844-2.109-3.743-3.667c-0.899-1.558-1.349-3.325-1.349-5.301
						s0.449-3.743,1.349-5.302c0.899-1.558,2.147-2.773,3.743-3.647s3.395-1.312,5.396-1.312c2.002,0,3.794,0.438,5.378,1.312
						c1.583,0.874,2.824,2.09,3.724,3.647c0.899,1.559,1.349,3.326,1.349,5.302s-0.45,3.743-1.349,5.301
						c-0.899,1.558-2.141,2.78-3.724,3.667c-1.584,0.887-3.376,1.33-5.378,1.33C845.68,2181.91,843.881,2181.467,842.285,2180.58z
						 M851.158,2177.825c1.026-0.595,1.83-1.431,2.413-2.509c0.583-1.076,0.874-2.311,0.874-3.704s-0.292-2.628-0.874-3.705
						c-0.583-1.077-1.387-1.906-2.413-2.489c-1.026-0.582-2.185-0.874-3.477-0.874s-2.451,0.292-3.477,0.874
						c-1.026,0.583-1.837,1.412-2.432,2.489c-0.596,1.077-0.893,2.312-0.893,3.705s0.297,2.628,0.893,3.704
						c0.595,1.078,1.406,1.914,2.432,2.509c1.026,0.596,2.185,0.894,3.477,0.894S850.132,2178.421,851.158,2177.825z"/>
					<path style="fill:#8282A8;" d="M863.185,2153.486h3.648v28.195h-3.648V2153.486z"/>
					<path style="fill:#8282A8;" d="M877.017,2180.58c-1.596-0.887-2.844-2.109-3.743-3.667c-0.899-1.558-1.349-3.325-1.349-5.301
						s0.449-3.743,1.349-5.302c0.899-1.558,2.147-2.773,3.743-3.647c1.597-0.874,3.394-1.312,5.396-1.312
						c2.001,0,3.793,0.438,5.377,1.312c1.583,0.874,2.825,2.09,3.724,3.647c0.899,1.559,1.35,3.326,1.35,5.302
						s-0.451,3.743-1.35,5.301c-0.899,1.558-2.141,2.78-3.724,3.667c-1.583,0.887-3.375,1.33-5.377,1.33
						C880.411,2181.91,878.613,2181.467,877.017,2180.58z M885.89,2177.825c1.026-0.595,1.83-1.431,2.413-2.509
						c0.583-1.076,0.874-2.311,0.874-3.704s-0.292-2.628-0.874-3.705c-0.583-1.077-1.387-1.906-2.413-2.489
						c-1.025-0.582-2.185-0.874-3.477-0.874c-1.292,0-2.451,0.292-3.477,0.874c-1.025,0.583-1.837,1.412-2.432,2.489
						c-0.595,1.077-0.893,2.312-0.893,3.705s0.297,2.628,0.893,3.704c0.595,1.078,1.407,1.914,2.432,2.509
						c1.026,0.596,2.185,0.894,3.477,0.894C883.705,2178.719,884.864,2178.421,885.89,2177.825z"/>
					<path style="fill:#8282A8;" d="M904.225,2162.264c1.241-0.607,2.749-0.912,4.522-0.912v3.535
						c-0.204-0.025-0.481-0.039-0.836-0.039c-1.976,0-3.528,0.59-4.655,1.768c-1.128,1.178-1.691,2.856-1.691,5.035v10.031h-3.648
						v-20.14h3.497v3.382C902.045,2163.76,902.983,2162.872,904.225,2162.264z"/>
					<path style="fill:#8282A8;" d="M931.166,2172.828h-16.34c0.229,1.773,1.007,3.199,2.337,4.275
						c1.33,1.076,2.983,1.615,4.959,1.615c2.406,0,4.344-0.811,5.813-2.433l2.014,2.356c-0.912,1.063-2.046,1.875-3.401,2.432
						c-1.355,0.558-2.868,0.836-4.541,0.836c-2.128,0-4.015-0.438-5.661-1.311c-1.648-0.875-2.921-2.096-3.82-3.668
						c-0.899-1.57-1.349-3.344-1.349-5.319c0-1.95,0.437-3.711,1.311-5.282c0.874-1.57,2.077-2.793,3.61-3.667
						c1.532-0.874,3.261-1.312,5.186-1.312c1.925,0,3.642,0.438,5.149,1.312s2.685,2.097,3.534,3.667
						c0.848,1.571,1.273,3.369,1.273,5.396C931.242,2172.006,931.216,2172.372,931.166,2172.828z M916.897,2166.026
						c-1.178,1.063-1.869,2.458-2.071,4.18h12.92c-0.203-1.696-0.893-3.084-2.071-4.161c-1.177-1.076-2.641-1.615-4.389-1.615
						C919.539,2164.43,918.075,2164.962,916.897,2166.026z"/>
					<path style="fill:#8282A8;" d="M977.734,2163.557c1.482,1.469,2.223,3.647,2.223,6.535v11.59h-3.648v-11.172
						c0-1.95-0.45-3.42-1.349-4.408c-0.899-0.987-2.185-1.481-3.857-1.481c-1.85,0-3.318,0.577-4.407,1.729
						c-1.09,1.152-1.635,2.806-1.635,4.959v10.373h-3.647v-11.172c0-1.95-0.45-3.42-1.35-4.408
						c-0.899-0.987-2.185-1.481-3.857-1.481c-1.85,0-3.319,0.577-4.408,1.729c-1.09,1.152-1.634,2.806-1.634,4.959v10.373h-3.648
						v-20.14h3.496v3.002c0.734-1.038,1.697-1.829,2.888-2.375c1.19-0.544,2.546-0.817,4.066-0.817c1.571,0,2.964,0.318,4.18,0.951
						c1.217,0.633,2.153,1.558,2.813,2.773c0.76-1.165,1.817-2.077,3.173-2.736c1.354-0.658,2.881-0.988,4.579-0.988
						C974.245,2161.352,976.252,2162.088,977.734,2163.557z"/>
					<path style="fill:#8282A8;" d="M1000.42,2163.404c1.481,1.367,2.223,3.407,2.223,6.117v12.16h-3.457v-2.66
						c-0.608,0.938-1.476,1.654-2.603,2.147c-1.127,0.494-2.464,0.741-4.009,0.741c-2.255,0-4.06-0.545-5.415-1.634
						c-1.356-1.089-2.033-2.521-2.033-4.294s0.646-3.198,1.938-4.275c1.292-1.076,3.344-1.615,6.156-1.615h5.776v-0.722
						c0-1.57-0.456-2.774-1.368-3.61c-0.912-0.836-2.254-1.254-4.027-1.254c-1.191,0-2.357,0.197-3.497,0.59
						c-1.14,0.393-2.103,0.918-2.888,1.576l-1.52-2.736c1.038-0.836,2.28-1.475,3.724-1.918c1.444-0.443,2.977-0.666,4.599-0.666
						C996.804,2161.352,998.938,2162.036,1000.42,2163.404z M996.791,2178.167c1.014-0.62,1.748-1.501,2.204-2.641v-2.812h-5.624
						c-3.091,0-4.636,1.039-4.636,3.115c0,1.014,0.393,1.812,1.179,2.395c0.785,0.582,1.875,0.873,3.268,0.873
						C994.574,2179.098,995.777,2178.788,996.791,2178.167z"/>
					<path style="fill:#8282A8;" d="M1028.786,2161.542v17.404c0,3.521-0.874,6.124-2.622,7.81
						c-1.748,1.684-4.357,2.526-7.827,2.526c-1.9,0-3.712-0.261-5.435-0.779c-1.723-0.52-3.116-1.261-4.18-2.223l1.748-2.812
						c0.936,0.811,2.096,1.449,3.477,1.918c1.381,0.469,2.806,0.703,4.275,0.703c2.355,0,4.098-0.557,5.225-1.672
						c1.127-1.115,1.691-2.813,1.691-5.092v-1.596c-0.861,1.039-1.919,1.818-3.173,2.336c-1.254,0.52-2.616,0.779-4.085,0.779
						c-1.926,0-3.667-0.411-5.226-1.234c-1.558-0.823-2.78-1.977-3.667-3.458c-0.887-1.482-1.33-3.173-1.33-5.073
						s0.443-3.591,1.33-5.072c0.887-1.482,2.109-2.629,3.667-3.439c1.559-0.811,3.3-1.217,5.226-1.217
						c1.52,0,2.932,0.279,4.236,0.836c1.305,0.559,2.375,1.382,3.211,2.471v-3.116H1028.786z M1021.852,2176.818
						c1.051-0.557,1.874-1.336,2.47-2.338c0.595-1,0.894-2.133,0.894-3.4c0-1.95-0.646-3.527-1.939-4.73
						c-1.292-1.203-2.951-1.806-4.978-1.806c-2.053,0-3.725,0.603-5.017,1.806s-1.938,2.78-1.938,4.73c0,1.268,0.297,2.4,0.893,3.4
						c0.595,1.002,1.419,1.781,2.47,2.338c1.052,0.557,2.248,0.836,3.592,0.836
						C1019.615,2177.654,1020.8,2177.375,1021.852,2176.818z"/>
					<path style="fill:#8282A8;" d="M1052.593,2163.575c1.508,1.481,2.262,3.654,2.262,6.517v11.59h-3.649v-11.172
						c0-1.95-0.469-3.42-1.406-4.408c-0.938-0.987-2.279-1.481-4.027-1.481c-1.976,0-3.534,0.577-4.674,1.729
						c-1.141,1.152-1.71,2.806-1.71,4.959v10.373h-3.648v-20.14h3.496v3.04c0.734-1.039,1.729-1.836,2.982-2.395
						c1.255-0.557,2.68-0.836,4.276-0.836C1049.053,2161.352,1051.086,2162.094,1052.593,2163.575z"/>
					<path style="fill:#8282A8;" d="M1075.355,2163.404c1.482,1.367,2.223,3.407,2.223,6.117v12.16h-3.458v-2.66
						c-0.608,0.938-1.476,1.654-2.603,2.147c-1.128,0.494-2.465,0.741-4.01,0.741c-2.255,0-4.06-0.545-5.415-1.634
						c-1.355-1.089-2.032-2.521-2.032-4.294s0.646-3.198,1.938-4.275c1.292-1.076,3.344-1.615,6.156-1.615h5.775v-0.722
						c0-1.57-0.455-2.774-1.367-3.61s-2.256-1.254-4.028-1.254c-1.191,0-2.356,0.197-3.496,0.59s-2.103,0.918-2.888,1.576
						l-1.521-2.736c1.039-0.836,2.28-1.475,3.725-1.918c1.443-0.443,2.976-0.666,4.598-0.666
						C1071.738,2161.352,1073.873,2162.036,1075.355,2163.404z M1071.726,2178.167c1.013-0.62,1.748-1.501,2.203-2.641v-2.812
						h-5.623c-3.092,0-4.637,1.039-4.637,3.115c0,1.014,0.393,1.812,1.179,2.395c0.784,0.582,1.874,0.873,3.268,0.873
						C1069.509,2179.098,1070.713,2178.788,1071.726,2178.167z"/>
					<path style="fill:#8282A8;" d="M1108.301,2163.404c1.482,1.367,2.223,3.407,2.223,6.117v12.16h-3.458v-2.66
						c-0.608,0.938-1.476,1.654-2.603,2.147c-1.128,0.494-2.465,0.741-4.01,0.741c-2.255,0-4.06-0.545-5.415-1.634
						c-1.355-1.089-2.032-2.521-2.032-4.294s0.646-3.198,1.938-4.275c1.292-1.076,3.344-1.615,6.156-1.615h5.775v-0.722
						c0-1.57-0.455-2.774-1.367-3.61s-2.256-1.254-4.028-1.254c-1.191,0-2.357,0.197-3.496,0.59
						c-1.14,0.393-2.103,0.918-2.888,1.576l-1.521-2.736c1.039-0.836,2.28-1.475,3.725-1.918c1.443-0.443,2.976-0.666,4.598-0.666
						C1104.684,2161.352,1106.818,2162.036,1108.301,2163.404z M1104.672,2178.167c1.013-0.62,1.748-1.501,2.203-2.641v-2.812
						h-5.623c-3.092,0-4.637,1.039-4.637,3.115c0,1.014,0.393,1.812,1.179,2.395c0.784,0.582,1.874,0.873,3.268,0.873
						C1102.454,2179.098,1103.658,2178.788,1104.672,2178.167z"/>
					<path style="fill:#8282A8;" d="M1117.287,2153.486h3.648v28.195h-3.648V2153.486z"/>
					<path style="fill:#8282A8;" d="M1127.945,2156.982c-0.469-0.456-0.703-1.014-0.703-1.672s0.234-1.223,0.703-1.691
						c0.469-0.469,1.058-0.703,1.768-0.703c0.709,0,1.298,0.223,1.767,0.665c0.469,0.444,0.703,0.995,0.703,1.653
						c0,0.684-0.234,1.26-0.703,1.729s-1.058,0.703-1.767,0.703C1129.003,2157.666,1128.414,2157.438,1127.945,2156.982z
						 M1127.889,2161.542h3.649v20.14h-3.649V2161.542z"/>
					<path style="fill:#8282A8;" d="M1157.49,2161.542v27.513h-3.648v-10.412c-0.836,1.063-1.855,1.875-3.059,2.432
						c-1.203,0.558-2.527,0.836-3.971,0.836c-1.951,0-3.699-0.431-5.244-1.292c-1.546-0.86-2.755-2.071-3.629-3.629
						c-0.874-1.558-1.311-3.351-1.311-5.377s0.438-3.813,1.311-5.358c0.874-1.545,2.083-2.748,3.629-3.609
						c1.545-0.861,3.293-1.293,5.244-1.293c1.494,0,2.862,0.285,4.104,0.855s2.268,1.412,3.078,2.527v-3.192H1157.49z
						 M1150.574,2177.825c1.038-0.595,1.849-1.431,2.432-2.509c0.583-1.076,0.874-2.311,0.874-3.704s-0.298-2.622-0.892-3.687
						c-0.596-1.063-1.406-1.893-2.432-2.488c-1.026-0.596-2.173-0.894-3.439-0.894c-1.292,0-2.451,0.292-3.477,0.874
						c-1.026,0.583-1.838,1.412-2.432,2.489c-0.596,1.077-0.893,2.312-0.893,3.705s0.297,2.628,0.893,3.704
						c0.595,1.078,1.406,1.914,2.432,2.509c1.026,0.596,2.185,0.894,3.477,0.894
						C1148.383,2178.719,1149.535,2178.421,1150.574,2177.825z"/>
					<path style="fill:#8282A8;" d="M1183.179,2161.542v20.14h-3.458v-3.039c-0.735,1.039-1.704,1.843-2.907,2.412
						c-1.204,0.57-2.515,0.855-3.934,0.855c-2.685,0-4.801-0.741-6.346-2.223c-1.546-1.482-2.318-3.668-2.318-6.555v-11.591h3.648
						v11.173c0,1.95,0.469,3.426,1.406,4.426c0.937,1.002,2.279,1.502,4.027,1.502c1.926,0,3.445-0.583,4.561-1.748
						c1.114-1.166,1.672-2.813,1.672-4.94v-10.412H1183.179z"/>
					<path style="fill:#8282A8;" d="M1203.869,2163.404c1.482,1.367,2.223,3.407,2.223,6.117v12.16h-3.458v-2.66
						c-0.608,0.938-1.476,1.654-2.603,2.147c-1.128,0.494-2.465,0.741-4.01,0.741c-2.255,0-4.059-0.545-5.415-1.634
						c-1.355-1.089-2.032-2.521-2.032-4.294s0.646-3.198,1.938-4.275c1.292-1.076,3.344-1.615,6.156-1.615h5.776v-0.722
						c0-1.57-0.455-2.774-1.367-3.61s-2.256-1.254-4.028-1.254c-1.191,0-2.356,0.197-3.496,0.59
						c-1.14,0.393-2.102,0.918-2.888,1.576l-1.521-2.736c1.039-0.836,2.28-1.475,3.725-1.918c1.443-0.443,2.977-0.666,4.598-0.666
						C1200.252,2161.352,1202.387,2162.036,1203.869,2163.404z M1200.24,2178.167c1.013-0.62,1.748-1.501,2.203-2.641v-2.812h-5.623
						c-3.092,0-4.637,1.039-4.637,3.115c0,1.014,0.392,1.812,1.179,2.395c0.784,0.582,1.874,0.873,3.267,0.873
						C1198.022,2179.098,1199.226,2178.788,1200.24,2178.167z"/>
					<path style="fill:#8282A8;" d="M1211.905,2181.169c-0.507-0.493-0.76-1.12-0.76-1.881c0-0.734,0.253-1.349,0.76-1.843
						c0.507-0.494,1.114-0.741,1.824-0.741c0.709,0,1.305,0.241,1.786,0.722c0.48,0.482,0.722,1.103,0.722,1.862
						c0,0.761-0.247,1.388-0.741,1.881c-0.493,0.494-1.083,0.741-1.767,0.741C1213.02,2181.91,1212.412,2181.663,1211.905,2181.169z
						"/>
				</g>
			</g>
		</g>
	</g>
</g>
<g id="Layer_1">
	<g>
		<path style="fill:#ECE1EF;" d="M1399.588,1454.704c-8.692-66.41,24.414-136.367,1.404-199.295
			c-7.307-19.985-19.832-37.579-30.04-56.261c-15.41-28.204-25.621-59.215-29.974-91.031c-2.847-20.814-3.222-42.008-7.964-62.476
			c-13.156-56.781-62.436-103.535-120.021-113.87c-46.408-8.329-95.993,2.333-136.46,26.468
			c-181.761,108.407-267.704,57.127-331.121,94.53c-39.749,23.443-61.929,67.036-76.707,110.615
			c-14.778,43.58-11.642,138.488-45.834,169.41c-9.165,8.289-19.611,15.174-28.107,24.142
			c-27.962,29.513-29.218,76.971-12.956,114.175c14.808,33.875,49.527,79.533,83.549,96.66c1.216,0.612,2.456,1.184,3.716,1.72
			h96.384c18.224-3.34,57.936,0.233,72.604-1.185c57.356-5.545,384.795,1.588,502.049,0.638
			c17.158-0.139,35.677-0.724,49.257-11.169c14.477-11.134,19.505-30.938,18.776-49.14
			C1407.414,1490.435,1401.952,1472.767,1399.588,1454.704z"/>
		<g>
			<path style="fill:#D6D6ED;" d="M1317.377,1547.748c-1.752,1.701-3.223,5.07-4.779,8.638c-1.264,2.896-2.622,6-4.432,9.065
				h-45.989c1.247-0.779,2.524-1.516,3.838-2.186c2.971-1.516,5.989-2.692,8.652-3.73c3.931-1.532,7.642-2.979,9.544-4.881
				c1.731-1.733,3.185-5.065,4.726-8.594c2.255-5.167,5.061-11.598,10.464-16.84c7.295-7.078,16.572-9.443,24.027-11.344
				c5.216-1.328,10.141-2.584,12.444-4.899c1.241-1.248,2.492-3.58,3.816-6.049c0.835-1.557,1.698-3.167,2.723-4.845
				c8.459-13.861,23.095-23.584,39.149-26.01c0.911-0.138,1.761-0.244,2.582-0.347c1.32-0.165,13.486-2.646,17.542,0.141l0,0
				c7.624,5.237,7.352,16.683-0.61,21.393c-0.915,0.542-1.882,1.042-2.904,1.487c-3.996,1.744-7.787,2.217-10.832,2.597
				c-0.688,0.086-1.339,0.167-1.919,0.255c-8.473,1.28-16.508,6.619-20.971,13.933c-0.65,1.064-1.31,2.296-2.01,3.599
				c-0.22,0.41-0.447,0.834-0.681,1.265l-11.363,0.381l8.203,4.942c-1.239,1.851-2.683,3.716-4.423,5.466
				c-7.327,7.364-16.776,9.774-24.37,11.709C1324.627,1544.214,1319.736,1545.46,1317.377,1547.748z"/>
			<path style="fill:#B1B1DE;" d="M1310.934,1507.93c-1.785,2.63-2.771,7.311-3.814,12.268c-1.555,7.381-3.316,15.747-8.556,23.721
				c-5.794,8.818-14.038,14.169-20.663,18.468c-1.616,1.05-3.177,2.063-4.616,3.065h-42.71c4.396-9.355,10.892-17.718,18.995-24.211
				c3.386-2.714,6.923-5.01,10.043-7.034c4.604-2.988,8.953-5.812,10.875-8.735c1.75-2.664,2.726-7.295,3.758-12.196
				c1.512-7.18,3.393-16.113,8.896-24.218c7.431-10.942,18.631-16.401,27.631-20.787c6.296-3.068,12.241-5.966,14.566-9.523
				c1.253-1.917,2.232-5.219,3.27-8.714c0.654-2.204,1.33-4.482,2.192-6.89c3.967-11.074,10.714-21.016,19.333-28.919l7.692,12.147
				l-3.389-15.799c5.847-4.59,12.388-8.303,19.4-10.893c1.124-0.416,2.178-0.774,3.198-1.122c1.639-0.558,16.489-6.926,22.392-4.444
				l0,0c8.131,3.418,11.729,12.201,9.572,19.839l-15.284,1.29l11.597,5.268c-0.324,0.351-0.661,0.695-1.024,1.026
				c-1.023,0.931-2.124,1.823-3.31,2.661c-4.633,3.275-9.339,4.877-13.12,6.164c-0.854,0.292-1.661,0.566-2.378,0.831
				c-10.459,3.864-19.292,12.785-23.053,23.281c-0.547,1.529-1.065,3.271-1.611,5.116c-0.852,2.873-1.821,6.138-3.201,9.515
				l-17.303,3.329l14.455,2.554c-0.409,0.717-0.843,1.431-1.306,2.141c-7.396,11.317-18.805,16.876-27.971,21.345
				C1319.241,1501.516,1313.337,1504.393,1310.934,1507.93z"/>
			<path style="fill:#8282A8;" d="M1323.873,1409.598c0.331,5.504,0.731,12.198-0.504,19.327
				c-8.891,5.005-26.253,14.788-24.273,13.734c1.855-0.987,14.657-3.957,22.155-5.646c-4.466,12.612-13.345,21.793-20.649,29.344
				c-5.646,5.835-10.979,11.347-12.206,16.188c-0.911,3.598-0.127,9.128,0.703,14.985c1.236,8.721,2.638,18.606,0.066,29.446
				c-2.845,11.989-9.761,21.148-15.317,28.508c-2.264,2.998-4.401,5.829-6.017,8.482c-0.297,0.487-0.578,0.984-0.852,1.486h-41.768
				c1.923-7.683,4.974-15.088,9.111-21.885c2.635-4.328,5.602-8.258,8.219-11.724c3.862-5.115,7.511-9.947,8.454-13.923
				c0.858-3.622,0.083-9.093-0.737-14.885c-1.203-8.482-2.699-19.038,0.11-30.127c3.794-14.972,13.91-25.429,22.04-33.831
				c5.687-5.877,11.058-11.428,12.191-16.26c0.611-2.604,0.37-6.618,0.115-10.868c-0.161-2.68-0.328-5.45-0.341-8.437
				c-0.102-23.066,9.664-45.756,26.324-61.637l7.667,3.383l-3.785-6.856c0.959-0.804,1.877-1.543,2.766-2.257
				c1.577-1.266,15.337-14.174,22.806-13.804l0,0c14.038,0.697,22.812,15.722,16.267,28.161c-0.752,1.43-1.605,2.848-2.572,4.24
				c-3.779,5.442-8.306,9.076-11.942,11.995c-0.822,0.661-1.599,1.284-2.279,1.86c-9.94,8.411-16.078,21.723-16.022,34.743
				C1323.611,1405.237,1323.738,1407.355,1323.873,1409.598z"/>
		</g>
		<g>
			<path style="fill:#D6D6ED;" d="M730.458,1556.189c1.968,1.486,3.86,4.678,5.865,8.059c1.626,2.743,3.374,5.685,5.569,8.53
				l46.074-5.728c-1.347-0.625-2.717-1.203-4.117-1.712c-3.165-1.148-6.336-1.951-9.133-2.659
				c-4.128-1.046-8.027-2.034-10.169-3.702c-1.951-1.521-3.823-4.679-5.805-8.021c-2.902-4.896-6.515-10.989-12.58-15.567
				c-8.19-6.183-17.78-7.397-25.485-8.372c-5.391-0.683-10.481-1.327-13.078-3.359c-1.399-1.096-2.943-3.276-4.577-5.585
				c-1.031-1.456-2.096-2.961-3.331-4.515c-10.201-12.833-26.074-20.752-42.462-21.183c-0.929-0.025-1.793-0.025-2.629-0.026
				c-1.344,0-13.841-0.971-17.558,2.326l0,0c-6.986,6.196-5.288,17.63,3.275,21.357c0.984,0.429,2.016,0.809,3.095,1.128
				c4.221,1.25,8.078,1.252,11.176,1.253c0.701,0.001,1.362,0.001,1.955,0.017c8.647,0.227,17.362,4.575,22.745,11.347
				c0.784,0.985,1.598,2.137,2.46,3.355c0.272,0.384,0.552,0.779,0.84,1.182l11.433-1.033l-7.604,5.973
				c1.472,1.7,3.151,3.39,5.112,4.925c8.258,6.467,18.025,7.703,25.874,8.697C722.755,1553.551,727.81,1554.19,730.458,1556.189z"/>
			<path style="fill:#B1B1DE;" d="M731.954,1515.494c2.116,2.412,3.687,6.979,5.35,11.814c2.477,7.202,5.284,15.364,11.525,22.7
				c6.904,8.113,15.83,12.447,23.002,15.93c1.75,0.85,3.439,1.671,5.006,2.496l42.79-5.319c-5.57-8.825-13.118-16.395-22.045-21.891
				c-3.731-2.297-7.56-4.156-10.938-5.797c-4.985-2.42-9.693-4.706-11.983-7.396c-2.085-2.451-3.639-6.969-5.284-11.752
				c-2.408-7.004-5.406-15.721-11.929-23.154c-8.807-10.037-20.708-14.111-30.271-17.385c-6.689-2.29-13.007-4.453-15.78-7.728
				c-1.494-1.765-2.887-4.95-4.361-8.323c-0.93-2.126-1.891-4.325-3.055-6.63c-5.354-10.601-13.351-19.721-22.971-26.565
				l-6.193,13.127l1.427-16.25c-6.429-3.87-13.444-6.775-20.792-8.497c-1.178-0.276-2.278-0.504-3.344-0.725
				c-1.711-0.355-17.382-4.885-22.987-1.664l0,0c-7.72,4.438-10.232,13.685-7.119,21.068l15.473-0.611l-10.962,6.722
				c0.369,0.311,0.749,0.615,1.154,0.9c1.142,0.806,2.355,1.562,3.647,2.253c5.049,2.706,9.963,3.724,13.912,4.542
				c0.893,0.185,1.735,0.36,2.486,0.536c10.96,2.569,20.92,10.406,25.995,20.454c0.739,1.463,1.474,3.145,2.252,4.924
				c1.211,2.771,2.589,5.922,4.393,9.133l17.749,1.181l-14.164,4.359c0.5,0.667,1.023,1.329,1.576,1.981
				c8.818,10.417,20.94,14.566,30.68,17.901C722.833,1510.103,729.106,1512.249,731.954,1515.494z"/>
			<path style="fill:#8282A8;" d="M706.745,1418.591c0.354,5.556,0.788,12.312,2.912,19.3c9.531,3.907,28.144,11.545,26.03,10.736
				c-1.981-0.757-15.177-2.139-22.9-2.897c6.045,12.079,16.084,20.172,24.343,26.827c6.383,5.143,12.413,10.001,14.245,14.697
				c1.361,3.491,1.265,9.13,1.162,15.101c-0.152,8.892-0.326,18.97,3.601,29.51c4.343,11.657,12.412,19.972,18.896,26.652
				c2.642,2.722,5.136,5.293,7.084,7.749c0.358,0.451,0.703,0.915,1.04,1.383l41.845-5.201c-2.883-7.458-6.862-14.497-11.854-20.79
				c-3.179-4.01-6.641-7.576-9.695-10.724c-4.507-4.643-8.763-9.029-10.204-12.896c-1.311-3.521-1.216-9.1-1.115-15.005
				c0.149-8.647,0.333-19.409-3.863-30.168c-5.665-14.528-17.103-23.744-26.294-31.148c-6.43-5.18-12.502-10.073-14.24-14.772
				c-0.936-2.532-1.195-6.584-1.468-10.874c-0.172-2.704-0.351-5.501-0.709-8.495c-2.771-23.122-15.38-44.637-34.049-58.473
				l-7.26,4.344l2.938-7.34c-1.061-0.687-2.073-1.313-3.053-1.917c-1.737-1.072-17.131-12.291-24.567-10.99l0,0
				c-13.978,2.447-20.895,18.592-12.79,30.24c0.932,1.339,1.962,2.653,3.104,3.927c4.464,4.982,9.452,8.059,13.459,10.53
				c0.906,0.559,1.761,1.087,2.515,1.579c11.005,7.188,18.813,19.761,20.377,32.813
				C706.464,1414.188,706.601,1416.327,706.745,1418.591z"/>
		</g>
		<path style="fill:#3E3D51;" d="M1398.511,1572.286H644.006c-2.169,0-3.928-1.759-3.928-3.929l0,0c0-2.17,1.759-3.928,3.928-3.928
			h754.504c2.17,0,3.929,1.758,3.929,3.928l0,0C1402.439,1570.527,1400.681,1572.286,1398.511,1572.286z"/>
		<g>
			<path style="fill:#FFC0BB;" d="M847.644,1137.284l-0.295-11.505l-16.369,3.373l-0.963,7.585
				C831.264,1137.984,837.925,1143.885,847.644,1137.284z"/>
			<path style="fill:#FC8D84;" d="M847.605,1135.744l-0.256-9.965l-16.606,5.165l-0.467,3.734
				C833.961,1136.015,840.964,1137.64,847.605,1135.744z"/>
			<path style="fill:#F99893;" d="M858.664,1104.995c-0.944,2.875,0.216,5.799,2.59,6.531c2.374,0.732,5.063-1.005,6.007-3.88
				c0.943-2.875-0.216-5.798-2.591-6.53C862.297,1100.384,859.607,1102.121,858.664,1104.995z"/>
			<path style="fill:#FFC0BB;" d="M859.175,1121.351c0.617-1.256,1.118-2.577,1.493-3.947c1.083-3.688,1.466-7.545,1.526-10.888
				c0.013-0.718,0.069-1.432,0.139-2.146c0.281-2.884,0.023-5.899-0.921-8.949c-3.037-9.81-12.545-16.648-23.115-16.598
				c-14.24,0.067-25.056,11.789-23.959,25.175c-1.568-0.694-3.271-0.751-4.704,0.005c-2.749,1.451-3.458,5.327-1.584,8.656
				c1.874,3.329,5.621,4.851,8.37,3.4c0.382-0.202,0.72-0.454,1.021-0.741c2.131,11.298,12.485,19.353,24.023,18.283
				c5.643-0.523,10.577-3.139,14.134-7.017c0.24-0.229,0.491-0.494,0.752-0.8C857.495,1124.44,858.42,1122.938,859.175,1121.351z"/>
			<path style="fill:#333333;" d="M837.646,1104.643c0.111,1.12-0.736,2.115-1.892,2.222c-1.156,0.107-2.183-0.714-2.294-1.834
				c-0.111-1.12,0.736-2.115,1.892-2.222C836.507,1102.703,837.534,1103.523,837.646,1104.643z"/>
			<path style="fill:#333333;" d="M854.151,1103.841c0.111,1.12-0.736,2.114-1.892,2.222c-1.156,0.107-2.183-0.714-2.294-1.834
				c-0.111-1.12,0.736-2.115,1.892-2.222S854.04,1102.721,854.151,1103.841z"/>
			<path style="fill:#333343;" d="M839.773,1100.387c-1.065-0.313-2.076-0.552-3.081-0.684c-1.002-0.133-1.987-0.139-2.943-0.001
				c-0.95,0.148-1.903,0.377-2.805,0.814l-0.351,0.143c-0.117,0.05-0.22,0.122-0.336,0.177l-0.688,0.358
				c-0.462,0.248-0.887,0.556-1.4,0.805c0.262-0.47,0.563-0.934,0.916-1.358c0.396-0.379,0.756-0.827,1.246-1.123
				c0.905-0.694,2.048-1.107,3.206-1.278c1.166-0.167,2.366-0.036,3.444,0.341C838.053,1098.97,839.048,1099.553,839.773,1100.387z"
				/>
			<path style="fill:#333343;" d="M846.655,1099.744c0.645-0.894,1.582-1.561,2.613-2.039c1.039-0.468,2.223-0.702,3.4-0.636
				c1.169,0.071,2.346,0.384,3.311,0.997c0.516,0.252,0.916,0.668,1.345,1.011c0.391,0.393,0.734,0.829,1.039,1.274
				c-0.534-0.203-0.986-0.474-1.468-0.681l-0.719-0.297c-0.121-0.045-0.23-0.108-0.351-0.147l-0.363-0.112
				c-0.939-0.357-1.909-0.503-2.869-0.569c-0.964-0.055-1.945,0.036-2.931,0.255
				C848.672,1099.016,847.687,1099.341,846.655,1099.744z"/>
			<path style="fill:#FFFFFF;" d="M851.867,1117.355c-0.705,2.497-3.781,4.341-7.438,4.277c-3.656-0.063-6.664-2.013-7.277-4.532
				L851.867,1117.355z"/>
			<polygon style="fill:#333343;" points="786.206,1279.836 773.999,1551.771 803.834,1554.805 853.609,1275.285 			"/>
			<path style="fill:#FBF3FF;" d="M824.027,1141.786c0,0-3.345,147.15-2.324,147.126c1.021-0.023,29.368,5.335,29.368,5.335
				l8.831-12.136l-1.553-135.269l-14.568-5.057l-5.042-1.43l-6.516,0.051L824.027,1141.786z"/>
			<polygon style="fill:#FF7685;" points="849.015,1256.482 839.9,1147.676 836.929,1147.675 828.167,1256.482 838.591,1268.546 			
				"/>
			<path style="fill:#FF7685;" d="M835.468,1146.938l0.711,0.608c1.35,1.153,3.326,1.189,4.718,0.088l1.239-0.98l-3.305-5.405
				l-2.32,0.538L835.468,1146.938z"/>
			<path style="fill:#F7B5B2;" d="M969.782,1076.077c0.093,0.451,0.649,0.624,0.976,0.299c2.528-2.518,10.536-10.39,11.323-9.892
				c0.936,0.592-6.048,7.8-5.591,8.721c0.457,0.921,7.09-6.282,7.989-5.488c0.898,0.794-5.371,7.159-5.109,7.626
				c0.262,0.467,6.92-4.99,7.729-4.839c0.809,0.15-5.59,6.839-5.433,7.496c0.157,0.657,6.108-2.491,6.438-2.012
				c0.329,0.479,0.628,0.744-10.739,11.67l-4.659,4.11l-5.616,1.303l-3.964-5.685c0,0,3.229-20.034,3.99-20.38
				C967.84,1068.674,968.357,1069.128,969.782,1076.077z"/>
			<path style="fill:#D6D6ED;" d="M847.64,1136.563c0,0-4.652,2.692-8.883,3.788c-4.231-1.096-8.883-3.788-8.883-3.788l-5.848,5.223
				c0.885,4.784,10.43,8.28,10.43,8.28l4.195-8.304l3.326,8.304c0,0,7.201-2.001,11.631-6.616L847.64,1136.563z"/>
			<g>
				<path style="fill:#8282A8;" d="M975.667,1095.069c0,0-3.54-9.041-15.676-9.985c0,0-23.619,60.742-108.92,55.433
					c0.517,20.653,2.95,116.366,4.449,145.687c14.988-1.676,27.945-3.502,27.945-3.502s-6.742-80.74-2.022-102.653
					C881.442,1180.049,956.451,1180.84,975.667,1095.069z"/>
				<path style="fill:#8282A8;" d="M825.228,1140.693c-11.01,2.514-79.305,19.014-92.623,44.412
					c-14.496,27.644,20.324,72.755,40.454,82.257c0,0,6.574-6.405,9.945-22.25c0,0-16.856-18.542-19.047-43.32
					c0,0,17.024-7.754,24.441-9.945l-6.111,101.631c0,0,17.82,7.419,33.665,8.768c2.563,0.218,6.09,0.206,10.198,0.034
					L825.228,1140.693z"/>
				<path style="fill:#F7B5B2;" d="M790.057,1253.905c-0.449,0.104-0.608,0.664-0.275,0.982
					c2.577,2.468,10.636,10.287,10.157,11.086c-0.569,0.949-7.94-5.862-8.851-5.384c-0.91,0.479,6.448,6.94,5.676,7.857
					c-0.773,0.917-7.284-5.2-7.745-4.928c-0.46,0.273,5.152,6.801,5.021,7.612c-0.131,0.813-6.97-5.427-7.623-5.254
					c-0.652,0.172,2.635,6.047,2.164,6.388c-0.472,0.34-0.506,0.815-11.698-10.291c0,0,2.692-4.749,5.352-13.608
					c5.977,0.875,14.592,2.214,14.83,2.705C797.412,1251.789,796.97,1252.316,790.057,1253.905z"/>
			</g>
			<polygon style="fill:#3E3D51;" points="825.228,1140.693 802.219,1161.507 813.724,1169.598 802.219,1182.409 825.228,1288.804 
							"/>
			<polygon style="fill:#3E3D51;" points="851.071,1140.517 874.08,1161.17 862.575,1169.261 874.08,1182.072 855.519,1286.204 			
				"/>
			<rect x="832.334" y="1294.809" style="fill:#D6D6ED;" width="133.52" height="269.559"/>
			<polygon style="fill:#8282A8;" points="795.806,1564.368 832.334,1564.368 832.334,1294.809 795.806,1313.283 			"/>
			<polygon style="fill:#8282A8;" points="787.128,1317.623 795.806,1317.623 795.806,1313.283 791.467,1312.584 			"/>
			<path style="fill:#333343;" d="M930.725,1270.316h-4.041v-13.708c1.553-0.792,2.21-2.678,1.464-4.268l-3.863-8.233
				c-0.744,0.784-1.642,1.447-2.679,1.934c-1.038,0.487-2.121,0.753-3.2,0.825l3.863,8.233c0.49,1.042,1.463,1.701,2.526,1.839
				v13.377h-27.922v-15.302c2.303-1.118,3.289-3.881,2.197-6.207l-5.578-11.887c-1.074,1.132-2.37,2.089-3.869,2.792
				c-1.498,0.704-3.063,1.089-4.62,1.191l5.578,11.887c0.821,1.75,2.586,2.754,4.402,2.694v14.831h-23.495v-6.406
				c1.233-0.63,1.755-2.126,1.162-3.389l-3.068-6.539c-0.59,0.623-1.304,1.149-2.128,1.536c-0.824,0.387-1.685,0.599-2.542,0.655
				l3.068,6.539c0.328,0.699,0.93,1.18,1.618,1.379v6.225h-5.214c-5.411,0-9.797,4.386-9.797,9.797l53.242-1.68l32.692,1.68
				C940.522,1274.703,936.136,1270.316,930.725,1270.316z"/>
			<rect x="832.334" y="1277.174" style="fill:#B1B1DE;" width="142.757" height="17.635"/>
			<polygon style="fill:#616184;" points="787.128,1317.623 832.334,1294.809 832.334,1277.174 787.128,1301.196 			"/>
			<path style="fill:#FF7685;" d="M897.204,1221.933c3.526,7.515,0.005,16.525-7.869,19.577c-6.644,2.575-14.303-0.193-17.766-6.42
				c-4.104-7.379-1.053-16.558,6.461-20.083C885.237,1211.625,893.821,1214.725,897.204,1221.933z"/>
			<path style="fill:#FF7685;" d="M871.796,1246.131c1.574,3.873-0.22,8.407-4.011,10.167c-3.959,1.838-8.662,0.131-10.518-3.824
				c-1.86-3.965-0.154-8.687,3.81-10.547C865.17,1240.007,870.071,1241.888,871.796,1246.131z"/>
			<path style="fill:#FF7685;" d="M926.855,1233.728c2.342,4.992,0.195,10.937-4.797,13.28c-5.184,2.432-11.395,0.023-13.533-5.384
				c-1.832-4.632,0.112-10.014,4.482-12.405C918.107,1226.429,924.423,1228.545,926.855,1233.728z"/>
			<path style="fill:#333343;" d="M821.545,1071.584c0,0,7.724-5.714,24.05-3.34c16.326,2.374,18.741,11.475,18.659,24.178
				l-1.292,10.378c0,0-4.77-0.306-9.313-13.308c0,0-10.04,9.889-13.94,8.297s2.229-8.802,2.229-8.802s-16.578,15.945-27.601,15.01
				c0,0-7.745-20.805,1.016-27.27c0,0-6.193-0.205-6.419-1.485c-0.226-1.28,3.193-2.885,9.065-1.688c0,0-3.541-8.883-1.109-9.576
				C819.321,1063.285,821.545,1071.584,821.545,1071.584z"/>
			<path style="fill:#F99893;" d="M846.278,1102.57c0.676,1.035,1.258,2.121,1.788,3.234c0.532,1.113,0.999,2.256,1.372,3.448
				c0.174,0.601,0.333,1.21,0.392,1.869c0.009,0.167,0.011,0.338-0.005,0.518c-0.008,0.089-0.031,0.188-0.048,0.28
				c-0.037,0.102-0.06,0.2-0.129,0.303c-0.035,0.052-0.073,0.103-0.112,0.151l-0.094,0.086c-0.063,0.055-0.124,0.115-0.189,0.165
				c-0.133,0.096-0.263,0.197-0.401,0.279c-0.54,0.349-1.114,0.602-1.695,0.822c-0.584,0.212-1.176,0.395-1.784,0.513
				c1.097-0.555,2.203-1.106,3.138-1.818c0.119-0.087,0.221-0.186,0.329-0.28l0.148-0.147l0.072-0.073
				c0.004-0.015,0.01-0.028,0.018-0.039c0.07-0.121,0.072-0.43,0.037-0.696c-0.07-0.56-0.222-1.143-0.401-1.714
				c-0.345-1.152-0.775-2.292-1.19-3.439C847.099,1104.888,846.671,1103.741,846.278,1102.57z"/>
			<path style="fill:#FBF3FF;" d="M901.628,1438.593L901.628,1438.593c-16.155,0-29.251-13.096-29.251-29.251v-114.194h58.503
				v114.194C930.88,1425.497,917.783,1438.593,901.628,1438.593z"/>
			<rect x="762.294" y="1528.082" style="fill:#B1B1DE;" width="259.473" height="36.656"/>
			<rect x="762.294" y="1528.082" style="fill:#616184;" width="70.04" height="36.656"/>
			<rect x="849.015" y="1477.321" style="opacity:0.5;fill:#B1B1DE;" width="100.566" height="6.831"/>
			<rect x="849.015" y="1496.215" style="opacity:0.5;fill:#B1B1DE;" width="100.566" height="6.83"/>
		</g>
		<g>
			<path style="fill:#B1B1DE;" d="M1214.835,1156.16c-9.354-40.766,23.477-99.117,67.281-99.117
				c57.869,0,56.067,68.991,50.82,139.883c-4.432,59.886,5.09,87.487,5.09,87.487c-92.377,0-124.716-1.735-129.392,0
				C1194.601,1266.198,1214.835,1156.16,1214.835,1156.16z"/>
			<polygon style="fill:#3E3D51;" points="1093.946,1564.429 1088.164,1564.429 1122.898,1322.147 1128.616,1322.598 			"/>
			<polygon style="fill:#3E3D51;" points="1199.779,1564.654 1205.497,1564.203 1170.794,1322.147 1165.076,1322.598 			"/>
			<polygon style="fill:#3E3D51;" points="1143.123,1564.429 1148.873,1564.429 1149.722,1321.729 1143.972,1321.729 			"/>
			<rect x="1099.922" y="1501.851" style="fill:#3E3D51;" width="92.152" height="9.065"/>
			<g>
				<path style="fill:#3E3D51;" d="M1222.729,1333.474h-141.441c-3.072,0-5.563-2.491-5.563-5.564l0,0
					c0-3.073,2.491-5.563,5.563-5.563h141.441c3.072,0,5.563,2.491,5.563,5.563l0,0
					C1228.292,1330.983,1225.801,1333.474,1222.729,1333.474z"/>
				<g>
					<g>
						<rect x="1024.526" y="1092.339" style="fill:#FBF3FF;" width="257.924" height="235.094"/>
					</g>
					<g>
						<path style="fill:#FF7685;" d="M1227.735,1209.985c-0.055,41.005-33.341,74.202-74.347,74.147
							c-41.005-0.055-74.202-33.34-74.147-74.346s33.341-74.203,74.347-74.148C1194.593,1135.694,1227.79,1168.98,1227.735,1209.985
							z"/>
						<path style="fill:#8282A8;" d="M1153.588,1135.639l-0.1,74.247l74.247,0.099
							C1227.79,1168.98,1194.593,1135.694,1153.588,1135.639z"/>
						<path style="fill:#D6D6ED;" d="M1153.488,1209.886l74.247,0.099c0.014-10.635-2.225-20.742-6.24-29.894L1153.488,1209.886z"/>
					</g>
					<g>
						<path style="fill:#FF7685;" d="M1285.133,1324.879h-263.289c-1.411,0-2.555,1.144-2.555,2.554l0,0
							c0,1.411,1.144,2.554,2.555,2.554h263.289c1.411,0,2.555-1.144,2.555-2.554l0,0
							C1287.688,1326.022,1286.544,1324.879,1285.133,1324.879z"/>
					</g>
				</g>
			</g>
			<path style="fill:#D6D6ED;" d="M1024.192,1092.339h257.924c-29.816-5.39-20.998-35.296,0-35.296h-257.924
				C996.617,1057.042,996.357,1089.395,1024.192,1092.339z"/>
		</g>
	</g>
</g>
</svg>
