<?xml version="1.0" encoding="utf-8"?>
<!-- Generator: Adobe Illustrator 27.5.0, SVG Export Plug-In . SVG Version: 6.00 Build 0)  -->
<svg version="1.1" xmlns="http://www.w3.org/2000/svg" xmlns:xlink="http://www.w3.org/1999/xlink" x="0px" y="0px"
	 viewBox="0 0 500 500" style="enable-background:new 0 0 500 500;" xml:space="preserve">
<g id="Background_Simple">
	<g>
		<path style="fill:#92E3A9;" d="M450.791,109.966c-1.678-2.794-3.423-5.536-5.246-8.216
			c-24.277-35.671-64.693-60.093-103.971-71.153c-17.207-4.853-34.874-7.391-52.511-8.04
			c-115.678-4.203-158.174,91.175-195.444,115.767C56.348,162.916-0.845,204.92,6.332,293.159
			c5.446,67.09,43.611,131.239,113.316,160.431c7.677,3.225,15.745,6.025,24.191,8.347c15.712,4.322,32.741,7.036,51.089,7.852
			c52.7,2.348,95.491-10.356,137.347-42.345c9.729-7.436,19.407-15.823,32.033-16.742c9.178-0.668,17.879,2.629,8.286,11.499
			c-11.275,10.425,1.734,30.929,30.356,16.684c47.803-23.792,67.467-75.123,76.731-127.319
			C491.052,247.498,485.54,167.822,450.791,109.966z"/>
		<path style="opacity:0.7;fill:#FFFFFF;" d="M450.791,109.966c-1.678-2.794-3.423-5.536-5.246-8.216
			c-24.277-35.671-64.693-60.093-103.971-71.153c-17.207-4.853-34.874-7.391-52.511-8.04
			c-115.678-4.203-158.174,91.175-195.444,115.767C56.348,162.916-0.845,204.92,6.332,293.159
			c5.446,67.09,43.611,131.239,113.316,160.431c7.677,3.225,15.745,6.025,24.191,8.347c15.712,4.322,32.741,7.036,51.089,7.852
			c52.7,2.348,95.491-10.356,137.347-42.345c9.729-7.436,19.407-15.823,32.033-16.742c9.178-0.668,17.879,2.629,8.286,11.499
			c-11.275,10.425,1.734,30.929,30.356,16.684c47.803-23.792,67.467-75.123,76.731-127.319
			C491.052,247.498,485.54,167.822,450.791,109.966z"/>
	</g>
</g>
<g id="Circle">
	<path style="fill:#263238;" d="M256.031,444.939c-103.527,0-187.752-84.226-187.752-187.752
		c0-103.527,84.225-187.752,187.752-187.752s187.752,84.225,187.752,187.752C443.782,360.713,359.558,444.939,256.031,444.939z
		 M256.031,81.435c-96.91,0-175.752,78.842-175.752,175.752c0,96.91,78.842,175.752,175.752,175.752
		c96.91,0,175.752-78.842,175.752-175.752C431.782,160.276,352.941,81.435,256.031,81.435z"/>
</g>
<g id="Shadow">
	
		<ellipse transform="matrix(0.0273 -0.9996 0.9996 0.0273 -87.0224 579.2561)" style="fill:#263238;" cx="254.145" cy="334.345" rx="13.02" ry="191.055"/>
</g>
<g id="Car">
	<g>
		<g>
			<path style="fill:#263238;" d="M71.788,301.335l40.458,3.635c0,0-3.958-39.578-11.308-48.624
				c-7.35-9.046-23.181-10.743-30.531,3.958C63.056,275.004,71.788,301.335,71.788,301.335z"/>
			<path style="fill:#263238;" d="M112.803,305.522l-41.387-3.718l-0.103-0.312c-0.359-1.083-8.712-26.696-1.354-41.412
				c3.231-6.461,8.429-10.395,14.638-11.076c6.245-0.688,12.651,2.008,16.729,7.026c7.36,9.06,11.255,47.268,11.417,48.89
				L112.803,305.522z M72.163,300.866l39.522,3.551c-0.536-5.001-4.454-39.532-11.135-47.756c-3.867-4.759-9.941-7.309-15.844-6.663
				c-5.859,0.643-10.779,4.382-13.853,10.53C64.107,274.022,71.223,297.867,72.163,300.866z"/>
		</g>
		<g>
			<g>
				<path style="fill:#263238;" d="M106.027,265.627H87.716v63.055h18.311c7.32,0,13.255-14.115,13.255-31.528
					S113.347,265.627,106.027,265.627z"/>
				<path style="fill:#263238;" d="M106.027,329.183H87.216v-64.056h18.811c7.713,0,13.754,14.068,13.754,32.028
					C119.781,315.114,113.74,329.183,106.027,329.183z M88.216,328.183h17.811c7.033,0,12.754-13.919,12.754-31.027
					c0-17.109-5.722-31.028-12.754-31.028H88.216V328.183z"/>
			</g>
			<g>
				<ellipse style="fill:#878787;" cx="87.716" cy="297.155" rx="13.255" ry="31.528"/>
				<path style="fill:#263238;" d="M87.715,329.183c-7.713,0-13.754-14.068-13.754-32.027c0-17.959,6.042-32.027,13.754-32.027
					s13.755,14.068,13.755,32.027C101.47,315.114,95.428,329.183,87.715,329.183z M87.715,266.128
					c-7.033,0-12.754,13.919-12.754,31.027s5.722,31.027,12.754,31.027c7.033,0,12.755-13.919,12.755-31.027
					S94.749,266.128,87.715,266.128z"/>
			</g>
			<g>
				<ellipse style="fill:#FFFFFF;" cx="87.716" cy="298.451" rx="11.162" ry="25.46"/>
				<path style="fill:#263238;" d="M87.715,324.41c-6.54,0-11.662-11.403-11.662-25.96s5.123-25.96,11.662-25.96
					c6.539,0,11.663,11.403,11.663,25.96S94.255,324.41,87.715,324.41z M87.715,273.49c-5.879,0-10.662,11.197-10.662,24.96
					s4.783,24.96,10.662,24.96c5.879,0,10.663-11.197,10.663-24.96S93.595,273.49,87.715,273.49z"/>
			</g>
		</g>
		<g>
			<path style="fill:#263238;" d="M247.135,257.354H226.27l0,0l0,0c-8.341,0-15.103,14.937-15.103,33.362
				c0,18.425,6.762,33.362,15.103,33.362l0,0l0,0h20.865c8.341,0,15.103-14.937,15.103-33.362
				C262.238,272.29,255.476,257.354,247.135,257.354z"/>
			<path style="fill:#263238;" d="M247.135,324.577H226.27c-8.604,0-15.603-15.19-15.603-33.861c0-18.672,7-33.862,15.603-33.862
				h20.865c8.604,0,15.604,15.19,15.604,33.862C262.738,309.387,255.739,324.577,247.135,324.577z M226.27,257.853
				c-8.052,0-14.603,14.742-14.603,32.862c0,18.12,6.551,32.861,14.603,32.861h20.865c8.052,0,14.604-14.741,14.604-32.861
				c0-18.12-6.551-32.862-14.604-32.862H226.27z"/>
		</g>
		<g>
			<g>
				<path style="fill:#263238;" d="M268.153,267.723h-25.005v74.248h25.005c9.996,0,18.1-16.621,18.1-37.124
					C286.253,284.344,278.149,267.723,268.153,267.723z"/>
				<path style="fill:#263238;" d="M268.153,342.471h-25.504v-75.248h25.504c10.256,0,18.6,16.878,18.6,37.624
					C286.753,325.593,278.409,342.471,268.153,342.471z M243.649,341.471h24.504c9.705,0,17.6-16.43,17.6-36.624
					c0-20.194-7.895-36.624-17.6-36.624h-24.504V341.471z"/>
			</g>
			<g>
				<ellipse style="fill:#878787;" cx="243.148" cy="304.847" rx="18.1" ry="37.124"/>
				<path style="fill:#263238;" d="M243.149,342.471c-10.256,0-18.6-16.878-18.6-37.624c0-20.746,8.344-37.624,18.6-37.624
					c10.256,0,18.6,16.878,18.6,37.624C261.748,325.593,253.404,342.471,243.149,342.471z M243.149,268.223
					c-9.705,0-17.6,16.43-17.6,36.624c0,20.194,7.896,36.624,17.6,36.624c9.705,0,17.6-16.43,17.6-36.624
					C260.748,284.652,252.853,268.223,243.149,268.223z"/>
			</g>
			<g>
				<ellipse style="fill:#FFFFFF;" cx="243.148" cy="306.372" rx="15.243" ry="29.979"/>
				<path style="fill:#263238;" d="M243.149,336.852c-8.681,0-15.743-13.673-15.743-30.479c0-16.806,7.062-30.479,15.743-30.479
					c8.68,0,15.742,13.673,15.742,30.479C258.891,323.179,251.829,336.852,243.149,336.852z M243.149,276.894
					c-8.129,0-14.743,13.224-14.743,29.479s6.614,29.479,14.743,29.479c8.129,0,14.742-13.225,14.742-29.479
					S251.277,276.894,243.149,276.894z"/>
			</g>
		</g>
		<g>
			<path style="fill:#263238;" d="M409.876,260.198h-25.005l0,0h0c-9.996,0-18.1,16.621-18.1,37.124
				c0,20.503,8.103,37.124,18.1,37.124h0l0,0h25.005c9.996,0,18.1-16.621,18.1-37.124
				C427.975,276.819,419.872,260.198,409.876,260.198z"/>
			<path style="fill:#263238;" d="M409.875,334.945h-25.004c-10.256,0-18.6-16.878-18.6-37.624c0-20.745,8.344-37.623,18.6-37.623
				h25.004c10.257,0,18.601,16.878,18.601,37.623C428.476,318.067,420.132,334.945,409.875,334.945z M384.871,260.698
				c-9.704,0-17.6,16.429-17.6,36.623c0,20.194,7.895,36.624,17.6,36.624h25.004c9.705,0,17.601-16.43,17.601-36.624
				c0-20.194-7.895-36.623-17.601-36.623H384.871z"/>
		</g>
		<g>
			<path style="fill:#92E3A9;" d="M164.534,175.299c-4.243,0.466-8.446,1.213-12.581,2.274c-6.411,1.645-16.286,4.552-25.985,8.879
				c-16.304,7.274-36.12,22.074-42.141,24.833c-6.02,2.759-15.301,3.261-16.304,7.274c-1.003,4.013-1.756,11.037-1.756,11.037
				s-4.013,3.512-4.515,13.294c-0.502,9.783-1.254,42.391-0.502,46.656c0.752,4.264,0.502,5.268,4.264,7.274
				c3.763,2.007,6.02,4.515,6.773,4.515c0.753,0-4.264-31.104,3.763-38.378c8.027-7.274,20.067-5.518,25.084,11.037
				c5.017,16.555,3.261,34.365,5.268,35.368c2.007,1.003,4.515,1.254,4.515,1.254l111.121,9.03c0,0-5.268-23.829,0.752-39.632
				c6.02-15.803,17.559-23.829,28.345-19.816c10.786,4.013,18.562,22.575,20.819,34.615c2.258,12.04,3.01,18.06,2.508,22.324
				c-0.502,4.264-0.502,6.271,2.759,6.522c3.261,0.251,145.987-4.264,157.274-5.518c11.288-1.254,18.813-2.759,19.565-5.769
				c0.753-3.01,0.753-1.254,0.753-3.01c0-1.756-1.254-31.605-2.007-35.87c-0.753-4.264-1.254-7.274-3.01-9.783
				c-1.756-2.508-6.02-7.023-6.02-7.023s0.753-5.518-2.508-9.281c-3.261-3.762-51.672-22.575-51.672-22.575
				s-34.365-22.575-47.157-30.1c-12.793-7.525-33.11-15.05-53.428-18.311c-20.318-3.261-53.428-4.515-72.492-4.766
				C201.398,171.46,175.713,174.071,164.534,175.299z"/>
			<path style="fill:#263238;" d="M277.448,324.172c-0.387,0-0.644-0.005-0.766-0.015c-1.294-0.099-2.157-0.461-2.715-1.139
				c-0.977-1.188-0.833-3.122-0.502-5.939c0.477-4.054-0.154-9.648-2.503-22.174c-2.074-11.06-9.474-30.136-20.502-34.238
				c-10.45-3.888-21.842,4.14-27.703,19.524c-5.899,15.484-0.784,39.11-0.732,39.347l0.146,0.661l-111.795-9.085
				c-0.115-0.011-2.633-0.272-4.698-1.305c-1.04-0.521-1.223-2.946-1.572-8.875c-0.401-6.802-1.007-17.081-3.951-26.796
				c-2.363-7.797-6.549-12.891-11.787-14.341c-4.179-1.155-8.73,0.129-12.482,3.529c-6.013,5.449-4.436,25.289-3.763,33.761
				c0.313,3.948,0.318,4.29,0.054,4.575l-0.148,0.16l-0.242,0.012c-0.505,0-1.104-0.468-2.19-1.317
				c-1.164-0.91-2.758-2.157-4.818-3.256c-3.573-1.906-3.773-3.119-4.307-6.359c-0.064-0.389-0.133-0.811-0.214-1.27
				c-0.778-4.409,0.04-37.907,0.495-46.769c0.458-8.935,3.78-12.746,4.538-13.504c0.127-1.153,0.826-7.234,1.748-10.922
				c0.72-2.881,5.02-4.058,9.573-5.304c2.419-0.662,4.92-1.347,7.007-2.304c2.199-1.007,6.276-3.652,11.438-7.001
				c8.614-5.588,20.412-13.24,30.708-17.833c9.669-4.314,19.511-7.225,26.064-8.907c4.057-1.041,8.313-1.811,12.65-2.287
				l0.055,0.497l-0.055-0.497c10.581-1.162,36.799-3.837,51.546-3.649c21.52,0.283,53.437,1.702,72.565,4.772
				c18.973,3.045,39.512,10.086,53.603,18.373c12.448,7.323,45.714,29.152,47.134,30.085c2.595,1.009,48.539,18.909,51.819,22.694
				c3.016,3.48,2.763,8.293,2.653,9.435c0.802,0.855,4.322,4.647,5.906,6.91c1.781,2.544,2.311,5.548,3.045,9.705l0.049,0.277
				c0.762,4.319,2.014,34.485,2.014,35.957c0,0.939,0,1.017-0.165,1.292c-0.073,0.121-0.244,0.406-0.602,1.839
				c-0.841,3.359-8.274,4.843-19.995,6.146C423.017,319.864,289.358,324.171,277.448,324.172z M245.116,258.691
				c1.902,0,3.81,0.338,5.692,1.038c11.415,4.247,19.022,23.717,21.136,34.992c2.37,12.637,3.004,18.308,2.514,22.475
				c-0.292,2.482-0.443,4.308,0.281,5.187c0.374,0.454,1.015,0.701,2.02,0.778c0.004,0,0.013,0,0.026,0
				c2.29,0,144.418-4.102,157.155-5.517c9.047-1.006,18.395-2.433,19.136-5.393c0.395-1.577,0.603-1.925,0.715-2.111
				c0.022-0.069,0.022-0.352,0.022-0.777c0-1.466-1.242-31.497-1.998-35.783l-0.049-0.277c-0.712-4.03-1.226-6.942-2.879-9.305
				c-1.715-2.45-5.932-6.923-5.974-6.967l-0.164-0.174l0.032-0.237c0.007-0.053,0.678-5.345-2.392-8.886
				c-2.515-2.902-34.771-15.945-51.475-22.436l-0.094-0.048c-0.344-0.225-34.5-22.655-47.137-30.087
				c-13.989-8.229-34.396-15.222-53.253-18.249c-19.075-3.061-50.933-4.477-72.419-4.759c-14.711-0.195-40.862,2.483-51.424,3.643
				c-4.29,0.471-8.5,1.232-12.511,2.261c-6.517,1.672-16.3,4.566-25.906,8.852c-10.224,4.561-21.984,12.189-30.57,17.759
				c-5.196,3.371-9.301,6.033-11.565,7.071c-2.162,0.991-4.703,1.686-7.16,2.359c-4.263,1.167-8.289,2.269-8.868,4.582
				c-0.983,3.933-1.736,10.899-1.744,10.969l-0.021,0.192l-0.146,0.129c-0.039,0.034-3.864,3.532-4.346,12.945
				c-0.521,10.138-1.241,42.396-0.509,46.544c0.082,0.463,0.152,0.889,0.217,1.28c0.528,3.205,0.653,3.967,3.791,5.64
				c2.137,1.14,3.77,2.418,4.963,3.351c0.398,0.311,0.829,0.648,1.151,0.867c-0.024-0.73-0.129-2.052-0.238-3.429
				c-0.743-9.349-2.289-28.802,4.088-34.581c4.012-3.636,8.904-5.004,13.421-3.753c5.58,1.546,10.011,6.878,12.476,15.016
				c2.978,9.827,3.588,20.178,3.992,27.026c0.223,3.775,0.453,7.679,1.023,8.04c1.895,0.947,4.315,1.2,4.339,1.203l110.447,8.975
				c-0.787-3.973-4.535-24.969,0.909-39.258C226.853,266.632,235.903,258.691,245.116,258.691z"/>
		</g>
		<g>
			<polygon style="fill:#263238;" points="354.731,256.686 362.005,262.456 298.795,257.439 276.219,238.626 274.463,231.603 
				320.116,247.656 			"/>
			<path style="fill:#263238;" d="M363.602,263.083l-65.005-5.158l-0.122-0.103l-22.7-18.916l-2.021-8.083l46.528,16.362
				l34.679,9.045L363.602,263.083z M298.993,256.952l61.415,4.875l-5.905-4.684l-34.514-9.003l-44.815-15.758l1.491,5.964
				L298.993,256.952z"/>
		</g>
		<g>
			<path style="fill:#FFFFFF;" d="M327.065,259.682l5.593-2.996h20.318c0,0-22.324-1.756-23.829-1.756
				c-1.505,0-6.522,2.007-8.528,2.508c-2.007,0.502-9.532,0.502-12.793-1.254c-3.261-1.756-6.773-9.03-6.773-9.03l30.173,3.4
				l-11.109-2.898l-37.92-13.335c-3.211,1.422-3.657,5.479-3.711,6.193l0.238,0.198l16.811,5.439l10.248,11.842L327.065,259.682z"/>
			<path style="fill:#263238;" d="M327.171,260.192l-21.633-1.717l-10.29-11.892l-16.845-5.487l-0.436-0.363l0.02-0.257
				c0.063-0.835,0.551-5.082,4.006-6.612l0.182-0.081l38.107,13.401l11.069,2.886l-0.182,0.98l-29.249-3.295
				c1.012,1.924,3.692,6.67,6.142,7.989c3.107,1.673,10.415,1.714,12.434,1.209c0.728-0.182,1.891-0.576,3.121-0.994
				c2.213-0.751,4.502-1.528,5.528-1.528c1.507,0,22.956,1.686,23.868,1.758l-0.039,0.998h-20.191L327.171,260.192z
				 M306.026,257.511l20.932,1.662l5.573-2.986h7.464c-5.22-0.394-10.18-0.756-10.85-0.756c-0.861,0-3.271,0.818-5.207,1.476
				c-1.251,0.425-2.433,0.825-3.2,1.017c-2.188,0.548-9.789,0.511-13.15-1.299c-3.366-1.813-6.84-8.95-6.986-9.253l-0.394-0.815
				l24.134,2.719l-4.352-1.135l-37.767-13.279c-2.517,1.241-3.088,4.319-3.213,5.419l16.811,5.439L306.026,257.511z"/>
		</g>
		
			<rect x="418.235" y="256.345" transform="matrix(0.9982 -0.0606 0.0606 0.9982 -14.7922 25.9772)" style="fill:#263238;" width="5.23" height="1"/>
		<path style="fill:#263238;" d="M369.545,258.695l-10.847-1.01l0.092-0.996l10.726,0.998c1.222-0.185,19.931-2.984,29.15-2.252
			c7.125,0.562,12.847,0.984,15.282,1.161l-0.072,0.998c-2.438-0.177-8.161-0.6-15.288-1.163
			c-9.373-0.732-28.787,2.225-28.981,2.254L369.545,258.695z"/>
		<g>
			<path style="fill:#FFFFFF;" d="M440.768,247.405c-0.896-1.033-5.199-3.202-10.967-5.804l-0.822,0.286
				c0,0,4.515,3.261,3.512,6.522c-1.003,3.261-7.023,7.023-7.023,7.023l0.251,5.518c0,0,14.548-1.003,17.558-4.264
				C443.276,256.686,444.029,251.168,440.768,247.405z"/>
			<path style="fill:#263238;" d="M425.241,261.484l-0.287-6.322l0.248-0.154c0.059-0.037,5.874-3.701,6.81-6.746
				c0.885-2.878-3.285-5.939-3.327-5.97l-0.776-0.563l1.916-0.666l0.182,0.082c6.625,2.988,10.268,4.929,11.139,5.932l0,0
				c3.37,3.889,2.658,9.442,2.626,9.676l-0.02,0.156l-0.107,0.115c-3.108,3.368-17.289,4.382-17.892,4.424L425.241,261.484z
				 M425.98,255.697l0.214,4.714c2.549-0.211,13.86-1.289,16.605-3.95c0.085-0.909,0.362-5.532-2.408-8.728
				c-0.506-0.584-2.67-1.982-10.014-5.322c1.35,1.267,3.357,3.659,2.592,6.145C432.03,251.605,427.156,254.931,425.98,255.697z"/>
		</g>
		<g>
			<path style="fill:#263238;" d="M435.25,256.686c-1.505-1.505-8.278-0.752-8.278-0.752s3.261-0.753,5.017-1.254
				c1.756-0.502,2.007-1.003,2.759-4.515c0.753-3.512-2.007-5.017-2.007-5.017l-3.476-3.361l-0.286,0.1c0,0,4.515,3.261,3.512,6.522
				c-1.003,3.261-7.023,7.023-7.023,7.023l0.251,5.518c0,0,5.882-0.407,10.94-1.541C436.516,258.687,436.161,257.598,435.25,256.686
				z"/>
			<path style="fill:#263238;" d="M425.241,261.484l-0.287-6.322l0.248-0.154c0.059-0.037,5.874-3.701,6.81-6.746
				c0.885-2.878-3.285-5.939-3.327-5.97l-0.776-0.562l1.481-0.516l3.658,3.536c0.448,0.28,2.939,2.01,2.188,5.52
				c-0.765,3.565-1.091,4.314-3.111,4.891c-0.126,0.036-0.26,0.073-0.398,0.111c1.614,0.085,3.177,0.364,3.875,1.062l0,0
				c0.988,0.987,1.387,2.165,1.546,2.979l0.094,0.478l-0.475,0.107c-5.037,1.13-10.956,1.548-11.016,1.552L425.241,261.484z
				 M425.98,255.697l0.214,4.714c1.473-0.122,5.874-0.533,9.858-1.381c-0.182-0.616-0.52-1.355-1.156-1.99l0,0
				c-0.973-0.972-5.343-0.889-7.868-0.609l-0.168-0.984c0.032-0.008,3.269-0.755,4.991-1.247c1.437-0.411,1.649-0.6,2.408-4.14
				c0.515-2.402-0.8-3.754-1.435-4.251c0.325,0.864,0.436,1.799,0.145,2.747C432.03,251.605,427.156,254.931,425.98,255.697z"/>
		</g>
		<g>
			<path style="fill:#263238;" d="M444.029,267.723c0,0-36.371,5.268-99.582,1.505c0,0,4.515,5.769,15.803,8.027
				c11.288,2.258,45.151,1.756,62.458,0c17.308-1.756,17.809-3.01,19.816-5.017C444.53,270.231,444.029,267.723,444.029,267.723z"/>
			<path style="fill:#263238;" d="M386.772,279.256c-11.058,0-21.265-0.439-26.62-1.511c-11.339-2.268-15.91-7.967-16.099-8.208
				l-0.684-0.874l1.106,0.066c62.426,3.714,99.117-1.449,99.481-1.502l0.469-0.067l0.093,0.465c0.023,0.112,0.529,2.796-1.642,4.967
				l-0.26,0.263c-1.895,1.929-3.147,3.202-19.858,4.898C413.906,278.65,399.752,279.256,386.772,279.256z M345.68,269.802
				c1.757,1.676,6.36,5.301,14.667,6.963c10.788,2.158,44.248,1.824,62.311-0.007c16.352-1.659,17.504-2.831,19.247-4.605
				l0.266-0.268c1.303-1.303,1.438-2.842,1.412-3.598C438.941,268.895,403.452,273.149,345.68,269.802z"/>
		</g>
		<g>
			<path style="fill:#263238;" d="M452.056,309.362c0,0-26.087,4.013-53.93,4.515c-27.843,0.502-60.452-2.508-65.719-0.502
				c-5.267,2.007-10.786,5.769-13.043,6.522c-2.258,0.753-12.793,1.254-12.793,1.254s21.823-18.311,30.602-21.07
				c8.779-2.759,20.318-3.01,23.579-3.01c3.261,0,75.251-2.258,79.264-2.508c4.013-0.251,8.027,2.007,9.281,4.515
				S452.056,309.362,452.056,309.362z"/>
			<path style="fill:#263238;" d="M305.113,321.722l1.136-0.953c0.894-0.751,22-18.407,30.772-21.164
				c9.184-2.887,21.378-3.033,23.729-3.033c3.657,0,75.485-2.273,79.233-2.508c4.412-0.27,8.499,2.271,9.759,4.79
				c1.271,2.541,2.741,10.094,2.804,10.414l0.099,0.51l-0.514,0.079c-0.262,0.04-26.439,4.023-53.997,4.521
				c-12.635,0.226-26.037-0.26-37.857-0.69c-13.917-0.506-24.908-0.904-27.693,0.154c-2.998,1.143-6.11,2.878-8.61,4.272
				c-1.928,1.074-3.45,1.923-4.452,2.258c-2.297,0.765-12.495,1.258-12.927,1.278L305.113,321.722z M440.629,295.044
				c-0.193,0-0.388,0.006-0.582,0.018c-3.751,0.234-75.636,2.51-79.296,2.51c-2.326,0-14.386,0.144-23.429,2.986
				c-7.431,2.336-24.636,16.209-29.267,20.014c2.982-0.17,9.486-0.595,11.149-1.148c0.913-0.305,2.474-1.175,4.281-2.183
				c2.528-1.409,5.676-3.164,8.742-4.332c2.974-1.135,14.055-0.73,28.085-0.22c11.807,0.43,25.193,0.916,37.804,0.689
				c25.354-0.457,49.538-3.873,53.346-4.432c-0.358-1.765-1.588-7.592-2.614-9.645C447.783,297.17,444.297,295.044,440.629,295.044z
				"/>
		</g>
		<g>
			<path style="fill:#263238;" d="M312.591,270.482c0,0-13.796,42.391-15.552,41.89c-1.756-0.502-3.512-2.508-3.512-3.512
				c0-1.003,3.261-29.097,6.02-34.365C302.306,269.228,312.591,270.482,312.591,270.482z"/>
			<path style="fill:#263238;" d="M297.127,312.895c-0.081,0-0.153-0.022-0.225-0.042c-1.959-0.56-3.874-2.759-3.874-3.992
				c0-1.152,3.264-29.227,6.077-34.598c2.887-5.509,13.113-4.33,13.547-4.276l0.603,0.073l-0.188,0.577
				c-0.034,0.107-3.493,10.724-7.121,21.144C299.194,311.166,297.857,312.895,297.127,312.895z M309.997,270.856
				c-3.132,0-8.261,0.538-10.007,3.871c-2.633,5.027-5.96,32.971-5.963,34.133c0,0.659,1.386,2.425,2.973,2.975
				c1.778-1.919,9.954-25.685,14.921-40.912C311.472,270.892,310.8,270.856,309.997,270.856z"/>
		</g>
		<path style="fill:#263238;" d="M267.207,264.846l-0.343-0.939c0.604-0.221,1.247-0.445,1.922-0.671
			c4.488-1.495,26.217-6.331,27.14-6.536l0.217,0.977c-0.226,0.05-22.602,5.029-27.041,6.509
			C268.436,264.406,267.802,264.629,267.207,264.846z"/>
		<path style="fill:#263238;" d="M261.644,267.167l-0.447-0.895c0.034-0.017,0.839-0.418,2.246-1.017l0.392,0.92
			C262.458,266.762,261.651,267.163,261.644,267.167z"/>
		<g>
			<path style="fill:#878787;" d="M259.915,224.077c0,0-9.03-0.753-13.043-3.762c-4.013-3.01-37.625-39.883-37.625-39.883
				s87.291,1.756,97.575,2.257s10.284,2.508,22.074,6.773c11.789,4.264,49.164,30.351,49.164,30.351l7.274,5.017
				c0,0-17.559,0.502-60.201-0.502C282.49,223.325,259.915,224.077,259.915,224.077z"/>
			<path style="fill:#263238;" d="M371.225,225.453c-9.757,0-24.843-0.125-46.104-0.625c-42.138-0.991-64.964-0.259-65.189-0.251
				l-0.029,0.001l-0.029-0.002c-0.375-0.031-9.22-0.799-13.302-3.861c-4.005-3.004-36.321-38.439-37.695-39.946l-0.784-0.86
				l1.164,0.023c0.872,0.018,87.415,1.762,97.589,2.258c6.987,0.341,9.352,1.395,13.645,3.307c2.096,0.934,4.704,2.095,8.574,3.495
				c11.717,4.238,47.752,29.345,49.28,30.412l8.53,5.883l-1.527,0.044C385.26,225.333,380.818,225.453,371.225,225.453z
				 M283.837,223.31c10.498,0,24.338,0.12,41.307,0.518c35.218,0.829,53.484,0.628,58.631,0.535l-6-4.138
				c-0.375-0.262-37.457-26.1-49.05-30.293c-3.904-1.412-6.53-2.582-8.641-3.522c-4.319-1.924-6.487-2.89-13.287-3.221
				c-9.514-0.464-85.99-2.022-96.396-2.233c5.085,5.567,33.18,36.266,36.77,38.959c3.744,2.808,12.206,3.612,12.757,3.662
				C260.5,223.559,268.686,223.31,283.837,223.31z"/>
		</g>
		<g>
			<path style="fill:#878787;" d="M226.303,235.616c0,0,5.268-6.271,5.017-10.535c-0.251-4.264-18.311-29.85-27.592-37.375
				c-9.281-7.525-21.321-10.535-28.094-10.535s-26.839,3.763-39.381,8.528c-12.542,4.766-28.846,12.291-28.846,12.291L87.59,211.034
				c0,0,24.331,7.274,69.231,14.047C201.721,231.853,226.303,235.616,226.303,235.616z"/>
			<path style="fill:#263238;" d="M226.505,236.153l-0.278-0.042c-0.246-0.038-25.095-3.84-69.48-10.535
				c-44.421-6.701-69.056-13.99-69.299-14.063l-1.027-0.307l20.711-13.633c0.229-0.112,16.529-7.623,28.943-12.341
				c12.855-4.885,32.86-8.562,39.559-8.562c7.358,0,19.386,3.331,28.409,10.647c9.227,7.481,27.503,33.092,27.776,37.734
				c0.26,4.412-4.913,10.623-5.133,10.886L226.505,236.153z M88.774,210.854c5.11,1.437,28.872,7.813,68.122,13.733
				c41.845,6.312,66.327,10.053,69.199,10.492c0.9-1.124,4.936-6.381,4.725-9.968c-0.234-3.968-17.943-29.342-27.408-37.016
				c-8.833-7.162-20.592-10.423-27.779-10.423c-6.626,0-26.447,3.648-39.204,8.496c-12.382,4.705-28.651,12.203-28.814,12.278
				L88.774,210.854z"/>
		</g>
		<g>
			<path style="fill:#263238;" d="M203.728,187.706c-9.281-7.525-21.321-10.535-28.094-10.535s-26.839,3.762-39.381,8.528
				c-12.542,4.766-28.846,12.291-28.846,12.291L87.59,211.034c0,0,6.56,1.959,19.123,4.787l10.977-19.587l9.281-4.766l-9.881,26.585
				c0.68,0.14,1.374,0.281,2.076,0.424l9.561-27.009c8.528-4.515,33.11-10.535,33.11-10.535
				c-7.28,9.849-12.911,35.401-14.405,42.676c3.026,0.491,6.147,0.983,9.389,1.472c0.173,0.026,0.338,0.051,0.51,0.077
				c0.37-22.233,11.028-44.977,11.028-44.977s10.033-1.003,22.826,3.512c12.793,4.515,19.816,13.294,19.816,13.294l-6.546,35.302
				c0.914,0.139,1.798,0.273,2.657,0.404l5.645-32.695l7.776,9.783l-3.89,24.363c6.36,0.969,9.659,1.473,9.659,1.473
				s5.268-6.271,5.017-10.535C231.069,220.817,213.009,195.231,203.728,187.706z"/>
			<path style="fill:#263238;" d="M226.505,236.153l-10.435-1.592l3.935-24.643l-6.945-8.737l-5.539,32.079l-3.652-0.554
				l6.597-35.579c-1.062-1.244-7.931-8.898-19.448-12.963c-11.353-4.007-20.617-3.624-22.327-3.508
				c-1.176,2.602-10.518,23.916-10.86,44.509l-0.01,0.571l-1.076-0.163c-3.243-0.489-6.366-0.981-9.393-1.472l-0.515-0.083
				l0.105-0.511c1.497-7.29,6.789-31.205,13.724-41.766c-5.131,1.298-24.146,6.247-31.534,10.079l-9.641,27.233l-3.074-0.628
				l9.636-25.924l-8.001,4.108l-11.086,19.781l-0.364-0.082c-12.437-2.8-19.09-4.776-19.156-4.796l-1.028-0.307l20.712-13.633
				c0.229-0.112,16.529-7.623,28.943-12.341c12.855-4.885,32.86-8.562,39.559-8.562c7.358,0,19.386,3.331,28.409,10.647l0,0
				c9.227,7.481,27.503,33.091,27.776,37.733c0.26,4.413-4.913,10.624-5.133,10.887L226.505,236.153z M217.217,233.724l8.878,1.354
				c0.9-1.124,4.936-6.381,4.725-9.969c-0.234-3.968-17.943-29.341-27.408-37.016c-8.833-7.162-20.592-10.423-27.779-10.423
				c-6.626,0-26.447,3.648-39.204,8.496c-12.382,4.705-28.651,12.203-28.814,12.278l-18.842,12.409
				c2.285,0.644,8.298,2.277,17.686,4.398l10.869-19.393l10.561-5.423l-10.127,27.246l1.078,0.22l9.481-26.783l0.172-0.091
				c8.485-4.493,32.219-10.333,33.225-10.579l1.343-0.329l-0.822,1.112c-7.034,9.517-12.534,33.89-14.212,41.968
				c2.847,0.461,5.778,0.921,8.815,1.379c0.537-21.906,10.957-44.383,11.063-44.609l0.12-0.257l0.283-0.028
				c0.1-0.009,10.293-0.962,23.043,3.538c12.779,4.511,19.969,13.365,20.04,13.454l0.143,0.179l-6.493,35.019l1.662,0.252
				l5.751-33.312l8.607,10.829L217.217,233.724z"/>
		</g>
		<g>
			<path style="fill:#263238;" d="M223.293,218.057c0,0-4.515-4.013-6.773-2.258c-2.258,1.756-3.261,5.017-3.261,5.017l-4.515-0.502
				c0,0-4.013-10.535-7.023-10.786c-3.01-0.251-17.308-1.003-20.569,0.251c-3.261,1.254-3.762,4.013-4.013,5.769
				c-0.251,1.756-0.753,7.274,1.756,8.528c2.508,1.254,26.087,4.013,26.087,4.013l8.027,3.01l-1.254,2.759l14.548,1.756
				c0,0,4.515-8.027,5.017-10.535C231.821,222.572,223.293,218.057,223.293,218.057z"/>
			<path style="fill:#263238;" d="M226.575,236.153l-15.558-1.878l1.315-2.893l-7.469-2.801c-1.605-0.188-23.674-2.797-26.192-4.056
				c-2.873-1.437-2.278-7.288-2.027-9.046c0.221-1.545,0.681-4.762,4.329-6.165c3.502-1.345,18.628-0.462,20.79-0.282
				c3.039,0.253,6.578,8.874,7.339,10.821l3.816,0.424c0.351-0.952,1.392-3.389,3.296-4.87c2.451-1.908,6.837,1.778,7.365,2.238
				c1.591,0.846,8.773,4.831,8.231,7.536c-0.511,2.557-4.885,10.352-5.071,10.683L226.575,236.153z M212.492,233.445l13.537,1.634
				c0.809-1.457,4.372-7.958,4.8-10.097c0.295-1.477-4.366-4.68-7.77-6.483l-0.098-0.068c-1.17-1.038-4.553-3.463-6.133-2.237
				c-2.102,1.635-3.081,4.738-3.09,4.77l-0.122,0.395l-5.229-0.58l-0.109-0.285c-1.509-3.959-4.634-10.302-6.598-10.466
				c-3.442-0.286-17.282-0.96-20.347,0.22c-3.101,1.192-3.49,3.912-3.698,5.374c-0.447,3.129-0.326,7.105,1.484,8.01
				c1.993,0.997,19.387,3.199,25.921,3.964l0.118,0.028l8.528,3.198L212.492,233.445z"/>
		</g>
		<g>
			<path style="fill:#FFFFFF;" d="M207.239,221.569c1.505-1.254,1.505-1.254,1.505-1.254s-4.013-10.535-7.023-10.786
				c-3.01-0.251-17.308-1.003-20.569,0.251c-3.261,1.254-3.762,4.013-4.013,5.769c-0.132,0.919-0.327,2.869-0.128,4.7
				C184.01,220.845,205.975,222.623,207.239,221.569z"/>
			<path style="fill:#263238;" d="M203.369,222.379c-4.8,0-13.626-0.545-26.4-1.632l-0.41-0.035l-0.044-0.409
				c-0.225-2.063,0.043-4.214,0.13-4.825c0.221-1.545,0.681-4.762,4.329-6.165c3.502-1.345,18.628-0.462,20.79-0.282
				c3.23,0.269,7.027,9.997,7.449,11.106l0.127,0.334l-1.779,1.483C207.218,222.238,205.817,222.379,203.369,222.379z
				 M177.47,219.786c16.823,1.424,28.357,1.968,29.462,1.388l1.216-1.014c-1.552-3.972-4.56-9.974-6.469-10.134
				c-3.442-0.286-17.282-0.96-20.347,0.22c-3.101,1.192-3.49,3.912-3.698,5.374C177.556,216.161,177.331,217.97,177.47,219.786z"/>
		</g>
		<path style="fill:#263238;" d="M215.767,241.135l-0.962-0.274c0.828-2.906,1.485-4.881,1.492-4.901l0.948,0.316
			C217.239,236.295,216.589,238.252,215.767,241.135z"/>
		<path style="fill:#263238;" d="M207.741,312.37c-1.875,0-87.554-9.936-88.356-10.037c-1.784-0.223-2.641-0.814-4.197-1.885
			c-0.311-0.214-0.651-0.448-1.035-0.704c-2.529-1.686-17.514-42.821-19.017-48.19c-0.255-0.909-0.466-2.179-0.628-3.775
			l0.995-0.101c0.156,1.539,0.356,2.752,0.596,3.606c1.928,6.889,16.54,46.148,18.609,47.629c0.388,0.259,0.732,0.496,1.046,0.712
			c1.473,1.014,2.212,1.522,3.754,1.716c0.801,0.1,86.468,10.025,88.232,10.029c1.417,0,1.795-0.24,2.269-2.607
			c0.26-1.301,0.462-13.201,0.658-24.71c0.174-10.235,0.354-20.819,0.587-25.137c0.191-3.534,0.972-8.064,2.321-13.463l0.97,0.242
			c-1.334,5.337-2.104,9.804-2.292,13.276c-0.233,4.298-0.413,14.873-0.586,25.1c-0.206,12.085-0.399,23.499-0.677,24.888
			C210.487,311.477,209.921,312.37,207.741,312.37z"/>
		<path style="fill:#263238;" d="M94.198,242.933c-0.316-8.606,0.242-19.722,0.432-20.481c0.253-1.014,5.056-3.601,9.04-5.594
			l0.447,0.895c-3.918,1.959-8.181,4.359-8.533,4.984c-0.133,0.601-0.707,11.442-0.388,20.159L94.198,242.933z"/>
		<path style="fill:#263238;" d="M148.04,302.589h-1v-1.254c0-0.258-0.165-2.737-0.393-6.17c-0.262-3.953-0.624-9.416-0.989-15.277
			l0.998-0.063c0.365,5.86,0.727,11.321,0.989,15.273c0.267,4.016,0.395,5.958,0.395,6.236V302.589z"/>
		<path style="fill:#263238;" d="M145.16,271.587c-0.766-13.288-1.061-21.603-0.878-24.712c0.499-8.492,4-19.822,4.035-19.936
			l0.955,0.297c-0.035,0.112-3.499,11.329-3.992,19.697c-0.181,3.071,0.115,11.346,0.878,24.597L145.16,271.587z"/>
		<g>
			<g>
				<path style="fill:#263238;" d="M107.36,232.833c-0.528,2.72-2.059,4.711-3.419,4.447c-1.36-0.264-2.034-2.683-1.506-5.403
					s2.059-4.711,3.419-4.447C107.214,227.694,107.888,230.113,107.36,232.833z"/>
				<path style="fill:#263238;" d="M104.191,237.804c-0.115,0-0.23-0.011-0.345-0.033c-0.854-0.165-1.51-0.925-1.848-2.137
					c-0.305-1.094-0.324-2.461-0.054-3.852c0.59-3.036,2.349-5.168,4.004-4.842c1.656,0.322,2.491,2.952,1.902,5.989l0,0
					c-0.27,1.391-0.8,2.652-1.492,3.552C105.695,237.344,104.937,237.804,104.191,237.804z M105.613,227.907
					c-0.926,0-2.205,1.585-2.687,4.065c-0.241,1.241-0.228,2.446,0.036,3.393c0.228,0.817,0.62,1.336,1.075,1.424
					c0.462,0.09,1.014-0.247,1.529-0.918c0.599-0.779,1.062-1.892,1.303-3.133c0.507-2.613-0.179-4.636-1.111-4.817
					C105.712,227.912,105.663,227.907,105.613,227.907z"/>
			</g>
			<g>
				<path style="fill:#92E3A9;" d="M107.141,230.919l-6.049-0.62c-1.073-0.11-2.023,0.692-2.095,1.768l0,0
					c-0.067,1.007,0.663,1.891,1.664,2.016l6.034,0.754c1.177,0.147,2.216-0.77,2.216-1.956l0,0
					C108.911,231.87,108.147,231.023,107.141,230.919z"/>
				<path style="fill:#263238;" d="M106.939,235.352c-0.102,0-0.204-0.006-0.306-0.019l-6.034-0.754
					c-1.263-0.158-2.186-1.276-2.101-2.545c0.044-0.657,0.345-1.253,0.848-1.678c0.503-0.424,1.141-0.62,1.796-0.555l6.049,0.621
					c1.266,0.13,2.22,1.187,2.22,2.459c0,0.708-0.305,1.384-0.836,1.853C108.122,235.135,107.538,235.352,106.939,235.352z
					 M100.895,230.789c-0.331,0-0.646,0.115-0.903,0.331c-0.293,0.248-0.47,0.596-0.495,0.98c-0.05,0.742,0.489,1.395,1.227,1.487
					l6.034,0.754c0.422,0.05,0.84-0.078,1.157-0.357c0.316-0.279,0.498-0.682,0.498-1.104c0-0.757-0.568-1.387-1.321-1.464h0
					l-6.049-0.621C100.992,230.791,100.943,230.789,100.895,230.789z"/>
			</g>
		</g>
		<g>
			<g>
				<path style="fill:#263238;" d="M159.58,239.479c-0.614,3.29-2.395,5.699-3.977,5.379c-1.582-0.32-2.367-3.246-1.752-6.536
					c0.614-3.29,2.395-5.698,3.977-5.379C159.41,233.262,160.195,236.188,159.58,239.479z"/>
				<path style="fill:#263238;" d="M155.886,245.386c-0.128,0-0.256-0.013-0.382-0.038c-1.877-0.379-2.819-3.505-2.145-7.118
					c0.455-2.435,1.542-4.491,2.836-5.364c0.569-0.384,1.167-0.526,1.731-0.413c1.877,0.379,2.819,3.505,2.145,7.118
					c-0.455,2.435-1.542,4.491-2.836,5.364C156.793,245.233,156.333,245.386,155.886,245.386z M157.543,233.415
					c-0.248,0-0.512,0.094-0.788,0.28c-1.064,0.718-2.011,2.57-2.412,4.719c-0.603,3.225,0.232,5.726,1.359,5.954
					c0.297,0.061,0.627-0.028,0.974-0.262c1.064-0.718,2.011-2.57,2.412-4.719c0.603-3.226-0.233-5.727-1.359-5.954
					C157.669,233.421,157.606,233.415,157.543,233.415z"/>
			</g>
			<g>
				<path style="fill:#92E3A9;" d="M159.325,237.163l-7.037-0.751c-1.248-0.133-2.353,0.837-2.437,2.139l0,0
					c-0.078,1.218,0.771,2.288,1.936,2.439l7.019,0.912c1.369,0.178,2.578-0.932,2.578-2.367l0,0
					C161.385,238.313,160.495,237.288,159.325,237.163z"/>
				<path style="fill:#263238;" d="M159.089,242.421c-0.115,0-0.231-0.007-0.347-0.022l-7.019-0.913
					c-1.424-0.184-2.465-1.488-2.371-2.967c0.05-0.772,0.411-1.497,0.993-1.987c0.563-0.475,1.274-0.695,1.996-0.617l7.038,0.751
					c1.429,0.152,2.507,1.386,2.507,2.87c0,0.847-0.358,1.648-0.984,2.198C160.394,242.179,159.749,242.421,159.089,242.421z
					 M152.059,236.9c-0.389,0-0.763,0.138-1.07,0.396c-0.379,0.32-0.606,0.777-0.639,1.287c-0.061,0.954,0.598,1.794,1.501,1.911
					l7.019,0.913c0.5,0.064,0.985-0.086,1.371-0.425c0.409-0.359,0.644-0.887,0.644-1.446c0-0.971-0.693-1.777-1.613-1.876
					l-7.037-0.751C152.176,236.903,152.117,236.9,152.059,236.9z"/>
			</g>
		</g>
		<g>
			<path style="fill:#263238;" d="M78.059,219.813c0.153-1.684-3.334-3.551-6.078-4.754c-2.316,0.851-4.055,1.892-4.457,3.499
				c-1.003,4.013-1.756,11.037-1.756,11.037S77.808,222.572,78.059,219.813z"/>
			<path style="fill:#263238;" d="M65.165,230.526l0.105-0.983c0.031-0.288,0.768-7.104,1.768-11.104
				c0.511-2.044,2.817-3.13,4.769-3.848l0.188-0.069l0.185,0.081c4.435,1.943,6.52,3.663,6.376,5.257l0,0
				c-0.261,2.87-10.489,8.974-12.537,10.168L65.165,230.526z M71.965,215.599c-2.399,0.908-3.658,1.889-3.957,3.081
				c-0.76,3.042-1.383,7.895-1.629,9.973c4.569-2.741,11.025-7.173,11.182-8.885C77.653,218.751,75.565,217.198,71.965,215.599z"/>
		</g>
		<g>
			<g>
				<path style="fill:#FFFFFF;" d="M313.233,183.419l-46.41,40.508c8.342-0.132,24.151-0.245,46.943,0.164l22.089-31.322
					c-2.764-1.495-5.162-2.657-6.96-3.308C320.227,186.327,317.929,184.413,313.233,183.419z"/>
				<path style="fill:#263238;" d="M314.022,224.597l-0.265-0.005c-22.145-0.398-37.741-0.31-46.926-0.165l-1.366,0.021
					l47.628-41.571l0.244,0.052c2.643,0.559,4.535,1.402,7.155,2.568c2.096,0.933,4.704,2.094,8.572,3.493
					c1.715,0.62,4.079,1.743,7.028,3.338l0.495,0.268L314.022,224.597z M283.776,223.306c8.073,0,17.975,0.072,29.733,0.282
					l21.611-30.645c-2.675-1.43-4.824-2.441-6.396-3.01c-3.902-1.411-6.528-2.581-8.639-3.52c-2.482-1.104-4.297-1.913-6.713-2.451
					l-45.194,39.446C272.262,223.35,277.459,223.306,283.776,223.306z"/>
			</g>
			<g>
				<path style="fill:#FFFFFF;" d="M356.886,224.878l3.034-17.318c-3.431-2.254-7.068-4.602-10.645-6.844
					c-3.229,7.652-6.795,16.111-10.079,23.907C345.875,224.746,351.754,224.827,356.886,224.878z"/>
				<path style="fill:#263238;" d="M357.305,225.382l-0.424-0.004c-5.512-0.055-11.465-0.14-17.694-0.254l-0.738-0.014l0.286-0.681
					c3.284-7.795,6.85-16.255,10.079-23.907l0.228-0.542l0.498,0.312c3.3,2.069,6.885,4.374,10.654,6.85l0.274,0.181
					L357.305,225.382z M339.943,224.137c5.801,0.104,11.353,0.184,16.524,0.236l2.904-16.576c-3.476-2.28-6.789-4.412-9.864-6.345
					C346.433,208.737,343.069,216.716,339.943,224.137z"/>
			</g>
		</g>
	</g>
</g>
<g id="Power_Plug">
	<g>
		<g>
			<path style="fill:#263238;" d="M328.784,437.199l27.87-9.135c7.849-2.573,12.187-10.962,9.749-18.854l-2.56-8.288
				c-2.452-7.938-10.843-12.417-18.802-10.036l-30.491,9.119L328.784,437.199z"/>
			<path style="fill:#263238;" d="M328.486,437.822L313.89,399.68l0.516-0.155l30.491-9.118c8.186-2.448,16.901,2.202,19.424,10.368
				l2.56,8.288c2.503,8.1-2.015,16.836-10.071,19.477L328.486,437.822z M315.208,400.328l13.872,36.248l27.418-8.988
				c7.54-2.471,11.77-10.648,9.427-18.23l-2.56-8.288c-2.361-7.643-10.52-12.001-18.182-9.704L315.208,400.328z"/>
		</g>
		<g>
			<path style="fill:#C2C2C2;" d="M296.16,468.132l15.014-5.642c14.98-5.629,23.133-21.812,18.742-37.2l-3.789-13.276
				c-4.563-15.99-21.018-25.45-37.132-21.348l-20.16,5.132c0,0,13.499,19.716,19.296,38.875
				C293.927,453.831,296.16,468.132,296.16,468.132z"/>
			<path style="fill:#263238;" d="M295.761,468.816l-0.095-0.607c-0.022-0.143-2.296-14.49-8.014-33.393
				c-5.708-18.866-19.095-38.539-19.23-38.736l-0.404-0.59l20.854-5.31c16.492-4.201,33.068,5.333,37.736,21.696l3.789,13.275
				c4.43,15.522-3.937,32.128-19.046,37.806L295.761,468.816z M269.644,396.107c2.28,3.44,13.771,21.251,18.965,38.42
				c5.078,16.783,7.45,29.996,7.945,32.922l14.445-5.427c14.626-5.496,22.724-21.57,18.436-36.596l-3.789-13.275
				c-4.52-15.84-20.566-25.066-36.528-21.002L269.644,396.107z"/>
		</g>
		<g>
			<path style="fill:#263238;" d="M289.441,428.668c7.662,20.304,10.67,37.973,6.72,39.463l-6.994,2.082l-9.437-25.009
				c-1.563-3.468-3.112-7.206-4.595-11.138c-1.484-3.931-2.79-7.762-3.908-11.397l-9.805-25.984l6.994-2.082
				C272.365,393.113,281.779,408.364,289.441,428.668z"/>
			<path style="fill:#263238;" d="M288.863,470.826l-9.601-25.444c-1.595-3.537-3.145-7.294-4.596-11.138
				c-1.45-3.843-2.768-7.688-3.919-11.427l-9.984-26.458l7.508-2.235c4.907-1.846,14.826,16.319,21.637,34.368
				c6.811,18.049,11.379,38.239,6.429,40.107L288.863,470.826z M262.078,397.012l9.616,25.482c1.154,3.749,2.466,7.574,3.908,11.397
				c1.443,3.824,2.985,7.563,4.584,11.109l9.284,24.602l6.548-1.949c3.128-1.182,1.027-17.418-7.045-38.807l0,0
				c-8.072-21.39-17.216-34.964-20.382-33.774L262.078,397.012z"/>
		</g>
		<g>
			
				<ellipse transform="matrix(0.9356 -0.3531 0.3531 0.9356 -135.3026 125.1059)" style="fill:#FFFFFF;" cx="275.294" cy="433.45" rx="7.646" ry="39.294"/>
			<path style="fill:#263238;" d="M288.601,470.815c-5.147,0-14.443-17.302-20.929-34.489c-6.811-18.049-11.379-38.239-6.429-40.107
				c4.961-1.857,14.86,16.307,21.671,34.355l0,0c6.81,18.05,11.378,38.24,6.429,40.108
				C289.107,470.771,288.859,470.815,288.601,470.815z M262.013,397.081c-0.148,0-0.288,0.023-0.417,0.072
				c-3.162,1.193-1.061,17.43,7.011,38.818c8.071,21.389,17.207,34.971,20.382,33.774c3.162-1.193,1.06-17.43-7.011-38.819
				C274.236,410.409,265.503,397.081,262.013,397.081z"/>
		</g>
		<g>
			<g>
				<path style="fill:#263238;" d="M283.182,444.861l-0.618-1.394l-35.462,11.643c-2.609,0.856-3.782,3.885-2.431,6.275l0.023,0.041
					c0.99,1.752,3.052,2.596,4.987,2.042L283.182,444.861z"/>
				<path style="fill:#263238;" d="M248.473,464.139c-1.714,0-3.335-0.91-4.214-2.466c-0.741-1.312-0.851-2.82-0.324-4.181
					c0.527-1.36,1.624-2.401,3.011-2.856l35.892-11.784l0.987,2.225l-34.005,18.873
					C249.372,464.077,248.919,464.139,248.473,464.139z M282.29,444.084l-35.032,11.501c-1.1,0.361-1.971,1.188-2.39,2.268
					c-0.418,1.08-0.331,2.277,0.238,3.286c0.893,1.58,2.68,2.322,4.384,1.863l33.049-18.356L282.29,444.084z"/>
			</g>
			<g>
				<path style="fill:#FFFFFF;" d="M283.387,453.844l-0.206-8.983l-35.462,11.643c-2.609,0.856-3.782,3.885-2.431,6.275l0.023,0.041
					c0.99,1.752,3.052,2.596,4.987,2.042L283.387,453.844z"/>
				<path style="fill:#263238;" d="M249.091,465.53c-1.72,0-3.336-0.91-4.214-2.464c-0.741-1.311-0.851-2.819-0.324-4.181
					c0.527-1.36,1.624-2.401,3.011-2.856l36.102-11.853l0.229,10.025l-0.35,0.117l-33.088,11.019
					C250.003,465.467,249.543,465.53,249.091,465.53z M282.697,445.547l-34.822,11.432c-1.1,0.361-1.972,1.189-2.39,2.269
					c-0.419,1.08-0.332,2.278,0.238,3.286c0.903,1.598,2.718,2.343,4.437,1.849l32.718-10.896L282.697,445.547z"/>
			</g>
		</g>
		<g>
			<g>
				<path style="fill:#263238;" d="M271.169,419.475l-0.618-1.394l-35.462,11.643c-2.608,0.857-3.782,3.885-2.431,6.275l0.023,0.041
					c0.99,1.752,3.052,2.596,4.987,2.042L271.169,419.475z"/>
				<path style="fill:#263238;" d="M236.46,438.753c-1.713,0-3.334-0.911-4.213-2.467c-0.741-1.311-0.851-2.818-0.324-4.179
					c0.527-1.361,1.624-2.403,3.011-2.858l35.892-11.784l0.986,2.225l-0.399,0.223l-33.605,18.65
					C237.358,438.691,236.906,438.753,236.46,438.753z M270.277,418.697l-35.032,11.501c-1.101,0.362-1.972,1.189-2.39,2.271
					c-0.418,1.079-0.331,2.276,0.239,3.284c0.894,1.581,2.68,2.327,4.383,1.863l33.05-18.356L270.277,418.697z"/>
			</g>
			<g>
				<path style="fill:#FFFFFF;" d="M271.375,428.457l-0.206-8.983l-35.462,11.643c-2.608,0.857-3.782,3.885-2.431,6.275l0.023,0.041
					c0.99,1.752,3.052,2.596,4.987,2.042L271.375,428.457z"/>
				<path style="fill:#263238;" d="M237.079,440.144c-1.72,0-3.336-0.91-4.214-2.464c-0.742-1.311-0.851-2.819-0.324-4.181
					c0.527-1.359,1.624-2.4,3.01-2.855l36.102-11.854l0.23,10.025l-0.35,0.117l-33.088,11.019
					C237.99,440.08,237.53,440.144,237.079,440.144z M270.684,420.16l-34.822,11.433c-1.1,0.361-1.971,1.189-2.389,2.268
					c-0.419,1.08-0.332,2.278,0.238,3.287c0.904,1.598,2.72,2.342,4.437,1.848l32.718-10.895L270.684,420.16z"/>
			</g>
		</g>
	</g>
</g>
<g id="Electricity">
	<g>
		
			<ellipse transform="matrix(0.9724 -0.2332 0.2332 0.9724 -92.2962 47.887)" style="fill:#263238;" cx="156.412" cy="414.353" rx="37.771" ry="37.771"/>
		<g>
			<polygon style="fill:#FFFFFF;" points="178.755,416.9 163.933,416.9 170.238,369.305 134.75,417.526 149.572,417.526 
				143.268,465.121 			"/>
			<path style="fill:#263238;" d="M142.516,466.985l6.485-48.959h-15.24l37.228-50.586l-6.486,48.959h15.24L142.516,466.985z
				 M135.739,417.026h14.404l-6.124,46.23l33.747-45.857h-14.404l6.125-46.23L135.739,417.026z"/>
		</g>
	</g>
</g>
<g id="Oil">
	<g>
		<path style="fill:#263238;" d="M391.295,117.755c0,20.018-16.227,36.245-36.245,36.245c-20.018,0-36.245-16.228-36.245-36.245
			s36.245-63.693,36.245-63.693S391.295,97.737,391.295,117.755z"/>
		<g style="opacity:0.44;">
			
				<ellipse transform="matrix(0.9811 -0.1933 0.1933 0.9811 -14.2653 74.984)" style="fill:#FFFFFF;" cx="377.057" cy="110.582" rx="6.875" ry="14.835"/>
			<path style="fill:#263238;" d="M379.287,125.7c-1.792,0-3.674-1.249-5.377-3.591c-1.857-2.556-3.31-6.143-4.089-10.1
				c-0.78-3.958-0.797-7.828-0.048-10.897c0.781-3.2,2.314-5.18,4.318-5.575c2.009-0.396,4.175,0.856,6.111,3.52
				c1.857,2.556,3.31,6.143,4.089,10.1l0,0c0.78,3.958,0.797,7.828,0.048,10.897c-0.781,3.2-2.315,5.18-4.318,5.575
				C379.779,125.676,379.533,125.7,379.287,125.7z M374.828,96.465c-0.184,0-0.364,0.018-0.543,0.053
				c-1.6,0.315-2.857,2.031-3.54,4.83c-0.716,2.931-0.695,6.648,0.057,10.467c0.753,3.818,2.144,7.265,3.918,9.706
				c1.695,2.332,3.51,3.443,5.108,3.127c1.6-0.315,2.857-2.031,3.54-4.831c0.716-2.931,0.695-6.648-0.057-10.467
				c-0.753-3.818-2.144-7.265-3.918-9.706C377.888,97.572,376.288,96.465,374.828,96.465z"/>
		</g>
	</g>
</g>
<g id="Gasoline_Hose">
	<g>
		<g>
			<path style="fill:#263238;" d="M155.476,98.571c-2.016,0.66-3.892,0.382-4.308,17.636c-0.416,17.254,3.037,25.155,5.478,24.671
				c2.441-0.484-1.32-4.031,0.102-8.671c1.422-4.64,1.941-8.906,1.758-11.471c-0.184-2.565-1.767-5.959-1.049-8.898
				c0.718-2.939,2.975-5.989,4.104-7.513c1.129-1.525,2.594-2.661,6.304,1.612c3.709,4.273,5.073,8.239,4.926,9.755
				s-14.224,28.968-15.653,30.617c-1.429,1.649-3.269,1.884-6.919-0.124c-3.65-2.008-6.414-3.151-7.213-4.229
				c-0.799-1.077-6.516-1.7-3.644-13.457c2.872-11.757,6.492-21.711,6.492-21.711s-11.397,6.488-17.026,12.872
				s-10.216,18.677-10.216,18.677s7.645,0.175,13.018,4.638c5.373,4.463,7.433,7.307,9.303,11.815
				c1.869,4.508,1.474,9.074-0.644,11.185c-2.118,2.111-3.716-0.044-5.439-2.499c-1.723-2.455-4.655-7.402-4.325-2.785
				c0.33,4.618,6.488,11.397,11.025,14.27c4.537,2.873,6.993,1.15,8.136-1.613c1.143-2.763,26.177-53.649,26.58-55.224
				s0.769-3.665,0.696-4.691c-0.073-1.026-3.951-9.103-8.012-12.526C164.887,97.485,157.491,97.911,155.476,98.571z
				 M151.193,154.057c1.737,1.217,2.273,2.932,2.273,2.932l-5.174,11.303l-4.018-14.359l0.168-3.416
				C144.442,150.518,149.456,152.841,151.193,154.057z"/>
			<path style="fill:#263238;" d="M145.713,176.944c-1.308,0-2.792-0.521-4.432-1.56c-4.465-2.827-10.907-9.77-11.256-14.656
				c-0.075-1.04-0.052-2.137,0.681-2.39c0.92-0.317,1.923,0.98,3.837,3.808c0.251,0.372,0.493,0.729,0.714,1.044
				c1.001,1.426,2.135,3.044,3.225,3.139c0.46,0.04,0.934-0.191,1.452-0.707c2.028-2.023,2.253-6.497,0.535-10.64
				c-1.945-4.691-4.086-7.406-9.16-11.622c-5.171-4.295-12.636-4.521-12.71-4.523l-0.702-0.017l0.246-0.658
				c0.188-0.505,4.684-12.453,10.309-18.833c5.62-6.374,16.685-12.71,17.153-12.977l1.182-0.673l-0.465,1.278
				c-0.036,0.099-3.644,10.065-6.476,21.659c-2.287,9.36,0.91,11.292,2.628,12.33c0.411,0.248,0.735,0.444,0.933,0.71
				c0.49,0.661,2.049,1.466,4.022,2.486c0.91,0.47,1.93,0.997,3.03,1.602c3.655,2.01,5.161,1.548,6.3,0.234
				c1.348-1.556,15.286-28.781,15.535-30.345c0.138-1.429-1.262-5.289-4.807-9.373c-1.651-1.901-2.958-2.833-3.916-2.811
				c-0.543,0.021-1.01,0.36-1.608,1.169c-1.08,1.459-3.326,4.493-4.02,7.334c-0.435,1.781,0.037,3.765,0.492,5.683
				c0.258,1.086,0.502,2.112,0.57,3.061c0.209,2.925-0.473,7.39-1.779,11.653c-0.681,2.224-0.079,4.232,0.361,5.699
				c0.336,1.122,0.602,2.007,0.21,2.659c-0.203,0.337-0.558,0.558-1.053,0.656c-0.379,0.076-0.972,0.046-1.647-0.522
				c-2.27-1.911-4.792-9.513-4.427-24.651c0.405-16.796,2.245-17.36,4.376-18.012l0.276-0.086c2.269-0.743,9.75-1.111,13.95,2.43
				c4.166,3.511,8.102,11.665,8.188,12.872c0.08,1.114-0.312,3.295-0.71,4.851c-0.226,0.885-6.726,14.273-15.883,33.09
				c-5.265,10.819-10.237,21.037-10.719,22.202c-0.691,1.672-1.763,2.78-3.099,3.204
				C146.626,176.878,146.181,176.944,145.713,176.944z M131.067,159.335c-0.044,0.152-0.102,0.517-0.044,1.322
				c0.297,4.158,6.046,10.877,10.794,13.883c1.964,1.244,3.623,1.665,4.929,1.251c1.061-0.336,1.894-1.222,2.477-2.633
				c0.493-1.192,5.244-10.954,10.744-22.257c6.922-14.226,15.538-31.93,15.813-32.902c0.39-1.525,0.75-3.572,0.681-4.53
				c-0.067-0.868-3.892-8.855-7.836-12.179c-3.845-3.241-10.945-2.916-12.994-2.244l-0.295,0.092
				c-1.613,0.494-3.282,1.005-3.669,17.08c-0.333,13.761,1.878,22.016,4.071,23.862c0.298,0.25,0.569,0.352,0.809,0.307
				c0.207-0.041,0.339-0.106,0.391-0.192c0.164-0.272-0.077-1.077-0.311-1.855c-0.477-1.589-1.129-3.766-0.359-6.28
				c1.521-4.964,1.895-9.087,1.738-11.289c-0.063-0.868-0.297-1.855-0.545-2.901c-0.461-1.938-0.983-4.136-0.491-6.151
				c0.742-3.037,3.069-6.181,4.188-7.691c0.559-0.754,1.277-1.531,2.374-1.573c1.318-0.055,2.798,0.952,4.709,3.154
				c3.522,4.057,5.229,8.247,5.047,10.131c-0.155,1.604-14.16,29.035-15.773,30.897c-1.722,1.988-3.907,1.985-7.538-0.013
				c-1.092-0.6-2.104-1.123-3.007-1.59c-2.251-1.163-3.739-1.932-4.367-2.779c-0.08-0.108-0.368-0.282-0.647-0.45
				c-1.799-1.087-5.542-3.35-3.082-13.423c2.248-9.201,4.982-17.382,6.05-20.464c-3.047,1.836-11.27,7.023-15.723,12.074
				c-4.776,5.418-8.854,15.295-9.876,17.886c2.045,0.158,8.074,0.936,12.623,4.714c5.157,4.284,7.452,7.202,9.445,12.008
				c1.897,4.574,1.588,9.398-0.752,11.73c-0.729,0.728-1.483,1.063-2.246,0.995c-1.553-0.137-2.775-1.878-3.956-3.561
				c-0.224-0.319-0.469-0.681-0.724-1.058C132.981,161.621,131.653,159.658,131.067,159.335z M148.178,169.741l-4.408-15.751
				l0.209-4.238l0.673,0.312c0.206,0.096,5.074,2.356,6.827,3.584l0,0c1.856,1.299,2.439,3.116,2.463,3.192l0.057,0.183
				L148.178,169.741z M144.777,153.877l3.628,12.965l4.519-9.872c-0.18-0.435-0.757-1.62-2.018-2.503l0,0
				c-1.307-0.915-4.583-2.505-6.002-3.179L144.777,153.877z"/>
		</g>
		<g>
			<path style="fill:#FFFFFF;" d="M89.716,162.783c-0.654,1.582,2.492,4.385,7.027,6.262c4.536,1.876,8.743,2.115,9.397,0.533
				c1.021-1.758,7.407-12.937,7.407-12.937l-16.424-6.795C91.74,158.945,89.716,162.783,89.716,162.783z"/>
			<path style="fill:#263238;" d="M103.461,171.124c-0.189,0-0.386-0.006-0.591-0.018c-1.829-0.104-4.073-0.672-6.316-1.601
				c-4.205-1.74-8.192-4.754-7.298-6.915l0.02-0.042c0.021-0.038,2.091-3.953,7.419-12.958l0.221-0.373l17.35,7.177l-0.282,0.493
				c0,0-6.388,11.182-7.409,12.94C106.231,170.665,105.152,171.124,103.461,171.124z M90.171,162.993
				c-0.378,1.017,1.992,3.615,6.764,5.59c2.143,0.887,4.271,1.429,5.991,1.526c1.484,0.088,2.534-0.193,2.753-0.722
				c0.917-1.588,5.908-10.322,7.153-12.501l-15.499-6.412C92.394,158.833,90.347,162.661,90.171,162.993z"/>
		</g>
		<g>
			<path style="fill:#FFFFFF;" d="M106.521,150.379c4.535,1.876,7.682,4.68,7.027,6.261c-0.654,1.582-4.862,1.343-9.397-0.533
				c-4.535-1.876-7.682-4.68-7.027-6.261C97.778,148.264,101.985,148.503,106.521,150.379z"/>
			<path style="fill:#263238;" d="M110.865,158.188c-0.188,0-0.385-0.006-0.588-0.018c-1.83-0.104-4.073-0.672-6.316-1.601
				c-2.244-0.928-4.233-2.11-5.602-3.33c-1.521-1.354-2.107-2.594-1.697-3.585c0.41-0.991,1.702-1.451,3.733-1.338
				c1.829,0.104,4.072,0.672,6.316,1.601l0,0c4.205,1.74,8.192,4.754,7.298,6.914C113.641,157.723,112.559,158.188,110.865,158.188z
				 M99.832,149.3c-1.211,0-2.053,0.27-2.246,0.737c-0.219,0.53,0.332,1.471,1.438,2.456c1.287,1.146,3.175,2.266,5.318,3.152
				c2.143,0.887,4.27,1.429,5.991,1.526c1.481,0.088,2.534-0.193,2.753-0.722c0.415-1.003-1.955-3.622-6.756-5.609
				c-2.143-0.886-4.271-1.428-5.991-1.526C100.163,149.305,99.994,149.3,99.832,149.3z"/>
		</g>
		<g>
			<path style="fill:#FFFFFF;" d="M98.985,146.777c-0.654,1.582,2.492,4.385,7.027,6.262c4.535,1.876,8.743,2.115,9.397,0.533
				c1.021-1.758,7.407-12.937,7.407-12.937l-16.424-6.795C101.008,142.939,98.985,146.777,98.985,146.777z"/>
			<path style="fill:#263238;" d="M112.729,155.119c-0.189,0-0.387-0.006-0.591-0.018c-1.83-0.104-4.073-0.672-6.317-1.601
				c-2.244-0.928-4.233-2.11-5.601-3.33c-1.521-1.354-2.107-2.594-1.697-3.585l0.02-0.042c0.021-0.038,2.091-3.953,7.419-12.958
				l0.221-0.374l17.35,7.177l-0.282,0.493c0,0-6.388,11.182-7.408,12.94C115.5,154.66,114.421,155.119,112.729,155.119z
				 M99.44,146.987c-0.199,0.533,0.352,1.463,1.445,2.437c1.287,1.146,3.175,2.266,5.318,3.152c2.143,0.887,4.271,1.429,5.991,1.526
				c1.485,0.082,2.534-0.193,2.753-0.722c0.917-1.588,5.908-10.322,7.153-12.501l-15.499-6.412
				C101.662,142.828,99.615,146.657,99.44,146.987z"/>
		</g>
		<g>
			<path style="fill:#FFFFFF;" d="M115.789,134.374c4.535,1.876,7.682,4.68,7.027,6.261c-0.654,1.582-4.862,1.343-9.397-0.533
				s-7.682-4.68-7.027-6.262C107.046,132.259,111.253,132.497,115.789,134.374z"/>
			<path style="fill:#263238;" d="M120.133,142.182c-0.188,0-0.385-0.006-0.588-0.017c-1.829-0.104-4.072-0.672-6.316-1.601
				c-4.205-1.74-8.192-4.754-7.298-6.915c0.41-0.991,1.699-1.455,3.733-1.338c1.83,0.104,4.073,0.672,6.316,1.601l0,0
				c2.244,0.928,4.233,2.11,5.602,3.33c1.521,1.355,2.107,2.594,1.697,3.585C122.909,141.718,121.827,142.182,120.133,142.182z
				 M109.1,133.294c-1.21,0-2.053,0.27-2.246,0.737c-0.415,1.003,1.955,3.622,6.756,5.609c2.144,0.886,4.271,1.428,5.991,1.526
				c1.482,0.083,2.534-0.192,2.753-0.722c0.219-0.53-0.332-1.471-1.438-2.456c-1.287-1.146-3.175-2.266-5.318-3.152l0,0
				c-2.143-0.887-4.271-1.429-5.991-1.526C109.431,133.299,109.262,133.294,109.1,133.294z"/>
		</g>
		<g>
			<path style="fill:#FFFFFF;" d="M101.646,138.926c-0.763,1.844,2.904,5.111,8.19,7.298c5.286,2.187,10.189,2.465,10.952,0.621
				c1.19-2.049,2.905-4.583,2.905-4.583l-19.142-7.919C104.004,134.452,101.646,138.926,101.646,138.926z"/>
			<path style="fill:#263238;" d="M117.666,148.565c-0.22,0-0.449-0.007-0.687-0.02c-2.123-0.121-4.728-0.781-7.335-1.859
				c-4.864-2.012-9.482-5.482-8.461-7.951l0.02-0.042c2.469-4.683,3.015-4.793,3.248-4.84l0.149-0.03l19.85,8.211l-0.344,0.508
				c-0.017,0.025-1.72,2.545-2.887,4.554C120.831,148.047,119.601,148.565,117.666,148.565z M102.1,139.136
				c-0.526,1.37,2.584,4.416,7.926,6.626c2.506,1.037,4.996,1.67,7.01,1.785c1.788,0.098,3.017-0.233,3.289-0.893
				c0.888-1.536,2.047-3.31,2.613-4.164l-18.312-7.575C104.154,135.457,103.007,137.418,102.1,139.136z"/>
		</g>
		<g>
			<path style="fill:#FFFFFF;" d="M115.503,134.964c5.286,2.187,8.953,5.454,8.19,7.298c-0.763,1.844-5.666,1.566-10.952-0.621
				c-5.286-2.187-8.953-5.454-8.19-7.298C105.313,132.499,110.217,132.777,115.503,134.964z"/>
			<path style="fill:#263238;" d="M120.568,143.981c-0.219,0-0.447-0.007-0.683-0.02c-2.124-0.121-4.728-0.781-7.335-1.859
				c-2.607-1.078-4.917-2.451-6.505-3.866c-1.743-1.553-2.42-2.965-1.956-4.084c1.021-2.469,6.742-1.662,11.605,0.351
				c2.607,1.078,4.918,2.451,6.505,3.866c1.743,1.553,2.419,2.965,1.956,4.084C123.739,143.458,122.505,143.981,120.568,143.981z
				 M107.671,133.614c-1.451,0-2.414,0.328-2.659,0.919c-0.273,0.66,0.361,1.765,1.698,2.956c1.506,1.342,3.716,2.652,6.222,3.689
				c2.506,1.037,4.996,1.67,7.01,1.785c1.785,0.097,3.016-0.233,3.29-0.893c0.273-0.661-0.361-1.765-1.698-2.956
				c-1.506-1.342-3.716-2.652-6.222-3.689C112.276,134.17,109.56,133.614,107.671,133.614z"/>
		</g>
		<g>
			<path style="fill:#C2C2C2;" d="M131.188,97.086c-2.443,1.994-19.879,27.378-23.888,34.273l-0.999,1.845
				c-0.023,0.042-0.039,0.086-0.061,0.128l0.15,0.508c0,0,0.547,2.725,4.427,4.883c3.88,2.159,6.782,2.667,7.342,2.484
				c0.108-0.035,0.236-0.086,0.37-0.141c0.197-0.262,0.384-0.535,0.548-0.829c3.019-5.417,8.056-13.757,13.826-20.48
				c9.372-10.919,22.977-17.543,22.977-17.543l-22.755-11.494C133.127,90.722,133.631,95.091,131.188,97.086z"/>
			<path style="fill:#263238;" d="M117.85,141.74c-1.246,0-4.045-0.783-7.274-2.579c-4.036-2.245-4.65-5.102-4.675-5.222
				l-0.197-0.659l1.156-2.159c3.877-6.671,21.431-32.316,24.011-34.422c2.2-1.795,1.763-5.879,1.759-5.92l-0.105-0.92l24.482,12.366
				l-0.906,0.441c-0.135,0.066-13.623,6.708-22.816,17.419c-5.657,6.59-10.61,14.73-13.769,20.397
				c-0.158,0.283-0.349,0.573-0.585,0.886l-0.082,0.109l-0.126,0.052c-0.146,0.061-0.288,0.116-0.406,0.154
				C118.202,141.72,118.045,141.74,117.85,141.74z M106.776,133.378l0.095,0.32c0.016,0.066,0.588,2.584,4.191,4.588
				c3.904,2.172,6.575,2.539,6.947,2.444c0.06-0.02,0.13-0.046,0.204-0.075c0.172-0.235,0.31-0.448,0.429-0.662
				c3.181-5.707,8.172-13.908,13.883-20.561c7.958-9.272,19.073-15.531,22.256-17.212l-21.11-10.663
				c0.017,1.456-0.221,4.327-2.167,5.916c-2.274,1.857-19.609,26.976-23.772,34.137L106.776,133.378z"/>
		</g>
		<g>
			<polygon style="fill:#FFFFFF;" points="180.1,77.466 222.757,61.989 260.915,63.69 261.559,54.567 220.375,51.353 
				175.346,66.893 			"/>
			<path style="fill:#263238;" d="M179.835,78.095l-5.169-11.496l45.645-15.751l0.104,0.008l41.678,3.252l-0.713,10.104
				l-38.545-1.718L179.835,78.095z M176.027,67.187l4.339,9.651l42.313-15.353l37.771,1.684l0.575-8.142L220.44,51.86
				L176.027,67.187z"/>
		</g>
		<g>
			<path style="fill:#C2C2C2;" d="M126.053,86.408c0,0,1.967,5.899,5.032,7.506c3.065,1.607,25.116,11.407,27.163,10.559
				c2.046-0.849,6.359-1.438,6.359-1.438s4.003,0.978,6.279,5.31c2.276,4.332,1.758,8.864,1.758,8.864s4.702,0.928,6.358-1.438
				c1.657-2.366,1.287-5.57,0.698-9.882c-0.589-4.312-5.242-14.374-6.091-16.42c-0.849-2.046-0.849-2.046-0.849-2.046l10.66-6.1
				l-8.117-17.259c0,0-27.511,4.215-30.016,4.535c-2.506,0.32-4.482,0.18-6.478,1.728C136.813,71.873,126.053,86.408,126.053,86.408
				z"/>
			<path style="fill:#263238;" d="M174.703,117.89c-1.16,0-2.07-0.173-2.156-0.19l-0.452-0.089l0.052-0.458
				c0.005-0.044,0.47-4.438-1.704-8.575c-1.957-3.725-5.294-4.861-5.871-5.033c-0.658,0.095-4.341,0.647-6.133,1.39
				c-2.435,1.017-25.681-9.579-27.586-10.578c-3.206-1.681-5.191-7.542-5.274-7.791l-0.082-0.247l0.155-0.209
				c0.441-0.596,10.824-14.609,12.852-16.18c1.722-1.334,3.393-1.495,5.328-1.68c0.447-0.043,0.91-0.087,1.394-0.149
				c2.47-0.315,29.729-4.491,30.003-4.533l0.369-0.057l8.473,18.014l-10.679,6.111l0.68,1.64c0.135,0.326,0.367,0.856,0.664,1.534
				c1.608,3.674,4.956,11.319,5.46,15.01c0.559,4.094,1.042,7.629-0.784,10.237C178.357,117.563,176.294,117.89,174.703,117.89z
				 M173.177,116.785c1.148,0.151,4.239,0.378,5.415-1.301c1.494-2.133,1.228-5.022,0.612-9.528
				c-0.485-3.553-3.794-11.112-5.385-14.744c-0.3-0.687-0.535-1.223-0.672-1.553l-1.018-2.453l10.643-6.089l-7.762-16.503
				c-3.287,0.503-27.335,4.183-29.659,4.48c-0.494,0.063-0.967,0.108-1.425,0.152c-1.854,0.178-3.318,0.318-4.811,1.475
				c-1.514,1.174-8.746,10.704-12.502,15.771c0.403,1.104,2.193,5.663,4.704,6.979c4.005,2.1,24.922,11.157,26.742,10.539
				c2.079-0.862,6.301-1.446,6.479-1.471l0.094-0.013l0.092,0.022c0.172,0.042,4.249,1.083,6.603,5.563
				C173.241,111.753,173.246,115.48,173.177,116.785z"/>
		</g>
		<path style="fill:#263238;" d="M172.333,87.681c-0.065-0.106-6.611-10.727-17.48-17.259l0.515-0.857
			c11.086,6.663,17.753,17.488,17.819,17.597L172.333,87.681z"/>
		<path style="fill:#263238;" d="M178.281,111.719c-0.59-9.368-4.424-15.816-5.512-17.473l-10.75,8.236l-0.608-0.794l11.572-8.866
			l0.302,0.408c0.216,0.291,5.29,7.25,5.994,18.426L178.281,111.719z"/>
	</g>
</g>
</svg>
