<?xml version="1.0" encoding="utf-8"?>
<!-- Generator: Adobe Illustrator 27.5.0, SVG Export Plug-In . SVG Version: 6.00 Build 0)  -->
<svg version="1.1" id="illustration" xmlns="http://www.w3.org/2000/svg" xmlns:xlink="http://www.w3.org/1999/xlink" x="0px"
	 y="0px" viewBox="0 0 4827.42 3458.174" style="enable-background:new 0 0 4827.42 3458.174;" xml:space="preserve">
<rect id="white" x="0.005" style="fill:#FFFFFF;" width="4827.416" height="3458.175"/>
<g id="_x31__1_">
	<path id="background_1_" style="fill:#DFEFEC;" d="M710.864,3230.52c-79.754-155.093-185.058-295.894-259.215-453.83
		c-160.508-341.844-160.452-757.341,0.148-1099.141s478.497-602.99,840.953-690.944c158.959-38.573,324.665-45.445,481.504-92.132
		c279.771-83.279,507.548-284.726,754.619-442.002s554.691-274.336,826.361-166.86c219.84,86.971,364.414,301.772,465.328,518.516
		s174.169,450.367,317.072,641.154c137.254,183.246,310.745,319.676,420.261,521.297
		c110.044,202.593,116.037,459.978,15.546,667.637c-93.233,192.659-268.482,622.461-479.707,622.461L710.864,3230.52z"/>
	<g id="car">
		<path style="fill:#0E0E0E;" d="M3047.451,2217.524h-123.653c-19.922,0-36.222-16.3-36.222-36.222v-6.682
			c0-19.922,16.3-36.222,36.222-36.222h123.653c19.922,0,36.222,16.3,36.222,36.222v6.682
			C3083.674,2201.224,3067.374,2217.524,3047.451,2217.524z"/>
		<path style="opacity:0.22;fill:#1F1F1F;" d="M2962.359,3269.275h-2302.1c-9.963,0-18.039-8.076-18.039-18.039v-94.667
			c0-9.963,8.076-18.039,18.039-18.039h2302.1c9.963,0,18.039,8.076,18.039,18.039v94.667
			C2980.398,3261.199,2972.322,3269.275,2962.359,3269.275z"/>
		<path style="fill:#0E0E0E;" d="M2983.432,3064.394H666.639c-18.233,0-33.014-14.781-33.014-33.014v-747.826
			c0-18.233,14.781-33.014,33.014-33.014h2316.793c18.233,0,33.014,14.781,33.014,33.014v747.826
			C3016.446,3049.613,3001.666,3064.394,2983.432,3064.394z"/>
		<path style="fill:#0E0E0E;" d="M927.399,3250.01H674.992c-14.711,0-26.636-11.926-26.636-26.636v-328.668
			c0-14.711,11.925-26.636,26.636-26.636h252.406c14.711,0,26.636,11.925,26.636,26.636v328.668
			C954.035,3238.084,942.11,3250.01,927.399,3250.01z"/>
		<path style="fill:#0E0E0E;" d="M2989.81,3250.01h-252.406c-14.711,0-26.636-11.926-26.636-26.636v-328.668
			c0-14.711,11.925-26.636,26.636-26.636h252.406c14.711,0,26.636,11.925,26.636,26.636v328.668
			C3016.446,3238.084,3004.521,3250.01,2989.81,3250.01z"/>
		<path style="fill:#696F7D;" d="M3001.693,2344.514v436.96c0,138.498-115.84,250.772-258.736,250.772H921.845
			c-142.896,0-258.735-112.274-258.735-250.772v-436.96c0-97.139,35.65-186.235,94.969-255.675
			c35.798-41.883,80.238-76.578,130.669-101.518c56.422-27.985,120.307-43.739,188.024-43.739h1511.259
			c67.716,0,131.601,15.754,188.024,43.739c50.431,24.939,94.87,59.635,130.668,101.518
			C2966.043,2158.279,3001.693,2247.375,3001.693,2344.514z"/>
		<path style="opacity:0.37;fill:#F7EFEC;" d="M2906.723,2088.839H758.079c35.798-41.883,80.238-76.578,130.669-101.518h1887.307
			C2826.486,2012.261,2870.926,2046.957,2906.723,2088.839z"/>
		<ellipse style="fill:#DDDDDD;" cx="1123.724" cy="2922.445" rx="64.468" ry="62.484"/>
		<ellipse style="fill:#DDDDDD;" cx="2565.088" cy="2922.445" rx="64.468" ry="62.484"/>
		<g>
			<path style="fill:#242424;" d="M771.733,1947.129c3.683,14.278,36.937,92.014,36.937,92.014l91.624-51.835l-64.281-63.381
				L771.733,1947.129z"/>
			<ellipse style="fill:#696F7D;" cx="740.776" cy="1878.851" rx="132.236" ry="96.835"/>
		</g>
		<g>
			<path style="fill:#242424;" d="M2875.754,1947.129c-3.683,14.278-36.937,92.014-36.937,92.014l-91.624-51.835l64.281-63.381
				L2875.754,1947.129z"/>
			<ellipse style="fill:#696F7D;" cx="2906.711" cy="1878.851" rx="132.236" ry="96.835"/>
		</g>
		<g>
			<path style="fill:#1F1F1F;" d="M1132.114,2581.999l137.072-207.298c13.021-19.693,33.884-31.354,56.095-31.354h1036.688
				c23.042,0,44.575,12.545,57.442,33.466l124.358,202.201c13.589,22.095,15.582,50.376,5.25,74.491l-28.768,67.142
				c-11.402,26.612-35.836,43.607-62.692,43.607H1208.946c-29.068,0-55.042-19.871-65.028-49.748l-20.738-62.045
				C1115.274,2628.809,1118.622,2602.403,1132.114,2581.999z"/>
			<g>
				<rect x="1305.92" y="2414.8" style="fill:#ADADAD;" width="1069.771" height="9.672"/>
				<rect x="1251.108" y="2483.079" style="fill:#ADADAD;" width="1182.36" height="9.672"/>
				<rect x="1208.222" y="2550.935" style="fill:#ADADAD;" width="1265.161" height="10.518"/>
				<rect x="1180.042" y="2619.098" style="fill:#444444;" width="1321.521" height="10.75"/>
				<rect x="1208.222" y="2687.494" style="fill:#444444;" width="1265.161" height="10.518"/>
			</g>
			<path style="fill:#CCCDC8;" d="M2457.558,2777.151H1208.947c-34.51,0-65.558-23.532-77.261-58.556l-20.734-62.044
				c-9.166-27.42-5.275-57.949,10.406-81.665l137.074-207.298c15.37-23.253,40.362-37.136,66.85-37.136H2361.97
				c27.59,0,53.171,14.806,68.426,39.604l124.358,202.202c15.672,25.484,18.015,58.563,6.116,86.327l-28.77,67.145
				C2518.719,2756.967,2489.456,2777.151,2457.558,2777.151z M1325.283,2356.242c-17.806,0-34.752,9.561-45.335,25.57
				l-137.079,207.301c-11.341,17.15-14.129,39.304-7.455,59.262l20.734,62.044c8.185,24.487,29.402,40.94,52.799,40.94h1248.611
				c21.566,0,41.524-14.048,50.838-35.788l28.77-67.145c8.65-20.188,6.972-44.196-4.383-62.66l-124.353-202.198
				c-10.527-17.111-27.896-27.327-46.46-27.327H1325.283z"/>
		</g>
		<path style="fill:#696F7D;" d="M888.664,1987.308l180.418-452.543c31.577-79.203,101.775-130.206,179.212-130.206h1139.662
			c73.794,0,141.352,46.367,174.864,120.014l210.562,462.735H888.664z"/>
		<path style="fill:#C3CAD8;" d="M2761.771,1987.29H900.278l178.191-391.555c31.222-68.535,100.519-112.655,177.001-112.655
			h1125.596c72.914,0,139.641,40.122,172.719,103.85L2761.771,1987.29z"/>
		<path style="fill:#DDDDDD;" d="M2942.441,2252.148c0-16.895-12.475-31.174-29.223-33.392
			c-42.394-5.615-119.384-15.08-151.466-14.336c-52.96,1.228-175.923,21.824-250.21,35.073
			c-26.183,4.67-36.846,36.413-18.831,55.979l104.182,113.146c6.458,7.014,15.585,10.963,25.119,10.868l287.077-2.862
			c18.474-0.184,33.353-15.212,33.353-33.687V2252.148z"/>
		<path style="fill:#DDDDDD;" d="M724.696,2252.148c0-16.895,12.474-31.174,29.223-33.392
			c42.394-5.615,119.384-15.08,151.466-14.336c52.96,1.228,175.923,21.824,250.21,35.073c26.183,4.67,36.846,36.413,18.831,55.979
			l-104.182,113.146c-6.458,7.014-15.585,10.963-25.119,10.868l-287.077-2.862c-18.474-0.184-33.353-15.212-33.353-33.687V2252.148z
			"/>
		<path style="fill:#1F1F1F;" d="M2390.933,3003.398H1322.772c-10.432,0-20.073-7.824-25.301-20.532l-30.392-73.881
			c-11.287-27.437,2.778-61.78,25.301-61.78h1129.676c22.658,0,36.704,34.714,25.147,62.148l-31.124,73.881
			C2410.814,2995.734,2401.256,3003.398,2390.933,3003.398z"/>
		<rect x="1780.537" y="2230.796" style="fill:#DDDDDD;" width="124.276" height="19.743"/>
		<path style="fill:#1F1F1F;" d="M827.545,2805.338h-27.892c-22.961,0-41.575-18.614-41.575-41.575v-179.445
			c0-22.961,18.614-41.575,41.575-41.575h11.813c21.523,0,39.488,16.427,41.409,37.865l16.078,179.445
			C871.134,2784.381,851.971,2805.338,827.545,2805.338z"/>
		<path style="fill:#1F1F1F;" d="M2849.668,2805.338h50.583c16.975,0,30.736-13.761,30.736-30.736v-201.122
			c0-16.975-13.761-30.736-30.736-30.736h-32.563c-15.912,0-29.193,12.145-30.614,27.993l-18.021,201.122
			C2817.443,2789.844,2831.61,2805.338,2849.668,2805.338z"/>
		<path style="fill:#696F7D;" d="M724.696,2311.933c0,0,297.491-9.09,419.665,16.192L724.696,2311.933z"/>
		<path style="fill:#696F7D;" d="M2939.637,2311.933c0,0-297.491-9.09-419.665,16.192L2939.637,2311.933z"/>
		<polygon style="opacity:0.66;fill:#44445E;" points="2608.519,1987.29 1994.319,1987.29 1846.587,1984.577 1914.553,1483.08 
			2381.067,1483.08 		"/>
	</g>
	<g id="icon" style="opacity:0.31;">
		<g>
			<g>
				<path style="fill:#8CB072;" d="M3103.521,519.044c-66.349-63.344-153.473-95.289-245.445-89.843
					c-165.604,9.686-297.535,141.856-306.879,307.656c-5.227,93.182,29.481,184.448,95.357,250.197
					c45.677,45.76,70.504,105.027,69.863,166.921l-1.219,106.041c-24.999,7.746-43.485,30.956-44.023,58.491
					c-0.477,24.441,13.269,46.058,33.727,56.617c-1.881,1.469-3.701,3.037-5.446,4.715c-13.222,12.716-20.701,29.793-21.059,48.088
					c-0.357,18.294,6.449,35.651,19.165,48.873c12.716,13.222,29.793,20.701,48.088,21.057l235.214,4.594
					c0.455,0.009,0.905,0.014,1.358,0.014c37.21,0,67.843-29.899,68.572-67.266c0.358-18.293-6.448-35.65-19.163-48.872
					c-1.691-1.758-3.464-3.407-5.302-4.959c20.73-9.749,35.391-30.683,35.87-55.225c0.477-24.413-13.161-45.835-33.4-56.453
					l1.277-109.022c0.668-63.313,27.278-124.415,72.993-167.823c63.946-60.799,100.045-142.589,101.767-230.729l0.053-2.697
					C3205.947,668.994,3169.038,581.377,3103.521,519.044z M3011.656,1464.482c-8.195,7.88-18.933,12.078-30.281,11.878
					l-235.215-4.594c-23.435-0.458-42.128-19.897-41.671-43.332c0.452-23.155,19.431-41.679,42.49-41.679
					c0.279,0,0.563,0.002,0.843,0.008l235.214,4.593c11.332,0.222,21.913,4.856,29.794,13.051
					c7.881,8.196,12.099,18.949,11.877,30.282S3019.85,1456.602,3011.656,1464.482z M3048.008,1325.865
					c-0.435,22.261-15.936,40.718-36.549,45.939c-8.633-4.083-18.095-6.345-27.916-6.537l-235.214-4.593
					c-9.837-0.201-19.394,1.696-28.189,5.452c-20.417-6.007-35.206-25.066-34.771-47.343c0.385-19.729,12.641-36.528,29.678-43.72
					c0.142,0.003,0.142,0.003,0.142,0.003l297.964,3.405C3033.625,1284.407,3048.443,1303.582,3048.008,1325.865z M3093.333,982.574
					c-48.465,46.051-76.707,110.813-77.45,177.958l-1.172,103.628c-4.381-1.08-9.053-1.739-13.879-1.833l-265.84-5.192
					c-1.845-0.036-3.693,0.07-5.541,0.176l1.163-103.202c0.717-65.726-25.602-128.572-74.066-177.084
					c-62.947-62.993-96.172-150.255-91.167-239.324c8.918-158.567,135.203-285.167,293.416-294.43
					c8.527-0.401,17.051-0.661,25.426-0.498c78.63,1.536,152.298,31.798,209.588,86.445c31.222,29.859,55.795,65.694,72.349,105.064
					c16.414,39.225,25.095,81.848,24.536,125.001C3189.739,844.599,3155.108,923.862,3093.333,982.574z"/>
				<g>
					
						<rect x="3145.59" y="429.28" transform="matrix(0.789 -0.6144 0.6144 0.789 407.9214 2072.3171)" style="fill:#8CB072;" width="150.315" height="26.09"/>
					<g>
						
							<rect x="2376.492" y="669.759" transform="matrix(0.0195 -0.9998 0.9998 0.0195 1598.106 3119.4507)" style="fill:#8CB072;" width="26.094" height="150.31"/>
						
							<rect x="2537.828" y="354.087" transform="matrix(0.6448 -0.7644 0.7644 0.6448 577.9816 2102.2341)" style="fill:#8CB072;" width="26.092" height="150.31"/>
						
							<rect x="2811.574" y="285.305" transform="matrix(0.0195 -0.9998 0.9998 0.0195 2532.0854 3178.7075)" style="fill:#8CB072;" width="150.31" height="26.094"/>
					</g>
					
						<rect x="3367.441" y="683.909" transform="matrix(0.0195 -0.9998 0.9998 0.0195 2554.7842 4124.9785)" style="fill:#8CB072;" width="26.094" height="152.077"/>
				</g>
			</g>
		</g>
		<g>
			<path style="fill:#9DB360;" d="M2851.413,1266.864c-21.129-118.739,4.026-245.106,69.016-346.698l15.667,10.023
				c-62.499,97.701-86.692,219.227-66.372,333.418L2851.413,1266.864z"/>
			<g>
				<path style="fill:#9DB360;" d="M2825.634,919.044c11.368-50.19,38.949-94.882,62.519-140.628
					c23.571-45.746,43.881-95.96,38.787-147.168c46.249,71.972,80.237,155.701,74.261,241.043
					c-4.661,66.568-37.986,134.343-94.031,172.265C2829.795,1096.913,2812.995,974.847,2825.634,919.044z"/>
				<g>
					<path style="fill:#FFFFFF;" d="M2913.04,909.836c3.187-9.756,6.856-19.83,10.742-30.496
						c9.808-26.929,20.318-55.826,25.493-86.089c13.382-6.355,22.849-20.229,23.719-35.043l-2.652-0.156
						c-0.777,13.24-8.892,25.682-20.526,31.957c3.8-24.103,4.098-49.054-2.149-74.559l-2.582,0.632
						c6.305,25.74,5.826,50.975,1.794,75.361c-0.014,0.006-0.027,0.013-0.041,0.019l0.027,0.063
						c-5.057,30.528-15.681,59.725-25.581,86.904c-0.145,0.398-0.284,0.783-0.428,1.18c-8.254-18.099-12.767-38.1-13.007-57.979
						l-2.656,0.031c0.25,20.772,5.048,41.69,13.877,60.495l1.036-0.487c-3.452,9.487-6.72,18.546-9.591,27.34
						c-3.045,9.32-6.905,19.73-10.992,30.754c-12.728,34.334-28.571,77.066-30.694,117.378l2.652,0.14
						c1.3-24.674,7.826-50.342,15.61-74.421c21.169-9.148,38.054-28.601,44.098-50.853l-2.563-0.696
						c-5.628,20.715-20.99,38.899-40.401,48.098c4.496-13.62,9.331-26.694,13.79-38.722
						C2906.11,929.64,2909.98,919.204,2913.04,909.836z"/>
					<path style="fill:#FFFFFF;" d="M2848.829,981.948l-2.656-0.068c-0.548,21.597,7.474,43.156,22.006,59.143l1.966-1.786
						C2856.068,1023.75,2848.299,1002.868,2848.829,981.948z"/>
				</g>
			</g>
			<g>
				<path style="fill:#9DB360;" d="M2880.049,760.238c7.539-27.34,5.771-56.228,6.226-84.584
					c0.455-28.357,3.656-58.035,19.457-81.586c-41.197,22.927-79.497,54.756-98.803,97.769
					c-15.059,33.551-16.508,75.147,0.849,108.154C2831.74,845.56,2871.667,790.635,2880.049,760.238z"/>
				<g>
					<path style="fill:#FFFFFF;" d="M2839.986,733.018c0.991-5.568,1.83-11.417,2.718-17.61
						c2.244-15.634,4.658-32.407,10.019-48.455c-4.847-6.569-5.835-15.773-2.403-23.196l1.329,0.615
						c-3.068,6.634-2.364,14.79,1.655,20.866c4.427-12.698,10.775-24.896,20.447-35.66l1.09,0.979
						c-9.761,10.863-16.096,23.246-20.484,36.142c0.005,0.006,0.01,0.013,0.015,0.02l-0.029,0.024
						c-5.488,16.146-7.925,33.094-10.189,48.874c-0.033,0.231-0.066,0.454-0.099,0.684c8.72-6.644,16.117-15.186,21.407-24.78
						l1.282,0.706c-5.527,10.026-13.302,18.938-22.485,25.776l-0.376-0.506c-0.792,5.507-1.562,10.758-2.456,15.777
						c-0.946,5.32-1.781,11.381-2.664,17.8c-2.752,19.991-6.176,44.872-15.636,65.008l-1.325-0.622
						c5.79-12.324,9.299-26.492,11.784-40.215c-7.903-9.953-11.043-23.797-8.188-36.18l1.427,0.329
						c-2.657,11.528,0.074,24.359,7.109,33.879c1.361-7.786,2.414-15.396,3.378-22.399
						C2838.198,744.442,2839.034,738.366,2839.986,733.018z"/>
					<path style="fill:#FFFFFF;" d="M2852.412,784.759l1.308,0.659c-5.354,10.634-14.861,19.019-26.082,23.004l-0.49-1.379
						C2838.017,803.182,2847.225,795.06,2852.412,784.759z"/>
				</g>
			</g>
		</g>
	</g>
	<g id="charger">
		<path style="fill:#1C1E33;" d="M3558.226,1601.707h-86.008c-15.137,0-27.522-12.385-27.522-27.522l0,0
			c0-15.137,12.385-27.522,27.522-27.522h86.008c15.137,0,27.522,12.385,27.522,27.522l0,0
			C3585.749,1589.322,3573.363,1601.707,3558.226,1601.707z"/>
		<path style="fill:#9DB360;" d="M4032.99,3294.343h-488.525V1426.251c0-60.801,49.289-110.09,110.09-110.09h268.345
			c60.801,0,110.09,49.289,110.09,110.09V3294.343z"/>
		<path style="fill:#1C1E33;" d="M3943.216,1693.944h-315.857c-11.58,0-20.968-9.388-20.968-20.968v-209.208
			c0-11.58,9.388-20.968,20.968-20.968h315.857c11.58,0,20.968,9.387,20.968,20.968v209.208
			C3964.183,1684.557,3954.796,1693.944,3943.216,1693.944z"/>
		<g>
			<path style="fill:#DFEFEC;" d="M3864.998,1525.853c10.771,0,19.503,8.731,19.503,19.503v46.035
				c0,10.772-8.731,19.502-19.503,19.502h-148.083c-10.771,0-19.502-8.731-19.502-19.502v-46.035
				c0-10.772,8.731-19.503,19.502-19.503H3864.998L3864.998,1525.853z M3864.998,1520.184h-148.083
				c-13.88,0-25.172,11.292-25.172,25.172v46.035c0,13.88,11.292,25.172,25.172,25.172h148.083c13.88,0,25.172-11.292,25.172-25.172
				v-46.035C3890.17,1531.475,3878.877,1520.184,3864.998,1520.184L3864.998,1520.184z"/>
			<path style="fill:#DFEFEC;" d="M3820.583,1535.48v65.786h-98.208c-8.756,0-15.853-6.754-15.853-15.087v-35.612
				c0-8.333,7.097-15.087,15.853-15.087H3820.583z"/>
			<path style="fill:#DFEFEC;" d="M3687.491,1591.05L3687.491,1591.05c-3.914,0-7.087-3.173-7.087-7.087v-31.181
				c0-3.914,3.173-7.087,7.087-7.087l0,0c3.914,0,7.087,3.173,7.087,7.087v31.181
				C3694.577,1587.877,3691.405,1591.05,3687.491,1591.05z"/>
		</g>
		<path style="fill:#DFEFEC;" d="M3773.44,1892.204l-131.348,293.602c-1.652,3.691,1.391,7.762,5.399,7.224l160.984-21.625
			c3.944-0.53,6.979,3.414,5.456,7.091l-87.514,211.313c-2.369,5.72,5.502,10.003,9.018,4.906l203.74-295.308
			c2.519-3.652-0.437-8.57-4.844-8.059l-164.017,19.017c-3.99,0.462-6.956-3.607-5.294-7.264l99.219-218.281
			c1.687-3.712-1.393-7.823-5.429-7.246l-81.388,11.627C3775.667,1889.452,3774.164,1890.586,3773.44,1892.204z"/>
		<path style="fill:#1C1E33;" d="M3759.915,1745.34h-145.353c-4.513,0-8.171-3.658-8.171-8.171l0,0c0-4.513,3.658-8.171,8.171-8.171
			h145.353c4.512,0,8.171,3.658,8.171,8.171l0,0C3768.085,1741.682,3764.427,1745.34,3759.915,1745.34z"/>
		<path style="fill:#1C1E33;" d="M3956.606,1745.34h-67.413c-4.185,0-7.577-3.392-7.577-7.577v-1.187
			c0-4.185,3.393-7.577,7.577-7.577h67.413c4.185,0,7.577,3.392,7.577,7.577v1.187
			C3964.183,1741.948,3960.791,1745.34,3956.606,1745.34z"/>
		<g>
			<path style="fill:#545887;" d="M3253.386,3123.813c-0.249,0-0.495,0-0.744-0.002c-44.79-0.243-84.844-22.408-104.533-57.844
				l-2.333-4.2v-838.688c0-13.778-14.356-25.09-32.004-25.216l-133.506-0.951l0.263-37.08l133.507,0.951
				c37.947,0.271,68.819,28.217,68.819,62.296v828.758c13.954,21.475,40.319,34.735,69.988,34.896
				c0.18,0.001,0.366,0.002,0.546,0.002c31.31,0,59.051-14.599,72.495-38.189l11.726-20.577V1641.822
				c0-44.825,36.458-82.085,81.273-83.059l42.892-0.932l0.806,37.071l-42.891,0.932c-24.812,0.54-45,21.17-45,45.989V3037.79
				l-16.591,29.113C3338.069,3102.052,3297.993,3123.813,3253.386,3123.813z"/>
		</g>
	</g>
</g>
</svg>
